<svg width="418" height="459" viewBox="0 0 418 459" fill="none" xmlns="http://www.w3.org/2000/svg">
<path d="M387.127 72.8545C387.089 72.9646 387.074 73.0814 387.083 73.1976C387.093 73.3138 387.126 73.4268 387.182 73.5294C387.237 73.632 387.313 73.7219 387.405 73.7934C387.497 73.8649 387.603 73.9165 387.716 73.9448L398.565 77.0741C398.672 77.1056 398.785 77.1156 398.896 77.1036C399.007 77.0917 399.115 77.0579 399.213 77.0042C399.312 76.9505 399.398 76.8781 399.469 76.7909C399.539 76.7037 399.591 76.6036 399.623 76.4962C399.654 76.3888 399.664 76.2763 399.652 76.165C399.64 76.0537 399.606 75.9459 399.553 75.8477C399.499 75.7495 399.427 75.6628 399.339 75.5926C399.252 75.5224 399.152 75.4701 399.045 75.4386L388.141 72.3093C387.935 72.2591 387.717 72.287 387.53 72.3876C387.343 72.4883 387.199 72.6545 387.127 72.8545ZM398.162 78.4479L387.258 75.3187C387.149 75.2819 387.033 75.2677 386.918 75.2771C386.803 75.2865 386.691 75.3192 386.589 75.3733C386.487 75.4274 386.397 75.5017 386.324 75.5916C386.252 75.6816 386.199 75.7853 386.168 75.8965C385.741 77.5471 385.976 79.2989 386.822 80.779C387.668 82.2591 389.058 83.3505 390.697 83.8209C392.335 84.2913 394.093 84.1035 395.595 83.2975C397.097 82.4915 398.225 81.131 398.739 79.5055C398.771 79.3989 398.781 79.287 398.769 79.1764C398.757 79.0658 398.723 78.9587 398.669 78.8613C398.616 78.7639 398.543 78.6782 398.456 78.6091C398.369 78.54 398.269 78.4889 398.162 78.4588V78.4479ZM399.361 53.8499C400.206 53.2223 400.766 52.285 400.92 51.244C400.918 51.0833 400.86 50.9282 400.757 50.805C400.654 50.6819 400.511 50.5981 400.353 50.568C400.205 50.506 400.04 50.4994 399.888 50.5495C399.736 50.5996 399.607 50.7029 399.524 50.8406C399.305 51.3007 399.18 51.8 399.155 52.3092C399.131 52.8184 399.208 53.3273 399.383 53.8063L399.361 53.8499ZM394.378 57.4917H394.324C394.474 58.2571 394.558 59.0341 394.574 59.8141C394.531 63.3098 393.905 66.7738 392.721 70.0632C392.644 70.3249 392.557 70.6084 392.47 70.8701L392.197 71.7642L395.937 72.8545C396.09 72.3093 396.253 71.7642 396.395 71.2081C397.15 67.8018 398.457 64.5421 400.266 61.5586C400.693 60.9055 401.178 60.2925 401.716 59.7268C400.919 59.1347 400.217 58.4252 399.634 57.6225C399.303 57.1947 399.011 56.7387 398.761 56.2596C398.294 56.5275 397.805 56.7573 397.3 56.9465C396.359 57.2755 395.374 57.4594 394.378 57.4917ZM405.281 36.688C401.577 35.3661 397.534 35.335 393.81 36.5996C390.085 37.8642 386.897 40.3504 384.763 43.6547C382.63 46.959 381.675 50.8875 382.055 54.8025C382.434 58.7175 384.126 62.3894 386.855 65.2221C387.406 65.8101 387.797 66.5307 387.988 67.314C388.179 68.0972 388.164 68.9166 387.945 69.6925C387.891 69.8877 387.915 70.0963 388.013 70.2736C388.111 70.451 388.274 70.5829 388.468 70.6411L390.78 71.3062C390.933 70.7719 391.096 70.2159 391.271 69.6271C392.407 66.5041 393.015 63.2134 393.07 59.8904C393.045 59.0799 392.946 58.2733 392.775 57.4807C391.423 57.4224 390.14 56.8627 389.177 55.9107C388.928 55.6342 388.778 55.2828 388.751 54.9118C388.723 54.5408 388.819 54.1711 389.025 53.8608C389.262 53.4998 389.612 53.2271 390.02 53.0852C390.428 52.9433 390.871 52.94 391.282 53.0758C391.918 53.3334 392.485 53.7354 392.94 54.2501C393.394 54.7648 393.722 55.3781 393.898 56.0415C395.374 55.9563 396.807 55.5148 398.074 54.7549C397.744 54.0046 397.587 53.1895 397.616 52.3702C397.644 51.5509 397.857 50.7485 398.238 50.0228C398.486 49.614 398.861 49.2979 399.306 49.1234C399.752 48.9488 400.242 48.9254 400.702 49.0568C401.161 49.1882 401.565 49.467 401.851 49.8504C402.137 50.2338 402.289 50.7005 402.283 51.1786C402.222 51.9987 401.977 52.7944 401.566 53.5063C401.154 54.2181 400.587 54.8276 399.906 55.2892C400.145 55.7605 400.426 56.2093 400.746 56.6303C401.305 57.427 401.999 58.1205 402.795 58.6801C403.305 58.2212 403.913 57.8845 404.572 57.6956C405.232 57.5067 405.925 57.4705 406.601 57.5898C407.022 57.6959 407.396 57.9386 407.664 58.2799C407.932 58.6213 408.08 59.0419 408.084 59.4761C408.094 59.8477 407.98 60.2121 407.758 60.5107C407.537 60.8093 407.221 61.0248 406.862 61.1225C405.54 61.4151 404.157 61.2052 402.981 60.5337C402.412 61.1076 401.901 61.7357 401.454 62.4091C399.725 65.271 398.48 68.3987 397.769 71.666V71.8405C397.638 72.3311 397.507 72.8109 397.366 73.3015L399.666 73.9557C399.862 74.015 400.073 73.9954 400.255 73.9012C400.433 73.7965 400.565 73.6293 400.626 73.4324C400.855 72.6551 401.283 71.9513 401.869 71.3909C402.454 70.8304 403.176 70.4329 403.962 70.2377C406.947 69.4684 409.675 67.9219 411.868 65.7558C414.061 63.5896 415.64 60.8811 416.446 57.906C417.579 53.6039 417.051 49.0333 414.968 45.1023C412.886 41.1714 409.4 38.1677 405.205 36.688H405.281ZM390.278 54.6786C390.278 54.7549 390.278 54.8312 390.366 54.9948C390.802 55.4082 391.34 55.698 391.925 55.8343L392.274 55.9216H392.339V55.8561C392.077 55.2342 391.596 54.7299 390.987 54.4387C390.92 54.4026 390.846 54.3801 390.77 54.3726C390.694 54.3651 390.618 54.3727 390.545 54.395C390.472 54.4173 390.404 54.4539 390.345 54.5025C390.286 54.5512 390.238 54.611 390.202 54.6786H390.278ZM406.514 59.6505C406.699 59.5742 406.764 59.5197 406.753 59.4106C406.753 59.2863 406.709 59.166 406.63 59.0704C406.55 58.9749 406.44 58.9101 406.317 58.8873C405.644 58.8041 404.963 58.9751 404.409 59.367H404.355H404.42C404.536 59.4183 404.656 59.4585 404.78 59.487C405.309 59.6836 405.88 59.7399 406.437 59.6505H406.514Z" fill="#EBEBEB"/>
<path d="M385.012 172.075C386.146 171.607 387.312 171.221 388.501 170.919C389.757 170.588 391.043 170.38 392.339 170.298C393.732 170.205 395.131 170.253 396.515 170.44C398.068 170.645 399.595 171.011 401.073 171.53C403.072 172.196 404.95 173.183 406.633 174.452C408.112 175.562 409.354 176.956 410.286 178.552C411.163 180.082 411.692 181.787 411.834 183.545C411.976 185.439 411.716 187.342 411.071 189.128C410.533 190.797 409.686 192.35 408.574 193.707C407.632 194.82 406.53 195.786 405.303 196.575C404.178 197.286 402.969 197.857 401.705 198.276L398.227 199.366C397.232 199.686 396.259 200.072 395.316 200.522C394.527 200.889 393.874 201.495 393.451 202.256L390.736 207.369L384.478 205.189L385.939 198.941C386.129 197.839 386.673 196.829 387.487 196.062C388.307 195.336 389.238 194.747 390.246 194.318C391.357 193.852 392.497 193.459 393.658 193.14C394.87 192.811 396.055 192.388 397.202 191.876C398.331 191.387 399.379 190.729 400.31 189.924C401.291 189.042 402.018 187.912 402.414 186.653C402.71 185.863 402.825 185.017 402.749 184.177C402.674 183.337 402.41 182.525 401.978 181.801C401.534 181.061 400.949 180.416 400.255 179.904C399.486 179.323 398.628 178.87 397.715 178.563C396.514 178.118 395.253 177.857 393.975 177.788C393.026 177.754 392.076 177.816 391.14 177.974C390.333 178.116 389.635 178.268 389.057 178.41C388.595 178.546 388.102 178.546 387.64 178.41C387.238 178.3 386.878 178.073 386.604 177.759C386.331 177.445 386.156 177.057 386.102 176.644L385.012 172.075ZM378.328 214.042C378.584 213.292 378.984 212.599 379.506 212.003C380.003 211.433 380.607 210.967 381.283 210.629C382.715 209.951 384.357 209.865 385.852 210.39C386.612 210.646 387.31 211.058 387.902 211.6C388.461 212.112 388.923 212.721 389.264 213.399C389.606 214.079 389.806 214.82 389.853 215.58C389.911 216.371 389.803 217.165 389.537 217.913C389.29 218.652 388.897 219.334 388.379 219.916C387.862 220.499 387.232 220.971 386.528 221.304C385.449 221.793 384.251 221.96 383.079 221.786C381.907 221.612 380.811 221.104 379.92 220.322C379.35 219.826 378.884 219.222 378.546 218.545C378.214 217.864 378.025 217.122 377.99 216.365C377.939 215.557 378.054 214.748 378.328 213.988V214.042Z" fill="#F0F0F0"/>
<path d="M42.0357 333.652C41.6707 334.875 41.2264 336.074 40.7055 337.239C40.144 338.465 39.4764 339.64 38.7102 340.75C37.8768 341.929 36.9311 343.025 35.8862 344.021C34.7074 345.141 33.4179 346.139 32.0373 346.998C30.2003 348.188 28.1824 349.071 26.0623 349.615C24.1995 350.088 22.2614 350.188 20.3598 349.909C18.5519 349.626 16.8284 348.948 15.3115 347.925C13.6827 346.81 12.311 345.36 11.2882 343.672C10.2795 342.156 9.56907 340.461 9.19476 338.678C8.90214 337.192 8.83232 335.671 8.98759 334.164C9.14856 332.79 9.4706 331.44 9.94708 330.141C10.4268 328.887 10.863 327.699 11.2882 326.587C11.6794 325.574 11.9999 324.536 12.2477 323.479C12.4571 322.601 12.3885 321.679 12.0514 320.841L9.6745 315.313L15.486 311.638L19.6075 316.883C20.3732 317.756 20.8359 318.854 20.9268 320.012C20.9956 321.148 20.8703 322.287 20.5561 323.381C20.2147 324.581 19.7958 325.757 19.3022 326.903C18.788 328.102 18.3616 329.338 18.0265 330.599C17.6924 331.828 17.5454 333.099 17.5903 334.372C17.6743 335.742 18.1181 337.066 18.8769 338.21C19.3166 338.974 19.9236 339.629 20.6525 340.126C21.3814 340.623 22.2132 340.948 23.0856 341.077C23.9747 341.194 24.8781 341.139 25.7461 340.914C26.7155 340.66 27.639 340.255 28.4828 339.714C29.6219 339.038 30.6484 338.189 31.5249 337.196C32.1747 336.45 32.7448 335.639 33.2258 334.775C33.6401 334.023 33.9672 333.369 34.218 332.802C34.403 332.335 34.7169 331.93 35.123 331.635C35.4777 331.386 35.8966 331.244 36.3297 331.227C36.7628 331.209 37.1918 331.317 37.5653 331.537L42.0357 333.652ZM12.3567 300.942C12.7975 301.636 13.0976 302.411 13.2399 303.221C13.3932 303.991 13.3932 304.784 13.2399 305.554C13.0619 306.335 12.7362 307.076 12.2804 307.735C11.7909 308.433 11.1592 309.02 10.4268 309.457C9.72921 309.906 8.94555 310.203 8.12622 310.33C7.34471 310.459 6.54576 310.441 5.77109 310.275C4.57192 310.005 3.48119 309.382 2.63965 308.486C1.79811 307.59 1.24439 306.462 1.04994 305.249C0.919972 304.47 0.949641 303.672 1.13716 302.905C1.52031 301.32 2.51623 299.951 3.90662 299.099C4.6087 298.646 5.39477 298.338 6.21813 298.194C6.98823 298.051 7.77928 298.066 8.54375 298.236C9.30822 298.407 10.0303 298.73 10.6667 299.186C11.3411 299.667 11.9152 300.274 12.3567 300.975V300.942Z" fill="#E0E0E0"/>
<path d="M133.689 188.365C134.122 188.289 134.567 188.354 134.959 188.551C135.352 188.747 135.671 189.064 135.87 189.455C136.186 189.237 136.372 188.823 136.742 188.725C137.113 188.627 137.626 188.986 137.898 189.368C138.938 190.876 139.477 192.674 139.438 194.506C139.399 196.338 138.784 198.111 137.68 199.574C137.552 199.764 137.38 199.921 137.178 200.032C136.935 200.123 136.672 200.149 136.415 200.108C135.046 200.02 133.692 199.771 132.381 199.366C131.707 199.235 131.072 198.951 130.525 198.535C129.979 198.119 129.536 197.583 129.23 196.968C129.002 195.992 129.07 194.971 129.426 194.035C129.692 192.753 130.285 191.562 131.149 190.578C131.814 189.88 132.817 188.561 133.689 188.365Z" fill="#F28F8F"/>
<path d="M169.529 97.0273C157.59 99.1099 152.672 98.6519 141.496 111.758C128.827 126.619 121.216 135.265 118.959 139.016C114.598 146.245 115.056 148.884 124.629 162.262C132.261 172.849 135.827 175.652 138.084 180.275C139.479 183.153 137.135 185.901 136.492 187.482C135.467 189.957 136.492 192.715 135.663 197.491C133.976 196.623 132.184 195.978 130.331 195.572C130.331 195.572 134.104 191.821 132.512 189.204C132.458 189.115 132.386 189.038 132.301 188.978C132.216 188.917 132.12 188.875 132.018 188.852C131.916 188.83 131.811 188.828 131.708 188.848C131.606 188.867 131.508 188.907 131.422 188.965C130.538 189.597 129.154 191.047 127.529 192.508C124.683 195.06 125.348 195.659 126.526 200.239C126.984 202.07 128.38 202.637 133.809 203.913C139.239 205.189 140.908 204.535 147.831 199.116C154.755 193.697 154.373 179.075 152.574 172.893C150.448 165.62 141.529 148.022 141.529 148.022L160.196 125.027L169.529 97.0273Z" fill="#FFA8A7"/>
<path d="M141.551 148C139.821 149.199 137.868 150.039 135.808 150.47C133.748 150.901 131.622 150.914 129.557 150.508C134.158 153.158 140.275 152.057 142.51 150.061L141.551 148Z" fill="#F28F8F"/>
<path d="M242.821 355.939L211.408 357.204C215.966 377.266 221.156 390.568 222.312 400.937C222.672 403.543 227.077 430.376 228.505 436.231C229.933 442.086 244.5 442.141 245.362 432.034C245.939 425.295 244.326 401.101 244.031 397.884C242.821 383.95 243.334 374.104 242.821 355.939Z" fill="#FFA8A7"/>
<path d="M146.152 353.071C146.435 368.336 146.828 378.683 146.828 384.56C146.828 390.437 144.974 396.183 141.932 399.04C135.565 405.004 130.135 410.685 122.154 415.897C123.309 418.557 132.904 418.459 137.658 416.431C143.828 413.633 149.758 410.333 155.387 406.563C161.929 402.322 170.325 398.931 170.434 392.476C170.434 391.669 174.588 390.535 173.018 382.958C173.018 382.958 175.198 369.623 177.445 351.97L146.152 353.071Z" fill="#FFA8A7"/>
<path d="M112.319 420.149C111.926 420.149 111.283 424.51 113.409 426.407C115.873 428.588 123.113 432.197 132.741 431.041C142.368 429.886 147.624 426.963 151.505 423.769C155.387 420.574 160.828 416.06 165.2 415.133C169.245 414.283 173.661 412.495 174.959 411.252C176.256 410.009 176.147 404.415 176.147 404.415L112.319 420.149Z" fill="#56008F"/>
<path d="M173.04 382.881C173.04 382.881 173.759 382.881 173.999 384.211C174.283 385.749 174.555 390.23 175.155 392.76C176.005 396.281 176.518 403.488 175.962 406.345C175.406 409.202 168.787 411.11 164.557 412.68C160.326 414.25 155.234 417.619 150.818 421.196C146.403 424.772 136.709 428.555 130.44 428.577C120.867 428.577 114.696 425.939 112.82 422.46C111.861 420.683 111.566 418.83 112.82 417.14C114.434 415.024 116.985 413.672 119.21 412.298C123.266 409.802 127.256 407.217 131.116 404.459C133.094 403.089 134.997 401.615 136.819 400.043C138.67 398.515 140.348 396.79 141.823 394.897C143.048 392.942 143.94 390.798 144.462 388.551C144.557 388.077 144.75 387.627 145.029 387.232C145.376 386.869 145.812 386.602 146.294 386.457C148.725 385.712 151.298 385.544 153.806 385.967C156.462 386.216 158.996 387.201 161.122 388.813C161.486 389.176 161.763 389.617 161.935 390.101C162.107 390.586 162.168 391.103 162.114 391.615C162.202 392.812 162.125 394.015 161.885 395.191C161.809 395.54 161.809 396.031 162.158 396.118C162.507 396.205 162.649 395.954 162.801 395.736C164.917 392.88 165.952 389.107 168.907 386.937C169.812 386.272 171.175 386.032 171.949 385.269C172.543 384.6 172.923 383.768 173.04 382.881Z" fill="#7A39BA"/>
<path d="M123.68 409.529C138.465 409.529 143.055 420.007 143.579 425.339C140.308 427.258 133.297 428.61 130.429 428.61C120.856 428.61 114.292 425.971 112.417 422.493C110.225 418.394 112.351 413.738 123.68 409.529Z" fill="#FAFAFA"/>
<path d="M142.848 410.347C143.016 410.328 143.173 410.255 143.295 410.14C143.363 410.073 143.417 409.993 143.454 409.905C143.491 409.817 143.51 409.722 143.51 409.627C143.51 409.532 143.491 409.437 143.454 409.349C143.417 409.261 143.363 409.182 143.295 409.115C140.973 406.781 134.627 404.012 129.219 405.113C129.125 405.13 129.035 405.166 128.955 405.218C128.874 405.27 128.805 405.338 128.751 405.417C128.698 405.496 128.66 405.585 128.641 405.679C128.622 405.773 128.622 405.87 128.641 405.964C128.661 406.058 128.699 406.148 128.753 406.228C128.808 406.308 128.878 406.377 128.959 406.43C129.04 406.482 129.131 406.518 129.226 406.536C129.321 406.553 129.419 406.551 129.513 406.531C134.562 405.527 140.417 408.286 142.249 410.129C142.326 410.207 142.42 410.267 142.524 410.304C142.628 410.342 142.738 410.357 142.848 410.347Z" fill="#F0F0F0"/>
<path d="M148.561 405.974C148.729 405.956 148.886 405.883 149.008 405.767C149.077 405.703 149.132 405.625 149.169 405.539C149.207 405.453 149.226 405.36 149.226 405.266C149.226 405.172 149.207 405.079 149.169 404.992C149.132 404.906 149.077 404.828 149.008 404.764C146.653 402.584 140.231 399.912 134.78 401.046C134.686 401.061 134.597 401.094 134.517 401.144C134.436 401.194 134.367 401.259 134.313 401.337C134.259 401.414 134.221 401.502 134.202 401.594C134.183 401.687 134.183 401.782 134.202 401.875C134.246 402.062 134.362 402.225 134.526 402.327C134.689 402.429 134.886 402.463 135.074 402.42C137.337 402.086 139.644 402.211 141.858 402.786C144.072 403.361 146.147 404.375 147.962 405.767C148.04 405.845 148.134 405.904 148.238 405.939C148.342 405.975 148.452 405.987 148.561 405.974Z" fill="#F0F0F0"/>
<path d="M153.632 402.136C153.801 402.125 153.96 402.051 154.079 401.929C154.223 401.784 154.303 401.588 154.303 401.384C154.303 401.18 154.223 400.984 154.079 400.839C151.811 398.386 145.585 395.387 140.308 396.478C140.118 396.519 139.952 396.634 139.846 396.798C139.74 396.961 139.702 397.159 139.741 397.35C139.755 397.446 139.789 397.538 139.84 397.621C139.891 397.704 139.958 397.776 140.038 397.832C140.117 397.888 140.207 397.927 140.302 397.947C140.398 397.968 140.496 397.968 140.591 397.95C145.53 396.968 151.244 399.923 153.043 401.853C153.11 401.945 153.199 402.02 153.301 402.069C153.404 402.119 153.518 402.142 153.632 402.136Z" fill="#F0F0F0"/>
<path d="M157.895 397.317C158.056 397.311 158.21 397.25 158.331 397.143C158.472 397.015 158.557 396.837 158.568 396.647C158.578 396.457 158.512 396.271 158.385 396.129C155.398 392.76 148.965 390.797 143.731 391.691C143.639 391.706 143.551 391.739 143.471 391.788C143.391 391.838 143.322 391.902 143.268 391.978C143.213 392.054 143.174 392.14 143.152 392.231C143.131 392.322 143.128 392.417 143.143 392.509C143.158 392.601 143.191 392.69 143.24 392.769C143.289 392.849 143.354 392.918 143.429 392.973C143.505 393.027 143.591 393.066 143.682 393.088C143.774 393.109 143.868 393.113 143.96 393.098C148.681 392.302 154.667 394.101 157.328 397.088C157.398 397.168 157.486 397.23 157.584 397.269C157.683 397.309 157.789 397.325 157.895 397.317Z" fill="#F0F0F0"/>
<path d="M223.958 440.844C224.155 447.113 225.212 450.733 227.6 454.157C229.988 457.58 234.829 458.834 239.343 457.798C243.857 456.763 248.763 453.688 250.802 448.89C252.983 443.668 252.721 440.059 251.664 434.629L223.958 440.844Z" fill="#56008F"/>
<path d="M221.974 398.593C222.345 400.534 223.762 405.277 223.958 405.985C224.013 406.138 224.067 406.323 224.22 406.378C224.307 406.398 224.398 406.387 224.478 406.348C224.557 406.308 224.62 406.241 224.656 406.16C224.839 405.146 224.88 404.111 224.776 403.085C224.76 402.409 224.886 401.736 225.147 401.112C225.432 400.658 225.805 400.266 226.243 399.957C226.68 399.648 227.175 399.429 227.698 399.313C231.945 398.061 236.425 397.818 240.782 398.604C241.008 398.626 241.226 398.693 241.426 398.8C241.637 398.99 241.804 399.224 241.913 399.486C242.023 399.749 242.072 400.032 242.058 400.316C242.167 401.461 242.265 402.605 242.363 403.761C242.363 404.012 242.494 404.35 242.745 404.339C242.996 404.328 243.017 404.197 243.105 404.077C243.661 403.224 243.932 402.216 243.879 401.199C243.955 399.901 243.988 398.604 243.955 397.306C243.955 396.805 243.955 396.292 243.89 395.791C245.754 395.911 244.98 402.518 246.714 412.571C248.175 420.956 250.366 426.037 251.446 432.949C252.678 440.844 251.217 444.387 248.098 449.195C244.98 454.004 233.859 458.758 228.32 451.954C223.795 446.404 223.566 440.222 223.958 432.328C224.318 424.172 222.781 417.336 222.356 411.143C221.887 405.222 220.36 399.258 221.974 398.593Z" fill="#7A39BA"/>
<path d="M251.958 437.529C252.318 442.435 251.009 445.412 248.567 449.174C245.449 453.971 233.433 459.161 227.851 452.347C225.092 448.967 224.329 444.943 223.926 440.833C227.218 435.534 246.735 433.069 251.958 437.529Z" fill="#FAFAFA"/>
<path d="M227.764 431.259C227.839 431.274 227.917 431.274 227.993 431.259C228.069 431.259 236.715 427.988 245.045 429.679C245.216 429.72 245.396 429.696 245.549 429.612C245.703 429.527 245.819 429.387 245.874 429.221C245.89 429.139 245.888 429.054 245.87 428.973C245.852 428.892 245.817 428.815 245.768 428.748C245.719 428.68 245.657 428.624 245.585 428.581C245.513 428.539 245.433 428.511 245.351 428.501C236.475 426.756 227.72 430.027 227.393 430.169C227.315 430.196 227.243 430.239 227.184 430.296C227.124 430.353 227.078 430.422 227.047 430.499C227.017 430.576 227.004 430.658 227.009 430.741C227.014 430.823 227.037 430.903 227.077 430.976C227.153 431.083 227.258 431.167 227.379 431.217C227.501 431.267 227.634 431.282 227.764 431.259Z" fill="#F0F0F0"/>
<path d="M244.587 423.736C244.715 423.73 244.837 423.687 244.942 423.614C245.046 423.541 245.127 423.439 245.176 423.322C245.201 423.243 245.209 423.16 245.2 423.078C245.191 422.996 245.166 422.917 245.125 422.845C245.084 422.773 245.028 422.711 244.962 422.662C244.896 422.612 244.82 422.577 244.74 422.559C236.377 420.138 227.142 423.932 226.804 424.096C226.727 424.126 226.658 424.172 226.6 424.231C226.543 424.29 226.5 424.361 226.473 424.439C226.446 424.517 226.436 424.6 226.444 424.682C226.453 424.764 226.479 424.843 226.52 424.914C226.622 425.057 226.769 425.16 226.939 425.206C227.108 425.252 227.288 425.237 227.447 425.165C227.524 425.165 236.519 421.446 244.293 423.714C244.389 423.738 244.489 423.745 244.587 423.736Z" fill="#F0F0F0"/>
<path d="M244.26 418.186C244.384 418.178 244.503 418.135 244.605 418.064C244.707 417.993 244.787 417.896 244.838 417.783C244.865 417.704 244.875 417.621 244.867 417.538C244.86 417.455 244.836 417.375 244.796 417.302C244.756 417.23 244.701 417.166 244.635 417.115C244.569 417.065 244.494 417.029 244.413 417.009C235.189 414.185 226.466 418.317 226.139 418.492C226.065 418.526 226 418.577 225.947 418.639C225.895 418.702 225.856 418.775 225.834 418.853C225.813 418.932 225.808 419.015 225.821 419.095C225.834 419.176 225.865 419.252 225.91 419.32C226.02 419.459 226.175 419.555 226.349 419.591C226.522 419.627 226.703 419.601 226.859 419.517C226.935 419.517 235.396 415.515 243.955 418.143C244.053 418.179 244.157 418.194 244.26 418.186Z" fill="#F0F0F0"/>
<path d="M243.563 411.306C243.684 411.299 243.801 411.258 243.901 411.189C244.001 411.12 244.08 411.025 244.13 410.914C244.162 410.837 244.177 410.754 244.174 410.671C244.17 410.587 244.148 410.506 244.11 410.432C244.071 410.358 244.017 410.293 243.951 410.243C243.884 410.192 243.808 410.157 243.726 410.14C235.113 407.359 225.681 411.612 225.332 411.797C225.255 411.828 225.186 411.876 225.13 411.937C225.074 411.999 225.033 412.072 225.009 412.151C224.985 412.231 224.979 412.315 224.991 412.397C225.004 412.479 225.035 412.557 225.081 412.626C225.185 412.769 225.338 412.87 225.511 412.908C225.684 412.947 225.865 412.92 226.019 412.833C226.106 412.833 235.243 408.7 243.247 411.274C243.349 411.306 243.456 411.317 243.563 411.306Z" fill="#EBEBEB"/>
<path d="M224.754 163.767C228.592 170.527 232.594 177.058 235.658 190.742C238.449 203.27 238.482 213.846 238.318 235.446C238.002 275.341 238.318 281.752 238.438 286.561C238.558 291.369 239.627 295.469 242.091 319.162C244.555 342.855 243.377 372.109 243.377 372.109C238.704 374.808 233.491 376.439 228.113 376.884C219.761 377.637 215.029 375.489 215.029 375.489C215.029 375.489 201.007 328.059 197.834 313.797C194.661 299.536 188.021 260.175 188.021 260.175L184.314 292.372C184.314 292.372 185.142 305.097 182.602 325.813C180.061 346.529 175.558 367.867 175.558 367.867C175.558 367.867 172.723 371.073 161.438 370.713C149.674 370.331 145.683 367.028 145.683 367.028C145.683 367.028 141.322 301.466 141.322 277.914C141.322 254.363 143.971 194.983 149.205 163.92L224.754 163.767Z" fill="#56008F"/>
<path d="M156.107 198.353C159.65 208.078 172.571 214.882 178.251 216.245L184.608 258.615L184.314 292.416L188.021 260.218L180.596 208.656C180.596 208.656 164.851 207.5 156.107 198.353ZM209.969 193.61C210.896 197.426 211.736 201.242 212.641 205.113C213.546 208.983 214.396 212.81 215.355 216.681C215.396 212.694 215.13 208.71 214.56 204.764C214.047 200.817 213.306 196.913 212.379 193.032C211.477 189.152 210.356 185.326 209.021 181.572C207.707 177.795 205.992 174.169 203.907 170.756C205.106 174.572 206.153 178.388 207.178 182.161C208.203 185.934 209.086 189.772 209.969 193.61ZM216.653 186.25C217.929 188.55 219.15 190.884 220.371 193.217L224.002 200.359C223.733 197.653 223.117 194.992 222.17 192.443C221.279 189.895 220.185 187.423 218.899 185.05C217.604 182.684 216.147 180.411 214.538 178.247C212.94 176.066 211.136 174.043 209.151 172.206C210.329 174.649 211.616 176.982 212.902 179.304C214.189 181.627 215.421 183.927 216.653 186.25ZM210.732 293.779C208.465 281.578 206.84 269.246 205.281 256.904C203.722 244.561 202.184 232.197 200.461 219.832C201.214 232.273 202.108 244.703 203.34 257.1C204.572 269.497 206.055 281.905 208.301 294.171C210.547 306.438 213.109 318.617 215.672 330.818C218.234 343.018 220.883 355.176 223.729 367.311C221.839 354.998 219.793 342.706 217.591 330.436C215.399 318.246 213.077 305.969 210.743 293.779H210.732ZM154.035 252.346L156.074 219.865C154.395 230.594 153.097 241.377 152.094 252.193C151.091 263.01 150.197 273.804 150.153 284.784C150.524 295.687 151.353 306.492 152.247 317.33C153.141 328.168 154.209 338.941 155.518 349.724C155.22 338.872 154.791 328.03 154.231 317.199L153.413 300.953C153.141 295.502 152.814 290.104 152.694 284.74C152.574 279.375 152.934 273.967 153.174 268.57C153.413 263.173 153.773 257.743 154.068 252.335L154.035 252.346Z" fill="#4D0085"/>
<path d="M216.893 39.872C224.013 44.3969 223.828 50.7754 223.86 66.2036C223.893 81.6319 222.923 123.784 222.923 123.784L171.6 123.49V76.4855L168.002 59.2691C168.002 59.2691 162.932 52.0838 163.641 44.724C164.35 37.3642 168.766 27.802 182.046 25.0979C193.069 22.7755 214.211 25.2397 216.893 39.872Z" fill="#56008F"/>
<path d="M224.754 163.767C227.916 159.406 223.751 156.527 225.136 149.331C226.913 140.096 227.6 135.876 228.265 131.46C230.544 116.195 228.265 108.563 224.994 101.203C224.994 101.203 207.985 96.5585 204.452 95.7516C198.502 94.2487 192.326 93.8532 186.233 94.585C184.575 94.7485 169.594 97.071 169.583 97.071C169.572 97.071 155.354 106.808 150.284 115.857C146.414 122.77 142.783 133.041 149.597 145.177C150.099 156.08 146.087 159.667 149.096 164.726C156.172 173.733 201.53 182.39 224.754 163.767Z" fill="#7A39BA"/>
<path d="M210.253 79.2983C211.625 79.5749 213.045 79.499 214.38 79.0776C215.714 78.6561 216.921 77.903 217.885 76.8887C222.039 72.7999 222.65 68.4386 220.993 65.4183C219.63 62.9324 216.032 61.1878 213.36 62.6707C210.482 64.2408 210.318 65.6582 209.162 67.5554C208.007 69.4526 205.401 67.7735 206.753 59.923C202.315 59.1162 194.127 54.7985 191.194 50.3281C187.824 45.1926 186.756 42.554 184.248 40.3406C180.606 37.135 175.427 37.5602 173.421 38.9341C170.706 42.0197 167.86 45.1926 166.781 58.5601C164.677 72.7345 166.65 81.9151 169.769 85.1207C171.949 87.3014 176.812 89.6674 181.839 89.6565L181.577 96.1331C181.577 96.1331 165.865 109.435 184.423 109.119C188.579 108.983 192.658 107.96 196.385 106.117C200.112 104.273 203.402 101.654 206.033 98.4337L207.374 76.8015C207.374 76.8015 207.516 78.6223 210.253 79.2983Z" fill="#FFA8A7"/>
<path d="M187.05 61.4711C187.179 61.9144 187.435 62.3101 187.787 62.6091C188.139 62.908 188.57 63.097 189.029 63.1526C189.487 63.2082 189.951 63.1279 190.364 62.9217C190.777 62.7155 191.121 62.3925 191.351 61.9928C191.582 61.5932 191.691 61.1344 191.663 60.6737C191.636 60.2129 191.473 59.7704 191.196 59.4012C190.919 59.032 190.54 58.7523 190.105 58.5969C189.67 58.4415 189.2 58.4173 188.751 58.5272C188.136 58.6933 187.612 59.0963 187.293 59.648C186.974 60.1997 186.887 60.8552 187.05 61.4711Z" fill="#56008F"/>
<path d="M176.747 47.7114L171.371 49.4342C171.466 49.79 171.632 50.1228 171.86 50.4122C172.087 50.7015 172.372 50.9414 172.695 51.1169C173.019 51.2925 173.375 51.4002 173.742 51.4333C174.108 51.4664 174.478 51.4243 174.828 51.3095C175.549 51.0712 176.15 50.5645 176.507 49.8946C176.865 49.2246 176.95 48.4429 176.747 47.7114Z" fill="#56008F"/>
<path d="M174.37 59.9011C174.169 60.3171 173.851 60.6651 173.455 60.9017C173.059 61.1384 172.601 61.2533 172.14 61.2322C171.679 61.2111 171.234 61.0549 170.861 60.7831C170.488 60.5112 170.203 60.1357 170.041 59.7032C169.88 59.2706 169.849 58.8002 169.953 58.3503C170.057 57.9005 170.29 57.491 170.625 57.1729C170.959 56.8547 171.38 56.6419 171.835 56.5609C172.289 56.4799 172.757 56.5343 173.181 56.7173C173.76 56.9833 174.21 57.4675 174.432 58.064C174.655 58.6606 174.633 59.3211 174.37 59.9011Z" fill="#56008F"/>
<path d="M188.184 51.2768L193.32 54.4497C193.544 54.1261 193.699 53.7602 193.776 53.3745C193.854 52.9887 193.852 52.5912 193.77 52.2064C193.688 51.8215 193.529 51.4574 193.301 51.1363C193.074 50.8152 192.783 50.5439 192.448 50.3391C191.752 49.9202 190.922 49.7839 190.129 49.9584C189.336 50.1328 188.64 50.6047 188.184 51.2768Z" fill="#56008F"/>
<path d="M163.074 53.9151C163.081 54.6958 163.324 55.4562 163.772 56.0958C163.935 56.3332 164.04 56.606 164.077 56.8917C164.241 58.3855 164.164 61.1877 164.677 62.8014C165.189 64.4151 166.367 67.021 170.663 67.468C171.416 67.5551 172.177 67.5551 172.931 67.468H173.105C173.764 67.3913 174.407 67.2148 175.013 66.9446H175.133L175.308 66.8683L175.515 66.7484L175.711 66.6393L175.94 66.4976L176.147 66.3559L176.551 66.0506C177.249 65.4543 177.849 64.7514 178.328 63.968C179.56 62.0272 179.723 59.1705 181.326 58.9743H181.762C183.889 59.1814 183.213 62.2453 184.085 64.5459C184.957 66.8465 186.603 69.1689 191.205 69.616H191.793H192.273C192.677 69.616 193.058 69.616 193.364 69.616L193.756 69.5833H194.094H194.323C194.777 69.4755 195.219 69.322 195.642 69.1253L196.1 68.8963C196.384 68.7375 196.654 68.5552 196.907 68.3512C197.571 67.7705 198.132 67.081 198.564 66.3122C199.491 64.8512 200.08 62.0926 200.636 60.6752C200.747 60.3798 200.909 60.1066 201.116 59.8683C201.757 59.3432 202.231 58.6421 202.479 57.8512C202.561 57.4619 202.504 57.0559 202.316 56.7049C202.129 56.3538 201.823 56.0802 201.454 55.9322C201.105 55.845 200.734 55.7687 200.363 55.6924C196.798 54.9727 192.088 54.3949 189.144 54.8855C185.459 55.507 184.074 56.4883 182.1 56.292C180.127 56.0958 179.211 54.8746 175.994 53.5553C173.421 52.465 168.994 52.1597 165.571 52.1597H164.481C164.083 52.2525 163.729 52.4759 163.474 52.7942C163.219 53.1125 163.078 53.5073 163.074 53.9151ZM186.124 57.9712C186.432 57.6625 186.804 57.4244 187.214 57.2734L187.41 57.1861H187.508L188.043 57.0008L188.533 56.859C189.054 56.7226 189.582 56.6135 190.114 56.5319L190.736 56.4556C191.268 56.3922 191.803 56.3558 192.339 56.3466H192.698C196.166 56.3466 198.15 57.317 198.87 58.0475C199.589 58.778 198.782 61.7655 198.237 63.2593C198.243 63.2954 198.243 63.3322 198.237 63.3683V63.4883C198.172 63.6736 198.096 63.8699 197.997 64.088L197.834 64.4587C197.739 64.6676 197.634 64.8714 197.518 65.0693L197.387 65.2873L197.311 65.4073L197.223 65.549L197.103 65.7235C197.059 65.79 197.007 65.8521 196.951 65.9088C196.906 65.9849 196.851 66.0546 196.787 66.116L196.613 66.3231C195.965 66.9988 195.164 67.5089 194.278 67.8106C193.392 68.1123 192.446 68.1967 191.521 68.0568C190.609 68.045 189.71 67.8385 188.885 67.4511C188.059 67.0637 187.326 66.5045 186.734 65.8107C186.031 64.8559 185.612 63.7222 185.524 62.5397C185.306 60.8606 185.339 58.8434 186.124 57.9712ZM166.225 54.7002C166.504 54.512 166.809 54.3651 167.13 54.264H167.206L167.588 54.1659H167.828H168.024H168.155H168.351C168.602 54.1659 168.875 54.1659 169.158 54.1659H170.052H170.597H170.794H170.979C171.47 54.2313 171.982 54.3185 172.538 54.4385C174.926 54.9836 177.325 56.2593 177.848 57.2734C178.371 58.2874 177.946 60.2391 177.39 61.9073C177.263 62.2827 177.107 62.6474 176.921 62.9976C176.921 62.9976 176.921 63.0521 176.921 63.0848L176.856 63.1939C176.861 63.219 176.861 63.2451 176.856 63.2702C176.834 63.3161 176.809 63.3599 176.78 63.401C176.728 63.4959 176.669 63.5869 176.605 63.6736C176.605 63.75 176.507 63.8263 176.452 63.9026L176.387 63.9789L176.267 64.1316L176.147 64.2624C175.476 64.9976 174.627 65.5474 173.682 65.8587C172.736 66.17 171.726 66.2323 170.75 66.0397C169.877 65.9561 169.033 65.6846 168.275 65.2437C166.018 63.8699 165.767 61.2422 165.647 60.021C165.473 58.3528 165.407 55.2998 166.247 54.7002H166.225Z" fill="#BD81FF"/>
<path d="M174.13 67.5007L181.762 71.3387L183.518 62.0054C183.311 60.4899 183.136 59.1596 181.849 58.9634L174.13 67.5007Z" fill="#F28F8F"/>
<path d="M187.214 74.5881C186.452 75.5566 185.408 76.2651 184.226 76.6161C182.881 76.9176 181.494 76.9804 180.127 76.8015C179.92 76.8015 179.854 76.2236 180.127 76.2127C181.437 76.1869 182.734 75.9437 183.965 75.4931C185.018 75.1463 185.961 74.5298 186.702 73.7049C187.138 73.1271 187.53 74.1956 187.214 74.5881Z" fill="#B16668"/>
<path d="M201.563 56.2051L213.306 62.6708C212.612 63.0688 211.959 63.5325 211.354 64.0555L201.116 58.6801L201.563 56.2051Z" fill="#BD81FF"/>
<path d="M181.762 89.7329C189.013 89.8746 198.543 87.9556 201.388 83.4417C199.655 88.3809 194.443 90.8341 190.289 91.6083C187.436 92.1637 184.538 92.4485 181.632 92.4587L181.762 89.7329Z" fill="#F28F8F"/>
<path d="M224.94 101.203C234.753 102.839 238.024 105.881 242.134 116.534C246.07 126.815 255.153 149.985 252.46 165.533C250.824 175.019 226.88 151.184 226.88 151.184L215.421 124.766C215.421 124.766 217.285 108.116 224.94 101.203Z" fill="#F28F8F"/>
<path d="M222.203 114.288C220.098 111.311 217.918 108.258 216.817 103.82C215.715 99.3826 212.215 95.2939 211.016 93.6147C209.817 91.9356 207.254 89.4606 205.292 87.0727C203.329 84.6849 202.762 84.0525 199.938 83.5727C196.057 82.9185 193.014 82.3079 191.499 82.7768C189.983 83.2456 190.027 84.2269 191.346 85.5681C192.666 86.9092 195.435 87.2363 196.307 87.5089C197.18 87.7814 199.055 88.5992 199.055 88.5992L202.642 93.8873C202.642 93.8873 196.558 94.9777 195.359 95.6537C194.159 96.3297 193.178 99.3935 193.68 101.105C193.68 101.105 191.444 102.621 192.317 104.812C192.317 104.812 190.954 106.59 191.891 108.084C192.94 109.558 194.155 110.908 195.511 112.107C196.253 112.75 199.186 112.903 199.186 112.903C200.474 114.875 202.017 116.668 203.776 118.235C205.859 119.783 207.232 119.685 209.522 122.923L222.203 114.288Z" fill="#FFA8A7"/>
<path d="M199.906 94.4105C198.466 93.789 198.15 92.8077 196.787 93.3201C195.424 93.8326 195.948 95.3918 195.948 95.3918L199.906 94.4105Z" fill="#F28F8F"/>
<path d="M193.756 101.203C194.657 100.437 195.654 99.7923 196.722 99.2844C197.714 98.8047 199.796 98.0632 199.796 98.0632C198.346 98.194 196.921 98.5318 195.566 99.0663C194.872 99.3322 194.207 99.6683 193.582 100.069C193.576 100.406 193.624 100.741 193.723 101.062L193.756 101.203Z" fill="#B16668"/>
<path d="M193.527 103.264C193.041 103.461 192.571 103.695 192.12 103.962C192.156 104.298 192.237 104.628 192.36 104.943C193.156 103.853 196.187 102.555 196.187 102.555C195.276 102.689 194.384 102.927 193.527 103.264Z" fill="#B16668"/>
<path d="M199.731 113.633C198.891 111.948 197.894 110.345 196.754 108.847C196.387 108.434 195.876 108.176 195.325 108.125C194.775 108.075 194.225 108.235 193.789 108.574C193.407 109.152 195.38 109.076 195.969 109.326C197.431 110.566 198.699 112.018 199.731 113.633Z" fill="#B16668"/>
<path d="M204.31 93.7018C204.31 93.7018 203.22 92.1317 201.203 89.6348C199.186 87.1379 199.328 87.4541 197.398 87.1052C195.468 86.7563 191.793 86.0803 190.79 84.9246C190.959 85.1526 191.145 85.3676 191.346 85.5679C192.622 86.8763 195.435 87.2361 196.307 87.5087C197.18 87.7812 199.055 88.599 199.055 88.599L202.751 94.0507L204.31 93.7018Z" fill="#F28F8F"/>
<path d="M222.203 114.287C228.745 122.138 246.245 141.012 250.301 148.524C253.114 153.714 253.812 165.795 250.955 170.189C248.098 174.583 239.91 172.729 233.281 166.918C227.556 161.902 222.792 149.811 218.637 141.219C214.483 132.627 209.522 122.912 209.522 122.912L222.203 114.287Z" fill="#FFA8A7"/>
<path d="M218.343 107.909C217.817 106.785 217.39 105.618 217.067 104.42C216.786 103.207 216.388 102.023 215.879 100.887C214.788 98.6457 213.457 96.529 211.91 94.5741C210.439 92.5735 208.828 90.679 207.091 88.9044C206.251 87.9885 205.466 87.0399 204.67 86.0913C203.917 85.0599 202.879 84.2716 201.683 83.8234C200.478 83.4996 199.254 83.2484 198.019 83.0711C196.798 82.8639 195.566 82.6567 194.323 82.515C193.701 82.4406 193.074 82.4151 192.448 82.4387C191.784 82.4425 191.138 82.6478 190.594 83.0275C190.45 83.1421 190.338 83.2912 190.268 83.4608C190.197 83.6305 190.171 83.8152 190.191 83.9979C190.246 84.337 190.38 84.6583 190.583 84.9355C190.945 85.4684 191.413 85.9212 191.957 86.2658C193.071 86.8676 194.275 87.2872 195.522 87.5087C196.696 87.8065 197.839 88.2154 198.935 88.7299L202.348 93.7455C200.217 94.1263 198.106 94.6139 196.024 95.2065C195.746 95.2958 195.476 95.4089 195.217 95.5445C194.967 95.7153 194.749 95.9294 194.574 96.1769C194.245 96.6507 193.985 97.1682 193.8 97.7143C193.411 98.7591 193.316 99.8906 193.527 100.985C192.958 101.41 192.508 101.973 192.219 102.621C191.943 103.295 191.943 104.051 192.219 104.725C191.884 105.15 191.66 105.652 191.567 106.184C191.474 106.717 191.514 107.265 191.684 107.778C192.24 108.693 192.903 109.538 193.658 110.297C194.021 110.689 194.385 111.053 194.748 111.387C195.105 111.799 195.548 112.126 196.046 112.347C197.058 112.638 198.101 112.807 199.153 112.848C199.829 113.84 200.56 114.8 201.334 115.716C202.098 116.664 202.977 117.513 203.951 118.245C204.943 118.965 206.131 119.423 207.058 120.143C208.025 120.88 208.868 121.767 209.555 122.77C208.881 121.755 208.049 120.853 207.091 120.099C206.12 119.368 204.986 118.889 204.016 118.169C203.041 117.46 202.159 116.632 201.388 115.705C200.625 114.767 199.905 113.786 199.208 112.783C198.162 112.739 197.126 112.567 196.122 112.27C195.652 112.059 195.235 111.746 194.901 111.354C194.53 110.984 194.159 110.613 193.81 110.264C193.085 109.513 192.442 108.687 191.891 107.8C191.737 107.316 191.709 106.802 191.808 106.304C191.907 105.806 192.131 105.342 192.458 104.954V104.889V104.823C192.333 104.508 192.27 104.171 192.273 103.831C192.275 103.493 192.346 103.16 192.48 102.85C192.748 102.195 193.189 101.626 193.756 101.203L193.832 101.138V101.04C193.602 99.9463 193.697 98.8092 194.105 97.7688C194.486 96.7548 195.01 95.6645 196.144 95.4573C198.324 94.8249 200.505 94.367 202.686 93.9853H202.947L202.795 93.7673L199.208 88.4682H199.153C198.024 87.9266 196.844 87.4957 195.631 87.1816C194.424 86.9817 193.257 86.5877 192.175 86.015C191.669 85.7017 191.234 85.2856 190.899 84.7938C190.561 84.3141 190.387 83.7035 190.845 83.3655C191.772 82.6785 193.124 82.8203 194.312 82.9184C195.5 83.0166 196.765 83.2564 197.986 83.4527C199.207 83.6179 200.416 83.8582 201.606 84.1723C202.757 84.6001 203.754 85.3589 204.474 86.353C205.27 87.2907 206.077 88.2502 206.916 89.1551C208.658 90.9206 210.275 92.8041 211.757 94.7922C213.295 96.7302 214.625 98.8242 215.726 101.04C216.243 102.165 216.652 103.337 216.947 104.54C217.292 105.735 217.737 106.898 218.278 108.018C219.397 110.235 220.718 112.345 222.225 114.32C220.735 112.308 219.436 110.161 218.343 107.909Z" fill="#B16668"/>
<path d="M78.1804 6.95456C80.1539 1.05584 87.2302 -1.31019 92.0495 0.706933C94.2301 1.63372 97.2286 3.86891 97.1959 7.32528C104.501 -1.49555 124.596 6.83462 118.665 19.6134C128.718 18.3268 135.859 35.5105 123.44 39.9918C134.976 45.5525 129.895 65.0695 115.241 62.3328C116.996 66.5742 113.943 70.3031 110.574 71.7315C106.747 73.3452 101.601 72.8218 100.129 70.3031C97.1196 81.0757 82.5962 83.0601 75.9779 74.0539C71.6166 79.5819 60.8768 79.3856 60.1789 71.2517C52.9173 77.9791 35.461 71.1427 39.8769 59.487C28.3302 61.2969 25.0374 45.4762 34.0218 42.3251C31.3205 41.4971 29.0578 39.632 27.7293 37.1386C26.4008 34.6452 26.115 31.7268 26.9346 29.023C28.0903 24.9451 33.0077 18.4794 39.1354 20.6165C36.584 12.8751 46.4734 6.79101 52.2195 12.5589C52.5139 0.325314 71.8782 -4.78837 78.1804 6.95456Z" fill="#56008F"/>
<path opacity="0.8" d="M78.1804 6.95456C80.1539 1.05584 87.2302 -1.31019 92.0495 0.706933C94.2301 1.63372 97.2286 3.86891 97.1959 7.32528C104.501 -1.49555 124.596 6.83462 118.665 19.6134C128.718 18.3268 135.859 35.5105 123.44 39.9918C134.976 45.5525 129.895 65.0695 115.241 62.3328C116.996 66.5742 113.943 70.3031 110.574 71.7315C106.747 73.3452 101.601 72.8218 100.129 70.3031C97.1196 81.0757 82.5962 83.0601 75.9779 74.0539C71.6166 79.5819 60.8768 79.3856 60.1789 71.2517C52.9173 77.9791 35.461 71.1427 39.8769 59.487C28.3302 61.2969 25.0374 45.4762 34.0218 42.3251C31.3205 41.4971 29.0578 39.632 27.7293 37.1386C26.4008 34.6452 26.115 31.7268 26.9346 29.023C28.0903 24.9451 33.0077 18.4794 39.1354 20.6165C36.584 12.8751 46.4734 6.79101 52.2195 12.5589C52.5139 0.325314 71.8782 -4.78837 78.1804 6.95456Z" fill="white"/>
<path d="M115.732 75.0352C116.63 74.4051 117.697 74.0607 118.794 74.0471C119.892 74.0335 120.967 74.3512 121.881 74.9588C122.819 69.7688 129.186 70.5975 130.898 74.9588C137.08 72.1894 140.711 81.1738 134.354 83.3762C137.037 87.9993 131.978 93.778 127.038 91.7282C124.956 95.8824 118.316 96.9509 117.225 91.6628C109.309 94.9338 106.834 84.6192 114.096 81.5118C113.576 80.41 113.454 79.1616 113.752 77.9802C114.051 76.7988 114.75 75.7577 115.732 75.0352Z" fill="#56008F"/>
<path d="M142.434 87.4323H142.587C142.675 86.9993 142.887 86.6011 143.196 86.2858C143.506 85.9704 143.9 85.7513 144.331 85.655C144.557 85.6081 144.79 85.6088 145.016 85.6572C145.242 85.7056 145.455 85.8006 145.641 85.9361C145.828 86.0716 145.985 86.2446 146.101 86.444C146.217 86.6434 146.29 86.8649 146.316 87.0943C146.656 86.9406 147.031 86.8799 147.403 86.9182C147.774 86.9565 148.129 87.0925 148.431 87.3124C148.735 87.5096 148.96 87.8089 149.064 88.1565C149.168 88.5042 149.144 88.8775 148.998 89.2095C148.901 89.4856 148.747 89.7381 148.546 89.9505C148.345 90.1629 148.102 90.3302 147.831 90.4416C147.924 90.8891 147.91 91.3523 147.791 91.7935C147.672 92.2348 147.45 92.6417 147.145 92.9815C146.839 93.3212 146.457 93.5842 146.031 93.7491C145.605 93.914 145.146 93.9762 144.691 93.9307C144.625 94.1861 144.502 94.423 144.331 94.6236C144.16 94.8242 143.945 94.9831 143.703 95.0883C143.462 95.1934 143.199 95.242 142.935 95.2303C142.672 95.2187 142.415 95.1471 142.183 95.021C141.932 94.89 141.716 94.701 141.553 94.4696C141.39 94.2382 141.285 93.9712 141.245 93.6908C140.941 93.8317 140.595 93.8562 140.274 93.7598C139.953 93.6634 139.678 93.4527 139.501 93.1675C139.252 92.7598 139.159 92.2755 139.239 91.8045C139.313 91.3721 139.547 90.9831 139.893 90.7142C139.544 90.3523 139.344 89.8723 139.332 89.3695C139.319 88.8667 139.497 88.3776 139.828 87.9993C140.163 87.6658 140.586 87.4353 141.048 87.3348C141.51 87.2343 141.991 87.2682 142.434 87.4323Z" fill="#56008F"/>
<path d="M156.543 85.546C156.8 85.7129 156.993 85.963 157.088 86.2547C157.237 86.0899 157.439 85.9839 157.659 85.9559C157.88 85.9278 158.102 85.9797 158.287 86.102C158.383 86.1915 158.455 86.3026 158.499 86.4259C158.543 86.5492 158.556 86.6812 158.538 86.8108C158.499 87.0681 158.39 87.3097 158.222 87.5086C158.222 87.5086 158.146 87.5958 158.146 87.6503C158.125 87.7178 158.125 87.79 158.146 87.8575C158.24 88.0618 158.273 88.2893 158.24 88.5121C158.207 88.7349 158.11 88.9431 157.96 89.1114C157.805 89.2776 157.602 89.3911 157.379 89.436C157.156 89.481 156.925 89.4552 156.717 89.3621C156.609 89.6591 156.425 89.9223 156.183 90.1254C156.007 90.2618 155.794 90.3412 155.572 90.3529C155.35 90.3646 155.129 90.308 154.94 90.1908C154.839 90.1262 154.754 90.0399 154.691 89.9382C154.627 89.8365 154.588 89.722 154.574 89.603C154.56 89.484 154.573 89.3634 154.612 89.2501C154.651 89.1368 154.715 89.0335 154.798 88.9478C154.625 88.9725 154.449 88.9465 154.29 88.873C154.131 88.7995 153.997 88.6816 153.904 88.5335C153.818 88.3803 153.773 88.2076 153.773 88.0319C153.773 87.8563 153.818 87.6836 153.904 87.5304C153.991 87.3786 154.11 87.248 154.254 87.1481C154.397 87.0481 154.561 86.9813 154.733 86.9525C154.625 86.6934 154.611 86.4049 154.693 86.1364C154.774 85.8679 154.946 85.636 155.18 85.4805C155.381 85.3348 155.625 85.2618 155.873 85.2737C156.121 85.2856 156.357 85.3816 156.543 85.546Z" fill="#56008F"/>
<path opacity="0.8" d="M115.732 75.0352C116.63 74.4051 117.697 74.0607 118.794 74.0471C119.892 74.0335 120.967 74.3512 121.881 74.9588C122.819 69.7688 129.186 70.5975 130.898 74.9588C137.08 72.1894 140.711 81.1738 134.354 83.3762C137.037 87.9993 131.978 93.778 127.038 91.7282C124.956 95.8824 118.316 96.9509 117.225 91.6628C109.309 94.9338 106.834 84.6192 114.096 81.5118C113.576 80.41 113.454 79.1616 113.752 77.9802C114.051 76.7988 114.75 75.7577 115.732 75.0352Z" fill="white"/>
<path opacity="0.8" d="M142.434 87.4323H142.587C142.675 86.9993 142.887 86.6011 143.196 86.2858C143.506 85.9704 143.9 85.7513 144.331 85.655C144.557 85.6081 144.79 85.6088 145.016 85.6572C145.242 85.7056 145.455 85.8006 145.641 85.9361C145.828 86.0716 145.985 86.2446 146.101 86.444C146.217 86.6434 146.29 86.8649 146.316 87.0943C146.656 86.9406 147.031 86.8799 147.403 86.9182C147.774 86.9565 148.129 87.0925 148.431 87.3124C148.735 87.5096 148.96 87.8089 149.064 88.1565C149.168 88.5042 149.144 88.8775 148.998 89.2095C148.901 89.4856 148.747 89.7381 148.546 89.9505C148.345 90.1629 148.102 90.3302 147.831 90.4416C147.924 90.8891 147.91 91.3523 147.791 91.7935C147.672 92.2348 147.45 92.6417 147.145 92.9815C146.839 93.3212 146.457 93.5842 146.031 93.7491C145.605 93.914 145.146 93.9762 144.691 93.9307C144.625 94.1861 144.502 94.423 144.331 94.6236C144.16 94.8242 143.945 94.9831 143.703 95.0883C143.462 95.1934 143.199 95.242 142.935 95.2303C142.672 95.2187 142.415 95.1471 142.183 95.021C141.932 94.89 141.716 94.701 141.553 94.4696C141.39 94.2382 141.285 93.9712 141.245 93.6908C140.941 93.8317 140.595 93.8562 140.274 93.7598C139.953 93.6634 139.678 93.4527 139.501 93.1675C139.252 92.7598 139.159 92.2755 139.239 91.8045C139.313 91.3721 139.547 90.9831 139.893 90.7142C139.544 90.3523 139.344 89.8723 139.332 89.3695C139.319 88.8667 139.497 88.3776 139.828 87.9993C140.163 87.6658 140.586 87.4353 141.048 87.3348C141.51 87.2343 141.991 87.2682 142.434 87.4323Z" fill="white"/>
<path opacity="0.8" d="M156.543 85.546C156.8 85.7129 156.993 85.963 157.088 86.2547C157.237 86.0899 157.439 85.9839 157.659 85.9559C157.88 85.9278 158.102 85.9797 158.287 86.102C158.383 86.1915 158.455 86.3026 158.499 86.4259C158.543 86.5492 158.556 86.6812 158.538 86.8108C158.499 87.0681 158.39 87.3097 158.222 87.5086C158.222 87.5086 158.146 87.5958 158.146 87.6503C158.125 87.7178 158.125 87.79 158.146 87.8575C158.24 88.0618 158.273 88.2893 158.24 88.5121C158.207 88.7349 158.11 88.9431 157.96 89.1114C157.805 89.2776 157.602 89.3911 157.379 89.436C157.156 89.481 156.925 89.4552 156.717 89.3621C156.609 89.6591 156.425 89.9223 156.183 90.1254C156.007 90.2618 155.794 90.3412 155.572 90.3529C155.35 90.3646 155.129 90.308 154.94 90.1908C154.839 90.1262 154.754 90.0399 154.691 89.9382C154.627 89.8365 154.588 89.722 154.574 89.603C154.56 89.484 154.573 89.3634 154.612 89.2501C154.651 89.1368 154.715 89.0335 154.798 88.9478C154.625 88.9725 154.449 88.9465 154.29 88.873C154.131 88.7995 153.997 88.6816 153.904 88.5335C153.818 88.3803 153.773 88.2076 153.773 88.0319C153.773 87.8563 153.818 87.6836 153.904 87.5304C153.991 87.3786 154.11 87.248 154.254 87.1481C154.397 87.0481 154.561 86.9813 154.733 86.9525C154.625 86.6934 154.611 86.4049 154.693 86.1364C154.774 85.8679 154.946 85.636 155.18 85.4805C155.381 85.3348 155.625 85.2618 155.873 85.2737C156.121 85.2856 156.357 85.3816 156.543 85.546Z" fill="white"/>
<path d="M314.217 309.545C312.036 315.356 304.84 317.439 300.042 315.226C297.861 314.212 295.005 311.846 295.179 308.4C287.547 316.916 267.779 307.779 274.212 295.251C264.126 296.123 257.683 278.667 270.276 274.698C258.98 268.668 264.824 249.358 279.369 252.706C277.799 248.344 280.994 244.79 284.418 243.503C288.31 242.042 293.435 242.718 294.809 245.357C298.243 234.715 312.843 233.363 319.079 242.587C323.692 237.245 334.344 237.877 334.758 246.022C342.282 239.6 359.455 247.112 354.57 258.604C366.182 257.274 368.831 273.215 359.727 276.05C362.384 276.987 364.563 278.936 365.788 281.473C367.013 284.01 367.186 286.928 366.269 289.592C364.95 293.626 359.727 299.885 353.73 297.508C355.966 305.336 345.836 311.006 340.33 305.009C339.6 317.21 320.05 321.528 314.217 309.545Z" fill="#56008F"/>
<path opacity="0.8" d="M314.217 309.545C312.036 315.356 304.84 317.439 300.042 315.226C297.861 314.212 295.005 311.846 295.179 308.4C287.547 316.916 267.779 307.779 274.212 295.251C264.126 296.123 257.683 278.667 270.276 274.698C258.98 268.668 264.824 249.358 279.369 252.706C277.799 248.344 280.994 244.79 284.418 243.503C288.31 242.042 293.435 242.718 294.809 245.357C298.243 234.715 312.843 233.363 319.079 242.587C323.692 237.245 334.344 237.877 334.758 246.022C342.282 239.6 359.455 247.112 354.57 258.604C366.182 257.274 368.831 273.215 359.727 276.05C362.384 276.987 364.563 278.936 365.788 281.473C367.013 284.01 367.186 286.928 366.269 289.592C364.95 293.626 359.727 299.885 353.73 297.508C355.966 305.336 345.836 311.006 340.33 305.009C339.6 317.21 320.05 321.528 314.217 309.545Z" fill="white"/>
<path d="M280.471 236.405C279.425 236.732 278.305 236.736 277.256 236.417C276.208 236.098 275.28 235.471 274.594 234.617C272.13 239.283 266.318 236.558 265.98 231.913C259.264 232.687 258.49 223.027 265.228 222.852C264.061 217.629 270.625 213.65 274.714 217.084C277.985 213.759 284.527 214.718 284.069 220.104C292.584 219.407 291.854 229.917 283.993 230.735C284.153 231.942 283.89 233.167 283.247 234.201C282.605 235.235 281.624 236.014 280.471 236.405Z" fill="#56008F"/>
<path d="M258.751 216.561L258.62 216.463C258.408 216.846 258.089 217.161 257.702 217.368C257.315 217.575 256.877 217.665 256.44 217.629C256.21 217.608 255.987 217.538 255.786 217.425C255.585 217.312 255.41 217.158 255.272 216.973C255.135 216.788 255.037 216.576 254.987 216.351C254.936 216.126 254.933 215.893 254.979 215.667C254.607 215.707 254.231 215.651 253.888 215.504C253.544 215.357 253.244 215.124 253.016 214.827C252.784 214.549 252.656 214.198 252.656 213.835C252.656 213.472 252.784 213.121 253.016 212.843C253.19 212.608 253.412 212.413 253.668 212.272C253.924 212.131 254.207 212.046 254.499 212.025C254.542 211.569 254.692 211.129 254.938 210.742C255.183 210.355 255.517 210.032 255.912 209.799C256.307 209.566 256.751 209.43 257.209 209.402C257.666 209.374 258.124 209.454 258.544 209.637C258.679 209.408 258.866 209.212 259.089 209.066C259.313 208.921 259.567 208.828 259.831 208.797C260.096 208.765 260.365 208.795 260.616 208.884C260.867 208.973 261.095 209.119 261.281 209.31C261.481 209.512 261.629 209.759 261.713 210.031C261.796 210.302 261.813 210.59 261.76 210.869C262.093 210.824 262.431 210.902 262.711 211.089C262.99 211.275 263.191 211.558 263.276 211.883C263.392 212.349 263.334 212.842 263.112 213.268C262.917 213.68 262.569 214.001 262.142 214.162C262.366 214.612 262.412 215.129 262.273 215.611C262.134 216.094 261.819 216.507 261.39 216.768C260.976 216.988 260.508 217.085 260.04 217.049C259.573 217.012 259.126 216.843 258.751 216.561Z" fill="#56008F"/>
<path d="M244.729 214.108C244.535 213.871 244.428 213.575 244.424 213.268C244.232 213.383 244.004 213.424 243.783 213.384C243.563 213.344 243.364 213.225 243.225 213.05C243.168 212.935 243.138 212.808 243.138 212.679C243.138 212.551 243.168 212.424 243.225 212.309C243.344 212.076 243.52 211.877 243.737 211.731C243.787 211.706 243.828 211.669 243.857 211.622C243.879 211.551 243.879 211.475 243.857 211.404C243.812 211.177 243.84 210.941 243.938 210.731C244.035 210.521 244.197 210.347 244.4 210.236C244.603 210.124 244.836 210.08 245.066 210.109C245.296 210.139 245.51 210.241 245.678 210.401C245.867 210.15 246.119 209.955 246.409 209.834C246.616 209.748 246.845 209.733 247.061 209.79C247.278 209.847 247.47 209.973 247.608 210.15C247.686 210.24 247.742 210.347 247.773 210.462C247.804 210.577 247.809 210.698 247.787 210.815C247.765 210.933 247.717 211.043 247.646 211.14C247.575 211.236 247.484 211.315 247.379 211.371C247.551 211.398 247.711 211.476 247.839 211.595C247.967 211.713 248.058 211.867 248.099 212.036C248.136 212.208 248.128 212.386 248.077 212.554C248.025 212.722 247.931 212.874 247.804 212.996C247.676 213.113 247.524 213.201 247.358 213.254C247.192 213.307 247.017 213.323 246.845 213.301C246.866 213.58 246.791 213.857 246.632 214.088C246.474 214.318 246.241 214.487 245.972 214.566C245.744 214.636 245.498 214.63 245.273 214.547C245.049 214.464 244.858 214.31 244.729 214.108Z" fill="#56008F"/>
<path opacity="0.8" d="M280.471 236.405C279.425 236.732 278.305 236.736 277.256 236.417C276.208 236.098 275.28 235.471 274.594 234.617C272.13 239.283 266.318 236.558 265.98 231.913C259.264 232.687 258.49 223.027 265.228 222.852C264.061 217.629 270.625 213.65 274.714 217.084C277.985 213.759 284.527 214.718 284.069 220.104C292.584 219.407 291.854 229.917 283.993 230.735C284.153 231.942 283.89 233.167 283.247 234.201C282.605 235.235 281.624 236.014 280.471 236.405Z" fill="white"/>
<path opacity="0.8" d="M258.751 216.561L258.62 216.463C258.408 216.846 258.089 217.161 257.702 217.368C257.315 217.575 256.877 217.665 256.44 217.629C256.21 217.608 255.987 217.538 255.786 217.425C255.585 217.312 255.41 217.158 255.272 216.973C255.135 216.788 255.037 216.576 254.987 216.351C254.936 216.126 254.933 215.893 254.979 215.667C254.607 215.707 254.231 215.651 253.888 215.504C253.544 215.357 253.244 215.124 253.016 214.827C252.784 214.549 252.656 214.198 252.656 213.835C252.656 213.472 252.784 213.121 253.016 212.843C253.19 212.608 253.412 212.413 253.668 212.272C253.924 212.131 254.207 212.046 254.499 212.025C254.542 211.569 254.692 211.129 254.938 210.742C255.183 210.355 255.517 210.032 255.912 209.799C256.307 209.566 256.751 209.43 257.209 209.402C257.666 209.374 258.124 209.454 258.544 209.637C258.679 209.408 258.866 209.212 259.089 209.066C259.313 208.921 259.567 208.828 259.831 208.797C260.096 208.765 260.365 208.795 260.616 208.884C260.867 208.973 261.095 209.119 261.281 209.31C261.481 209.512 261.629 209.759 261.713 210.031C261.796 210.302 261.813 210.59 261.76 210.869C262.093 210.824 262.431 210.902 262.711 211.089C262.99 211.275 263.191 211.558 263.276 211.883C263.392 212.349 263.334 212.842 263.112 213.268C262.917 213.68 262.569 214.001 262.142 214.162C262.366 214.612 262.412 215.129 262.273 215.611C262.134 216.094 261.819 216.507 261.39 216.768C260.976 216.988 260.508 217.085 260.04 217.049C259.573 217.012 259.126 216.843 258.751 216.561Z" fill="white"/>
<path opacity="0.8" d="M244.729 214.108C244.535 213.871 244.428 213.575 244.424 213.268C244.232 213.383 244.004 213.424 243.783 213.384C243.563 213.344 243.364 213.225 243.225 213.05C243.168 212.935 243.138 212.808 243.138 212.679C243.138 212.551 243.168 212.424 243.225 212.309C243.344 212.076 243.52 211.877 243.737 211.731C243.787 211.706 243.828 211.669 243.857 211.622C243.879 211.551 243.879 211.475 243.857 211.404C243.812 211.177 243.84 210.941 243.938 210.731C244.035 210.521 244.197 210.347 244.4 210.236C244.603 210.124 244.836 210.08 245.066 210.109C245.296 210.139 245.51 210.241 245.678 210.401C245.867 210.15 246.119 209.955 246.409 209.834C246.616 209.748 246.845 209.733 247.061 209.79C247.278 209.847 247.47 209.973 247.608 210.15C247.686 210.24 247.742 210.347 247.773 210.462C247.804 210.577 247.809 210.698 247.787 210.815C247.765 210.933 247.717 211.043 247.646 211.14C247.575 211.236 247.484 211.315 247.379 211.371C247.551 211.398 247.711 211.476 247.839 211.595C247.967 211.713 248.058 211.867 248.099 212.036C248.136 212.208 248.128 212.386 248.077 212.554C248.025 212.722 247.931 212.874 247.804 212.996C247.676 213.113 247.524 213.201 247.358 213.254C247.192 213.307 247.017 213.323 246.845 213.301C246.866 213.58 246.791 213.857 246.632 214.088C246.474 214.318 246.241 214.487 245.972 214.566C245.744 214.636 245.498 214.63 245.273 214.547C245.049 214.464 244.858 214.31 244.729 214.108Z" fill="white"/>
<path d="M309.005 111.9C307.729 117.984 300.98 121.168 295.921 119.728C293.62 119.074 290.414 117.199 290.033 113.764C283.818 123.381 262.883 117.46 267.266 104.082C257.453 106.535 248.327 90.311 260.136 84.4559C248.033 80.2908 250.77 60.2941 265.653 61.3081C263.418 57.2956 266.002 53.2396 269.185 51.4296C272.794 49.3689 277.963 49.2489 279.729 51.615C281.452 40.5699 295.637 36.8845 303.269 45.0729C306.977 39.0652 317.64 37.9967 319.286 45.9888C325.709 38.4655 343.852 43.1976 340.832 55.2894C352.095 52.1383 357.187 67.4685 348.682 71.6445C351.452 72.1445 353.913 73.7186 355.528 76.0241C357.143 78.3296 357.783 81.1799 357.307 83.9544C356.641 88.1413 352.509 95.1412 346.174 93.7674C349.62 101.16 340.504 108.356 334.115 103.297C335.282 115.465 316.648 122.814 309.005 111.9Z" fill="#56008F"/>
<path opacity="0.8" d="M309.005 111.9C307.729 117.984 300.98 121.168 295.921 119.728C293.62 119.074 290.414 117.199 290.033 113.764C283.818 123.381 262.883 117.46 267.266 104.082C257.453 106.535 248.327 90.311 260.136 84.4559C248.033 80.2908 250.77 60.2941 265.653 61.3081C263.418 57.2956 266.002 53.2396 269.185 51.4296C272.794 49.3689 277.963 49.2489 279.729 51.615C281.452 40.5699 295.637 36.8845 303.269 45.0729C306.977 39.0652 317.64 37.9967 319.286 45.9888C325.709 38.4655 343.852 43.1976 340.832 55.2894C352.095 52.1383 357.187 67.4685 348.682 71.6445C351.452 72.1445 353.913 73.7186 355.528 76.0241C357.143 78.3296 357.783 81.1799 357.307 83.9544C356.641 88.1413 352.509 95.1412 346.174 93.7674C349.62 101.16 340.504 108.356 334.115 103.297C335.282 115.465 316.648 122.814 309.005 111.9Z" fill="white"/>
<path d="M271.911 44.6802C270.915 45.1391 269.803 45.2868 268.722 45.1039C267.64 44.9211 266.639 44.4162 265.849 43.6553C264.006 48.5945 257.89 46.621 256.974 42.0634C250.432 43.6771 248.414 34.2021 255.066 33.1663C253.256 28.1398 259.263 23.3532 263.788 26.2535C266.58 22.5355 273.263 22.6554 273.449 28.0526C281.812 26.2863 282.422 36.8516 274.724 38.6071C275.034 39.7885 274.923 41.041 274.41 42.1494C273.896 43.2577 273.013 44.1526 271.911 44.6802Z" fill="#56008F"/>
<path d="M243.911 31.8032L243.77 31.705C243.586 32.107 243.289 32.4467 242.915 32.6829C242.542 32.9191 242.107 33.0415 241.665 33.0352C241.435 33.0293 241.208 32.9753 240.999 32.8766C240.791 32.778 240.605 32.637 240.454 32.4625C240.304 32.288 240.191 32.084 240.123 31.8634C240.056 31.6429 240.035 31.4107 240.062 31.1817C239.696 31.2493 239.317 31.2216 238.964 31.1014C238.611 30.9811 238.295 30.7722 238.045 30.4948C237.799 30.2283 237.654 29.8844 237.634 29.5222C237.614 29.16 237.721 28.8021 237.936 28.5103C238.094 28.2652 238.302 28.056 238.547 27.8964C238.791 27.7367 239.066 27.6301 239.354 27.5836C239.374 27.127 239.498 26.6809 239.715 26.2787C239.932 25.8765 240.237 25.5287 240.608 25.2611C240.986 25.0063 241.417 24.8413 241.869 24.779C242.321 24.7166 242.781 24.7585 243.214 24.9013C243.332 24.6628 243.504 24.4549 243.716 24.2936C243.928 24.1324 244.175 24.0222 244.436 23.9715C244.698 23.9209 244.967 23.9312 245.224 24.0017C245.481 24.0722 245.719 24.201 245.918 24.378C246.131 24.5622 246.297 24.7951 246.401 25.057C246.506 25.3189 246.546 25.6021 246.517 25.8826C246.847 25.8162 247.19 25.8713 247.482 26.0375C247.775 26.2038 247.998 26.4702 248.109 26.7876C248.252 27.2424 248.228 27.733 248.044 28.1723C247.878 28.5999 247.554 28.9473 247.139 29.1427C247.394 29.5757 247.479 30.0885 247.376 30.5807C247.273 31.0728 246.99 31.5088 246.583 31.8032C246.185 32.06 245.721 32.1965 245.247 32.1965C244.773 32.1965 244.31 32.06 243.911 31.8032Z" fill="#56008F"/>
<path d="M229.41 32.5776C229.251 32.3157 229.179 32.0106 229.203 31.7053C229 31.7948 228.772 31.8089 228.56 31.7449C228.348 31.6809 228.166 31.5431 228.047 31.3564C227.998 31.2367 227.978 31.1068 227.989 30.9777C228.001 30.8487 228.043 30.7242 228.113 30.615C228.253 30.3928 228.453 30.2151 228.69 30.1025C228.74 30.0788 228.785 30.0455 228.821 30.0044C228.842 29.9369 228.842 29.8647 228.821 29.7972C228.802 29.5668 228.856 29.3361 228.976 29.1386C229.096 28.941 229.276 28.7868 229.49 28.6982C229.704 28.6096 229.94 28.5912 230.165 28.6457C230.389 28.7002 230.591 28.8247 230.74 29.0013C230.959 28.7719 231.239 28.6093 231.547 28.5324C231.761 28.4732 231.988 28.4847 232.194 28.5653C232.4 28.6459 232.575 28.7912 232.692 28.9795C232.759 29.0785 232.803 29.1914 232.82 29.3097C232.838 29.4281 232.828 29.5488 232.793 29.663C232.757 29.7772 232.696 29.8819 232.615 29.9693C232.533 30.0567 232.433 30.1246 232.321 30.1679C232.489 30.2153 232.639 30.3107 232.754 30.4425C232.868 30.5742 232.941 30.7365 232.964 30.9094C232.981 31.0838 232.953 31.2596 232.882 31.4199C232.812 31.5802 232.701 31.7198 232.561 31.8253C232.419 31.9263 232.257 31.9961 232.086 32.0299C231.915 32.0637 231.739 32.0609 231.569 32.0215C231.56 32.3018 231.454 32.5703 231.269 32.7811C231.084 32.9919 230.832 33.1319 230.555 33.1773C230.325 33.2124 230.09 33.1732 229.884 33.0653C229.678 32.9575 229.512 32.7866 229.41 32.5776Z" fill="#56008F"/>
<path opacity="0.8" d="M271.911 44.6802C270.915 45.1391 269.803 45.2868 268.722 45.1039C267.64 44.9211 266.639 44.4162 265.849 43.6553C264.006 48.5945 257.89 46.621 256.974 42.0634C250.432 43.6771 248.414 34.2021 255.066 33.1663C253.256 28.1398 259.263 23.3532 263.788 26.2535C266.58 22.5355 273.263 22.6554 273.449 28.0526C281.812 26.2863 282.422 36.8516 274.724 38.6071C275.034 39.7885 274.923 41.041 274.41 42.1494C273.896 43.2577 273.013 44.1526 271.911 44.6802Z" fill="white"/>
<path opacity="0.8" d="M243.911 31.8032L243.77 31.705C243.586 32.107 243.289 32.4467 242.915 32.6829C242.542 32.9191 242.107 33.0415 241.665 33.0352C241.435 33.0293 241.208 32.9753 240.999 32.8766C240.791 32.778 240.605 32.637 240.454 32.4625C240.304 32.288 240.191 32.084 240.123 31.8634C240.056 31.6429 240.035 31.4107 240.062 31.1817C239.696 31.2493 239.317 31.2216 238.964 31.1014C238.611 30.9811 238.295 30.7722 238.045 30.4948C237.799 30.2283 237.654 29.8844 237.634 29.5222C237.614 29.16 237.721 28.8021 237.936 28.5103C238.094 28.2652 238.302 28.056 238.547 27.8964C238.791 27.7367 239.066 27.6301 239.354 27.5836C239.374 27.127 239.498 26.6809 239.715 26.2787C239.932 25.8765 240.237 25.5287 240.608 25.2611C240.986 25.0063 241.417 24.8413 241.869 24.779C242.321 24.7166 242.781 24.7585 243.214 24.9013C243.332 24.6628 243.504 24.4549 243.716 24.2936C243.928 24.1324 244.175 24.0222 244.436 23.9715C244.698 23.9209 244.967 23.9312 245.224 24.0017C245.481 24.0722 245.719 24.201 245.918 24.378C246.131 24.5622 246.297 24.7951 246.401 25.057C246.506 25.3189 246.546 25.6021 246.517 25.8826C246.847 25.8162 247.19 25.8713 247.482 26.0375C247.775 26.2038 247.998 26.4702 248.109 26.7876C248.252 27.2424 248.228 27.733 248.044 28.1723C247.878 28.5999 247.554 28.9473 247.139 29.1427C247.394 29.5757 247.479 30.0885 247.376 30.5807C247.273 31.0728 246.99 31.5088 246.583 31.8032C246.185 32.06 245.721 32.1965 245.247 32.1965C244.773 32.1965 244.31 32.06 243.911 31.8032Z" fill="white"/>
<path opacity="0.8" d="M229.41 32.5776C229.251 32.3157 229.179 32.0106 229.203 31.7053C229 31.7948 228.772 31.8089 228.56 31.7449C228.348 31.6809 228.166 31.5431 228.047 31.3564C227.998 31.2367 227.978 31.1068 227.989 30.9777C228.001 30.8487 228.043 30.7242 228.113 30.615C228.253 30.3928 228.453 30.2151 228.69 30.1025C228.74 30.0788 228.785 30.0455 228.821 30.0044C228.842 29.9369 228.842 29.8647 228.821 29.7972C228.802 29.5668 228.856 29.3361 228.976 29.1386C229.096 28.941 229.276 28.7868 229.49 28.6982C229.704 28.6096 229.94 28.5912 230.165 28.6457C230.389 28.7002 230.591 28.8247 230.74 29.0013C230.959 28.7719 231.239 28.6093 231.547 28.5324C231.761 28.4732 231.988 28.4847 232.194 28.5653C232.4 28.6459 232.575 28.7912 232.692 28.9795C232.759 29.0785 232.803 29.1914 232.82 29.3097C232.838 29.4281 232.828 29.5488 232.793 29.663C232.757 29.7772 232.696 29.8819 232.615 29.9693C232.533 30.0567 232.433 30.1246 232.321 30.1679C232.489 30.2153 232.639 30.3107 232.754 30.4425C232.868 30.5742 232.941 30.7365 232.964 30.9094C232.981 31.0838 232.953 31.2596 232.882 31.4199C232.812 31.5802 232.701 31.7198 232.561 31.8253C232.419 31.9263 232.257 31.9961 232.086 32.0299C231.915 32.0637 231.739 32.0609 231.569 32.0215C231.56 32.3018 231.454 32.5703 231.269 32.7811C231.084 32.9919 230.832 33.1319 230.555 33.1773C230.325 33.2124 230.09 33.1732 229.884 33.0653C229.678 32.9575 229.512 32.7866 229.41 32.5776Z" fill="white"/>
<path d="M67.942 275.657C70.8314 281.109 78.1912 282.374 82.6398 279.604C84.6678 278.35 87.241 275.657 86.6522 272.255C95.2768 279.8 113.78 268.374 105.908 256.707C116.026 256.369 120.344 238.28 107.369 235.827C117.869 228.5 109.756 210.03 95.7238 215.111C96.8141 210.64 93.1724 207.478 89.6179 206.573C85.5837 205.592 80.5681 206.868 79.5214 209.648C74.8439 199.486 60.1897 199.835 55.087 209.79C49.8752 205.025 39.3316 206.933 39.9313 215.067C31.6992 209.615 15.5513 219.112 21.7663 229.917C10.067 229.972 9.33642 246.12 18.7133 247.832C16.1976 249.076 14.2739 251.262 13.3595 253.916C12.4451 256.569 12.6136 259.476 13.8286 262.006C15.6168 265.855 21.461 271.448 27.2179 268.374C25.9314 276.42 36.6603 280.847 41.3923 274.229C43.6493 286.244 63.5807 288.196 67.942 275.657Z" fill="#56008F"/>
<path opacity="0.8" d="M67.942 275.657C70.8314 281.109 78.1912 282.374 82.6398 279.604C84.6678 278.35 87.241 275.657 86.6522 272.255C95.2768 279.8 113.78 268.374 105.908 256.707C116.026 256.369 120.344 238.28 107.369 235.827C117.869 228.5 109.756 210.03 95.7238 215.111C96.8141 210.64 93.1724 207.478 89.6179 206.573C85.5837 205.592 80.5681 206.868 79.5214 209.648C74.8439 199.486 60.1897 199.835 55.087 209.79C49.8752 205.025 39.3316 206.933 39.9313 215.067C31.6992 209.615 15.5513 219.112 21.7663 229.917C10.067 229.972 9.33642 246.12 18.7133 247.832C16.1976 249.076 14.2739 251.262 13.3595 253.916C12.4451 256.569 12.6136 259.476 13.8286 262.006C15.6168 265.855 21.461 271.448 27.2179 268.374C25.9314 276.42 36.6603 280.847 41.3923 274.229C43.6493 286.244 63.5807 288.196 67.942 275.657Z" fill="white"/>
<path d="M85.1803 200.795C86.2651 200.966 87.3765 200.806 88.3687 200.335C89.3609 199.864 90.1878 199.105 90.7411 198.156C93.8703 202.397 99.2021 198.832 98.8423 194.187C105.602 193.947 104.915 184.287 98.2317 185.115C98.6024 179.784 91.5152 176.829 87.9825 180.841C84.2754 178.039 77.886 179.98 79.1835 185.203C70.6571 185.791 72.9686 196.106 80.8517 195.703C80.8664 196.923 81.307 198.1 82.0975 199.029C82.8879 199.959 83.9784 200.584 85.1803 200.795Z" fill="#56008F"/>
<path d="M108.644 180.721L108.753 180.602C109.042 180.936 109.421 181.179 109.844 181.303C110.268 181.427 110.718 181.426 111.141 181.299C111.356 181.23 111.555 181.118 111.725 180.968C111.895 180.819 112.032 180.637 112.128 180.432C112.224 180.227 112.277 180.005 112.284 179.779C112.29 179.553 112.25 179.328 112.166 179.119C112.54 179.09 112.899 178.964 113.208 178.751C113.516 178.538 113.762 178.248 113.922 177.908C114.088 177.585 114.136 177.214 114.056 176.859C113.977 176.504 113.775 176.188 113.485 175.968C113.266 175.773 113.007 175.628 112.727 175.541C112.447 175.455 112.152 175.429 111.861 175.466C111.723 175.031 111.485 174.634 111.167 174.307C110.849 173.98 110.46 173.731 110.029 173.58C109.596 173.436 109.136 173.394 108.684 173.456C108.232 173.519 107.801 173.684 107.423 173.94C107.242 173.744 107.019 173.593 106.771 173.497C106.523 173.401 106.256 173.363 105.991 173.386C105.725 173.409 105.469 173.493 105.241 173.63C105.013 173.768 104.82 173.956 104.676 174.179C104.521 174.416 104.426 174.686 104.398 174.966C104.369 175.247 104.408 175.531 104.512 175.793C104.178 175.821 103.865 175.969 103.63 176.21C103.396 176.45 103.256 176.767 103.236 177.102C103.22 177.579 103.375 178.047 103.672 178.421C103.938 178.775 104.327 179.016 104.763 179.097C104.635 179.584 104.694 180.101 104.928 180.547C105.162 180.993 105.554 181.335 106.028 181.506C106.493 181.647 106.989 181.647 107.454 181.508C107.919 181.368 108.333 181.095 108.644 180.721Z" fill="#56008F"/>
<path d="M122.742 177.527C122.84 177.237 122.84 176.923 122.742 176.633C122.961 176.66 123.183 176.61 123.369 176.49C123.554 176.371 123.691 176.189 123.756 175.978C123.773 175.849 123.756 175.717 123.709 175.595C123.661 175.473 123.584 175.365 123.484 175.281C123.292 175.105 123.053 174.987 122.797 174.943C122.742 174.938 122.689 174.919 122.644 174.888C122.591 174.836 122.56 174.766 122.557 174.692C122.513 174.463 122.397 174.254 122.226 174.095C122.055 173.937 121.837 173.838 121.606 173.812C121.374 173.787 121.14 173.836 120.938 173.953C120.737 174.07 120.578 174.249 120.485 174.463C120.219 174.317 119.917 174.245 119.613 174.256C119.389 174.255 119.172 174.329 118.994 174.465C118.817 174.601 118.689 174.792 118.632 175.008C118.595 175.122 118.585 175.242 118.601 175.36C118.618 175.478 118.66 175.591 118.726 175.691C118.792 175.79 118.88 175.874 118.982 175.935C119.085 175.996 119.2 176.033 119.319 176.044C119.169 176.135 119.049 176.268 118.975 176.428C118.901 176.587 118.877 176.765 118.904 176.938C118.933 177.111 119.006 177.274 119.117 177.409C119.228 177.545 119.373 177.65 119.537 177.712C119.703 177.769 119.878 177.79 120.053 177.775C120.227 177.76 120.397 177.709 120.551 177.625C120.633 177.89 120.806 178.119 121.039 178.27C121.272 178.421 121.55 178.486 121.826 178.453C122.059 178.418 122.273 178.309 122.438 178.142C122.603 177.975 122.71 177.759 122.742 177.527Z" fill="#56008F"/>
<path opacity="0.8" d="M85.1803 200.795C86.2651 200.966 87.3765 200.806 88.3687 200.335C89.3609 199.864 90.1878 199.105 90.7411 198.156C93.8703 202.397 99.2021 198.832 98.8423 194.187C105.602 193.947 104.915 184.287 98.2317 185.115C98.6024 179.784 91.5152 176.829 87.9825 180.841C84.2754 178.039 77.886 179.98 79.1835 185.203C70.6571 185.791 72.9686 196.106 80.8517 195.703C80.8664 196.923 81.307 198.1 82.0975 199.029C82.8879 199.959 83.9784 200.584 85.1803 200.795Z" fill="white"/>
<path opacity="0.8" d="M108.644 180.721L108.753 180.602C109.042 180.936 109.421 181.179 109.844 181.303C110.268 181.427 110.718 181.426 111.141 181.299C111.356 181.23 111.555 181.118 111.725 180.968C111.895 180.819 112.032 180.637 112.128 180.432C112.224 180.227 112.277 180.005 112.284 179.779C112.29 179.553 112.25 179.328 112.166 179.119C112.54 179.09 112.899 178.964 113.208 178.751C113.516 178.538 113.762 178.248 113.922 177.908C114.088 177.585 114.136 177.214 114.056 176.859C113.977 176.504 113.775 176.188 113.485 175.968C113.266 175.773 113.007 175.628 112.727 175.541C112.447 175.455 112.152 175.429 111.861 175.466C111.723 175.031 111.485 174.634 111.167 174.307C110.849 173.98 110.46 173.731 110.029 173.58C109.596 173.436 109.136 173.394 108.684 173.456C108.232 173.519 107.801 173.684 107.423 173.94C107.242 173.744 107.019 173.593 106.771 173.497C106.523 173.401 106.256 173.363 105.991 173.386C105.725 173.409 105.469 173.493 105.241 173.63C105.013 173.768 104.82 173.956 104.676 174.179C104.521 174.416 104.426 174.686 104.398 174.966C104.369 175.247 104.408 175.531 104.512 175.793C104.178 175.821 103.865 175.969 103.63 176.21C103.396 176.45 103.256 176.767 103.236 177.102C103.22 177.579 103.375 178.047 103.672 178.421C103.938 178.775 104.327 179.016 104.763 179.097C104.635 179.584 104.694 180.101 104.928 180.547C105.162 180.993 105.554 181.335 106.028 181.506C106.493 181.647 106.989 181.647 107.454 181.508C107.919 181.368 108.333 181.095 108.644 180.721Z" fill="white"/>
<path opacity="0.8" d="M122.742 177.527C122.84 177.237 122.84 176.923 122.742 176.633C122.961 176.66 123.183 176.61 123.369 176.49C123.554 176.371 123.691 176.189 123.756 175.978C123.773 175.849 123.756 175.717 123.709 175.595C123.661 175.473 123.584 175.365 123.484 175.281C123.292 175.105 123.053 174.987 122.797 174.943C122.742 174.938 122.689 174.919 122.644 174.888C122.591 174.836 122.56 174.766 122.557 174.692C122.513 174.463 122.397 174.254 122.226 174.095C122.055 173.937 121.837 173.838 121.606 173.812C121.374 173.787 121.14 173.836 120.938 173.953C120.737 174.07 120.578 174.249 120.485 174.463C120.219 174.317 119.917 174.245 119.613 174.256C119.389 174.255 119.172 174.329 118.994 174.465C118.817 174.601 118.689 174.792 118.632 175.008C118.595 175.122 118.585 175.242 118.601 175.36C118.618 175.478 118.66 175.591 118.726 175.691C118.792 175.79 118.88 175.874 118.982 175.935C119.085 175.996 119.2 176.033 119.319 176.044C119.169 176.135 119.049 176.268 118.975 176.428C118.901 176.587 118.877 176.765 118.904 176.938C118.933 177.111 119.006 177.274 119.117 177.409C119.228 177.545 119.373 177.65 119.537 177.712C119.703 177.769 119.878 177.79 120.053 177.775C120.227 177.76 120.397 177.709 120.551 177.625C120.633 177.89 120.806 178.119 121.039 178.27C121.272 178.421 121.55 178.486 121.826 178.453C122.059 178.418 122.273 178.309 122.438 178.142C122.603 177.975 122.71 177.759 122.742 177.527Z" fill="white"/>
</svg>
