<svg width="56" height="56" viewBox="0 0 56 56" fill="none" xmlns="http://www.w3.org/2000/svg">
<rect width="56" height="56" rx="28" fill="#DEDEDE"/>
<path fill-rule="evenodd" clip-rule="evenodd" d="M19.4977 16C19.4977 11.0294 23.5272 7 28.4977 7C33.4683 7 37.4977 11.0294 37.4977 16C37.4977 20.9706 33.4683 25 28.4977 25C23.5272 25 19.4977 20.9706 19.4977 16Z" fill="#56008F"/>
<path fill-rule="evenodd" clip-rule="evenodd" d="M12.0002 44.2107C12.1549 35.2311 19.4817 28 28.4977 28C37.514 28 44.8409 35.2315 44.9953 44.2113C45.0055 44.8068 44.6624 45.352 44.121 45.6004C39.3632 47.7836 34.0708 49 28.4984 49C22.9255 49 17.6326 47.7834 12.8744 45.5998C12.333 45.3514 11.99 44.8062 12.0002 44.2107Z" fill="#56008F"/>
</svg>
