<svg width="30" height="30" viewBox="0 0 30 30" fill="none" xmlns="http://www.w3.org/2000/svg">
<circle cx="15" cy="15" r="15" fill="#F3F3F5"/>
<path d="M19.2428 17.2425L15 21.4853L10.7573 17.2425C9.91817 16.4034 9.34675 15.3343 9.11527 14.1704C8.88378 13.0066 9.00262 11.8002 9.45676 10.7038C9.91089 9.60749 10.6799 8.67044 11.6666 8.01116C12.6533 7.35189 13.8133 7 15 7C16.1867 7 17.3467 7.35189 18.3334 8.01116C19.3201 8.67044 20.0891 9.60749 20.5433 10.7038C20.9974 11.8002 21.1162 13.0066 20.8847 14.1704C20.6533 15.3343 20.0818 16.4034 19.2428 17.2425ZM9.75 21.9998H20.25V23.4998H9.75V21.9998Z" fill="#7A39BA"/>
</svg>
