<svg width="151" height="117" viewBox="0 0 151 117" fill="none" xmlns="http://www.w3.org/2000/svg">
<path d="M73.0167 42.0763C72.708 41.6523 72.682 41.1317 72.9088 40.6706C73.3625 39.581 73.846 38.51 74.3666 37.4464C75.6124 34.8768 77.111 32.3926 79.1563 30.3734C80.8707 28.6888 82.7449 27.1492 84.7382 25.803C86.1029 24.9663 87.5793 24.3044 89.0854 23.7503C91.6216 22.8206 94.2507 22.1921 96.8948 21.6417C101.424 20.6935 106.247 20.1914 110.751 21.5636C112.796 22.2181 115.046 23.0214 116.288 24.8882C117.084 26.1117 116.355 27.5508 115.719 28.6813C114.771 30.3325 113.592 31.8311 112.309 33.2294C109.163 36.6171 105.585 39.7744 101.29 41.5928C99.5685 42.3106 97.8096 42.9985 96.0097 43.508C94.4999 43.8761 92.9529 44.0956 91.4133 44.2629C87.5793 44.6831 83.6672 44.698 79.8666 43.9951C78.2266 43.7014 76.5755 43.3258 74.969 42.8572C74.441 42.7717 73.3514 42.556 73.0167 42.0763Z" fill="#618F2F"/>
<path d="M112.443 25.7436C112.075 24.4048 107.973 26.0597 107.077 26.4316C104.734 27.4431 102.488 28.7074 100.037 29.4512C97.7501 30.1986 95.4556 30.9015 93.1277 31.4965C90.3424 32.1807 87.5273 32.8613 84.8981 34.0401C82.8119 34.9624 80.8707 36.1598 79.0225 37.4725C78.42 37.8927 77.8659 38.3687 77.2895 38.8113C77.0441 38.9712 76.8024 39.1646 76.7503 39.4658C76.609 40.1351 77.4383 40.6892 77.9924 40.269C80.9562 37.9151 83.5594 36.2156 86.7909 34.9847C89.2528 34.0327 91.841 33.4711 94.3921 32.8092C97.9695 31.7977 101.592 30.842 104.935 29.1834C106.634 28.3653 108.349 27.5249 110.182 27.0414C110.595 26.941 110.595 26.9336 111.413 26.8406C112.067 26.889 112.67 26.4799 112.443 25.7436Z" fill="#557D2F"/>
<path d="M75.8979 48.1565C75.8124 47.1933 75.4889 44.0101 75.1951 43.0655C75.1096 42.7978 74.4402 40.362 73.544 40.4215C72.6478 40.4773 72.8672 41.909 72.7073 42.2028C72.7258 46.6727 70.9334 62.3658 70.212 66.8097C69.5091 70.878 68.9997 74.9575 68.3452 79.0258C67.9435 81.629 67.5233 84.2321 67.3411 86.8352C67.289 87.5827 67.2481 88.3264 67.2333 89.0739C67.2221 89.4086 67.1998 89.7507 67.475 90.0519C68.0514 90.6804 69.3753 90.7622 70.4537 90.7957C71.3685 90.8477 72.3391 90.7399 72.5473 90.1189C72.7816 89.3565 72.7258 88.5793 72.7482 87.8095C72.7816 86.1324 72.7928 84.4589 72.9006 82.7929C73.094 79.4535 73.596 76.1103 74.0051 72.7783C74.5815 67.4717 76.1806 53.4743 75.8979 48.1565Z" fill="#618F2F"/>
<mask id="mask0_357_865" style="mask-type:luminance" maskUnits="userSpaceOnUse" x="18" y="61" width="115" height="36">
<path d="M18.8564 61.1758H132.144V96.2808H18.8564V61.1758Z" fill="white"/>
</mask>
<g mask="url(#mask0_357_865)">
<path d="M131.322 92.6215C130.738 91.8109 129.864 91.3311 129.162 90.6543C126.919 88.8284 124.089 87.9768 122.17 86.8612C120.705 85.8423 119.091 85.2026 117.492 84.5518C117.373 84.4849 117.091 84.3399 117.012 84.2841C116.455 83.9494 115.901 83.5887 115.339 83.2466C114.856 82.9268 112.635 81.6884 112.81 81.7628C111.992 80.9744 111.312 80.0038 110.475 79.2415C109.623 78.3899 109.824 78.7729 109.679 78.2039C109.605 77.7874 109.564 77.5606 109.363 77.1924C109.084 76.6718 108.727 76.6309 108.508 76.4784C107.545 75.8016 107.597 76.6979 106.622 75.5934C106.053 74.7567 105.678 73.9274 104.867 73.641C103.919 73.2989 102.915 73.2803 101.944 73.4402C101.859 73.4588 101.736 73.4588 101.65 73.4477C101.033 73.3138 101.658 71.5325 100.572 71.3986C99.9583 71.2908 99.3558 71.3652 98.772 71.5399C98.7385 71.5474 98.7199 71.5474 98.7051 71.5474C98.679 71.5474 98.6716 71.5585 98.6381 71.5585C97.6489 71.5994 97.556 69.9334 96.5593 70.0004C96.1094 70.1343 95.7301 69.5653 94.6442 68.9443C94.276 68.6951 93.8744 68.6096 93.4877 68.6505C93.4058 68.4162 93.3054 68.1931 93.2125 67.9885C92.5766 66.8171 91.3271 66.4341 90.1891 66.4155C89.9697 66.2742 89.7689 66.1069 89.5607 65.9469C88.75 65.2292 87.7608 64.8685 86.7642 64.6751C86.4555 64.783 85.4849 63.5781 84.5478 63.8384C83.6999 63.9723 82.9376 64.5338 82.3612 65.2515C81.8517 64.9354 81.3831 64.4818 80.7956 64.3814C80.1411 64.2549 79.4791 64.3144 78.8358 64.4743C78.7428 64.4409 78.6536 64.4074 78.5606 64.3553C79.0775 64.5822 77.7313 63.9128 77.5305 63.8793C76.876 63.7306 76.2141 63.8868 75.5893 64.1062C75.4963 64.0058 75.2286 63.7306 75.1617 63.6302C74.6485 63.0017 74.1055 62.3546 73.3953 62.0274C72.2462 61.4361 70.2715 62.1799 69.7955 62.1984C69.4013 62.165 68.8547 61.953 68.0031 61.8266C67.2891 61.86 66.6123 62.1799 66.0247 62.641C66.0173 62.6335 66.0024 62.6224 65.9912 62.6075C65.3999 61.979 64.738 61.3431 63.9087 61.2427C63.0608 61.0084 61.6217 61.6704 61.4878 61.7708C61.4618 61.7782 61.4543 61.7857 61.4395 61.7857C60.8779 61.8043 60.309 61.8377 59.8218 62.2059C58.9442 62.7339 57.862 64.333 57.5943 64.5152C57.2447 64.7495 56.3225 64.9429 55.6345 65.7127C54.7085 66.6833 54.3478 67.6539 53.8941 67.9142C53.2768 68.0815 51.0493 69.8256 50.4134 70.0673C49.1564 70.3351 47.0888 71.5251 46.6091 71.8263C45.7984 72.1759 45.6645 71.9081 44.6344 72.3172C43.9799 72.6221 43.4221 73.139 42.987 73.7824C42.987 73.7824 42.987 73.7824 42.9759 73.7824C42.2247 73.8009 41.5628 74.2695 40.9826 74.7976C40.5327 75.1323 40.2128 75.6417 39.8298 76.0545L39.8224 76.0619C39.2757 76.2107 38.1898 75.969 37.2155 76.564C36.3639 77.1924 36.7247 76.5789 35.4343 77.1515C34.9471 77.4862 34.5306 77.9697 34.2703 78.5386C34.2368 78.5386 34.1959 78.5238 34.1624 78.5312C33.2811 78.5572 32.7196 79.5873 32.5113 80.5319C32.2622 80.5393 32.0093 80.6063 31.7824 80.7401C31.4329 80.9856 31.1131 81.2942 30.8379 81.6475C30.7189 81.8037 30.6185 81.9636 30.5106 82.1309C30.4846 82.2834 30.1834 82.54 30.4511 82.2165C30.0086 82.7594 30.2689 82.2983 29.1384 82.8115C28.6773 83.0792 28.3017 83.4957 27.9893 83.9643C27.7625 83.8639 27.1786 83.6296 26.9853 83.6891C26.2638 83.6891 25.613 84.1837 25.111 84.7527C24.9846 84.9126 24.8767 85.0948 24.7763 85.2807C24.1404 84.9535 23.4264 85.3142 22.9653 85.8832C22.6492 85.7716 22.3219 85.6972 21.9947 85.8571C21.5261 86.0654 21.1096 86.4521 20.8493 86.9542C20.7898 87.0806 20.7229 87.2033 20.6485 87.3223C20.3213 87.5901 20.1353 88.0438 20.113 88.5012C20.087 88.6945 20.1204 88.8879 20.1465 89.0738C20.1539 89.1557 20.1688 89.2486 20.1874 89.3081C20.1874 89.323 20.1874 89.349 20.1874 89.3639C20.1874 89.4494 20.2023 89.5424 20.2134 89.6242C19.7932 89.9924 19.7858 89.825 19.2503 90.6134C18.8486 91.3646 19.2651 92.3389 19.9866 92.562C20.4403 92.7814 20.9163 92.8075 21.3923 92.7963C21.5113 93.0827 21.7344 93.3095 22.0616 93.2909C32.5039 94.5293 42.9684 95.1094 53.459 95.0685C61.4543 95.3362 69.4348 96.0539 77.4375 95.9796C84.8564 95.9721 92.2419 95.035 99.6496 94.823C106.775 94.6817 113.907 95.2172 121.032 94.9829C124.271 94.8156 127.581 95.1243 130.787 94.4883C131.516 94.2875 131.765 93.276 131.322 92.6215Z" fill="#713D22"/>
</g>
</svg>
