<svg width="44" height="44" viewBox="0 0 44 44" fill="none" xmlns="http://www.w3.org/2000/svg">
<path d="M32.9998 21.9998L16.4998 32.9997V10.9998L32.9998 21.9998ZM21.9998 0.00390625C9.86583 0.00390625 0.00390625 9.86583 0.00390625 21.9998C0.00390625 34.1338 9.86583 43.9957 21.9998 43.9957C34.1338 43.9957 43.9957 34.1338 43.9957 21.9998C43.9957 9.86583 34.1338 0.00390625 21.9998 0.00390625ZM21.9998 2.74572C32.6476 2.74572 41.2539 11.3521 41.2539 21.9998C41.2539 32.6475 32.6476 41.2538 21.9998 41.2538C11.352 41.2538 2.74573 32.6475 2.74573 21.9998C2.74573 11.3521 11.352 2.74572 21.9998 2.74572Z" fill="url(#paint0_linear_315_13389)"/>
<defs>
<linearGradient id="paint0_linear_315_13389" x1="21.9998" y1="0.00390625" x2="21.9998" y2="43.9957" gradientUnits="userSpaceOnUse">
<stop stop-color="#BD81FF"/>
<stop offset="1" stop-color="#56008F"/>
</linearGradient>
</defs>
</svg>
