<svg width="380" height="376" viewBox="0 0 380 376" fill="none" xmlns="http://www.w3.org/2000/svg">
<path d="M123.021 226.452V223.668L228.597 165.484C229.371 165.088 230.227 164.882 231.096 164.882C231.966 164.882 232.822 165.088 233.596 165.484L379.999 248.095V250.839C379.973 251.148 379.865 251.444 379.687 251.698C379.508 251.951 379.265 252.153 378.983 252.282L273.408 313.249L123.021 226.452Z" fill="#56008F"/>
<path opacity="0.1" d="M379.999 250.839V248.095L378.211 247.079L273.388 310.475V313.259L378.963 252.292C379.25 252.165 379.498 251.963 379.681 251.708C379.863 251.452 379.973 251.152 379.999 250.839Z" fill="black"/>
<path d="M123.021 223.657L228.597 162.69C229.371 162.294 230.227 162.087 231.096 162.087C231.966 162.087 232.822 162.294 233.596 162.69L378.963 246.612C380.345 247.404 380.345 248.705 378.963 249.497L273.388 310.465L123.021 223.657Z" fill="#56008F"/>
<path opacity="0.2" d="M273.388 313.259V310.475L123.021 223.657V226.441L273.388 313.259Z" fill="black"/>
<path d="M125.43 227.783L18.737 283.974L16.5117 287.419V290.203C16.541 290.92 16.7595 291.616 17.145 292.221C17.5305 292.826 18.0693 293.318 18.7065 293.648L159.358 374.857C160.486 375.457 161.744 375.771 163.022 375.771C164.299 375.771 165.557 375.457 166.685 374.857L271.031 314.621V311.806L125.43 227.783Z" fill="#56008F"/>
<path opacity="0.1" d="M125.43 227.783L18.737 283.974L16.5117 287.419V290.203C16.541 290.92 16.7595 291.616 17.145 292.221C17.5305 292.826 18.0693 293.318 18.7065 293.648L159.358 374.857C160.486 375.457 161.744 375.771 163.022 375.771C164.299 375.771 165.557 375.457 166.685 374.857L271.031 314.621V311.806L125.43 227.783Z" fill="black"/>
<path d="M163.027 372.987C161.747 373.002 160.485 372.691 159.359 372.082L18.7068 290.874C18.0515 290.566 17.4973 290.079 17.109 289.468C16.7208 288.857 16.5146 288.148 16.5146 287.424C16.5146 286.7 16.7208 285.991 17.109 285.38C17.4973 284.769 18.0515 284.282 18.7068 283.974L120.736 225.039L271.031 311.806L166.685 372.082C165.562 372.69 164.303 373.002 163.027 372.987Z" fill="#56008F"/>
<path d="M120.735 216.91L19.8648 275.144L18.8486 276.597V287.419C18.8748 287.728 18.9826 288.025 19.1612 288.278C19.3398 288.532 19.5826 288.733 19.8648 288.862L160.517 370.081C161.294 370.471 162.152 370.675 163.021 370.675C163.891 370.675 164.749 370.471 165.526 370.081L266.397 311.806V301.015L120.735 216.91Z" fill="#EBEBEB"/>
<path d="M266.407 301.015L265.147 301.746L248.727 311.217L245.678 312.995L165.537 359.249C164.761 359.645 163.903 359.851 163.032 359.851C162.161 359.851 161.303 359.645 160.527 359.249L19.855 278.04C18.4832 277.237 18.4832 275.947 19.855 275.144L21.1963 274.372L120.776 216.91L265.198 300.293L265.503 300.476L266.407 301.015Z" fill="#F0F0F0"/>
<path d="M163.027 359.859V370.681C162.156 370.702 161.294 370.495 160.527 370.081L19.855 288.862C19.5728 288.733 19.33 288.532 19.1514 288.278C18.9729 288.025 18.865 287.728 18.8389 287.419V276.587C18.8663 276.897 18.9746 277.195 19.1529 277.45C19.3312 277.705 19.5733 277.908 19.855 278.04L160.527 359.249C161.293 359.667 162.155 359.877 163.027 359.859Z" fill="#E0E0E0"/>
<path d="M266.407 299.612L248.249 310.089L245.404 311.735L165.537 357.846C164.761 358.243 163.903 358.449 163.032 358.449C162.161 358.449 161.303 358.243 160.527 357.846L34.5276 285.122C33.3997 284.503 32.343 283.883 31.3573 283.293C26.2767 280.174 23.1471 277.38 21.1961 274.413L20.9522 274.037C20.8011 273.809 20.6974 273.553 20.6474 273.285C20.5597 272.717 20.6931 272.137 21.0201 271.664C21.3471 271.192 21.8429 270.862 22.4053 270.744C25.7049 269.781 28.8878 268.455 31.8959 266.792L32.028 266.72L120.736 215.508L266.407 299.612Z" fill="#FAFAFA"/>
<path opacity="0.1" d="M247.568 298.302C246.278 299.054 246.278 300.263 247.568 301.015C248.291 301.389 249.092 301.584 249.906 301.584C250.719 301.584 251.52 301.389 252.243 301.015C253.543 300.263 253.543 299.054 252.243 298.302C251.52 297.928 250.719 297.732 249.906 297.732C249.092 297.732 248.291 297.928 247.568 298.302Z" fill="black"/>
<path d="M262.637 289.533C260.859 288.516 258.623 288.669 256.347 289.969C252.811 292.002 249.763 296.574 248.432 301.35C248.986 301.524 249.568 301.597 250.149 301.563C251.378 297.306 254.091 293.292 257.211 291.473C258.075 290.941 259.062 290.64 260.076 290.599C260.668 290.591 261.25 290.742 261.763 291.036C263.267 291.9 264.141 294.024 264.141 296.828C264.144 297.294 264.117 297.759 264.06 298.22L265.706 299.165C265.818 298.391 265.876 297.61 265.878 296.828C265.858 293.384 264.69 290.721 262.637 289.533Z" fill="#263238"/>
<path d="M265.543 300.07C265.543 300.202 265.493 300.334 265.462 300.476L265.157 300.293L265.543 300.07Z" fill="#263238"/>
<path opacity="0.1" d="M233.516 290.163C232.225 290.915 232.225 292.124 233.516 292.876C234.238 293.25 235.039 293.445 235.853 293.445C236.666 293.445 237.468 293.25 238.19 292.876C239.49 292.124 239.49 290.915 238.19 290.163C237.468 289.789 236.666 289.593 235.853 289.593C235.039 289.593 234.238 289.789 233.516 290.163Z" fill="black"/>
<path d="M248.584 281.394C246.796 280.378 244.571 280.52 242.284 281.831C238.758 283.863 235.71 288.435 234.379 293.211C234.934 293.386 235.516 293.458 236.096 293.425C237.326 289.167 240.029 285.153 243.158 283.335C244.022 282.799 245.009 282.495 246.024 282.45C246.616 282.447 247.198 282.601 247.71 282.898C249.214 283.761 250.088 285.875 250.088 288.689C250.086 289.155 250.059 289.619 250.007 290.082L251.643 291.027C251.76 290.253 251.818 289.472 251.816 288.689C251.775 285.245 250.617 282.583 248.584 281.394Z" fill="#263238"/>
<path opacity="0.1" d="M219.411 282.024C219.132 282.125 218.892 282.309 218.721 282.552C218.551 282.794 218.46 283.084 218.46 283.38C218.46 283.676 218.551 283.966 218.721 284.208C218.892 284.451 219.132 284.636 219.411 284.737C220.136 285.103 220.936 285.293 221.748 285.293C222.56 285.293 223.361 285.103 224.085 284.737C225.386 283.985 225.386 282.765 224.085 282.024C223.363 281.649 222.562 281.454 221.748 281.454C220.935 281.454 220.133 281.649 219.411 282.024Z" fill="black"/>
<path d="M234.44 273.255C232.662 272.238 230.426 272.381 228.15 273.691C224.624 275.724 221.565 280.296 220.234 285.072C220.793 285.246 221.378 285.318 221.962 285.285C223.181 281.028 225.894 277.014 229.014 275.195C229.88 274.658 230.871 274.354 231.889 274.311C232.481 274.307 233.064 274.462 233.576 274.758C235.08 275.622 235.944 277.736 235.944 280.55C235.947 281.016 235.92 281.481 235.862 281.942L237.508 282.887C237.621 282.113 237.679 281.332 237.681 280.55C237.681 277.106 236.503 274.443 234.44 273.255Z" fill="#263238"/>
<path opacity="0.1" d="M205.317 273.884C204.027 274.636 204.027 275.846 205.317 276.597C206.04 276.972 206.841 277.167 207.655 277.167C208.468 277.167 209.269 276.972 209.992 276.597C211.292 275.846 211.292 274.636 209.992 273.884C209.269 273.51 208.468 273.315 207.655 273.315C206.841 273.315 206.04 273.51 205.317 273.884Z" fill="black"/>
<path d="M220.346 265.115C218.568 264.099 216.332 264.242 214.056 265.552C210.52 267.585 207.472 272.157 206.141 276.933C206.699 277.108 207.284 277.18 207.868 277.146C209.087 272.889 211.8 268.875 214.92 267.056C215.784 266.523 216.771 266.222 217.785 266.182C218.38 266.175 218.965 266.326 219.482 266.619C220.986 267.483 221.85 269.607 221.85 272.411C221.853 272.876 221.826 273.342 221.769 273.803L223.415 274.748C223.527 273.974 223.585 273.193 223.587 272.411C223.587 268.967 222.409 266.304 220.346 265.115Z" fill="#263238"/>
<path opacity="0.1" d="M191.214 265.745C190.935 265.846 190.694 266.031 190.524 266.273C190.354 266.516 190.263 266.805 190.263 267.102C190.263 267.398 190.354 267.687 190.524 267.93C190.694 268.173 190.935 268.357 191.214 268.458C191.939 268.829 192.742 269.023 193.556 269.023C194.37 269.023 195.173 268.829 195.898 268.458C197.189 267.706 197.189 266.497 195.898 265.745C195.173 265.374 194.37 265.181 193.556 265.181C192.742 265.181 191.939 265.374 191.214 265.745Z" fill="black"/>
<path d="M206.252 256.935C204.464 255.919 202.239 256.061 199.952 257.372C196.426 259.404 193.378 263.977 192.047 268.753C192.602 268.927 193.184 268.999 193.764 268.966C194.994 264.709 197.697 260.695 200.826 258.876C201.69 258.342 202.677 258.041 203.692 258.002C204.283 257.995 204.865 258.146 205.378 258.439C206.882 259.303 207.756 261.426 207.756 264.231C207.754 264.696 207.727 265.161 207.675 265.623L209.311 266.568C209.428 265.795 209.486 265.013 209.484 264.231C209.484 260.827 208.305 258.165 206.252 256.935Z" fill="#263238"/>
<path opacity="0.1" d="M177.12 257.606C175.83 258.358 175.83 259.567 177.12 260.319C177.842 260.693 178.644 260.889 179.457 260.889C180.271 260.889 181.072 260.693 181.794 260.319C183.095 259.567 183.095 258.358 181.794 257.606C181.072 257.232 180.271 257.037 179.457 257.037C178.644 257.037 177.842 257.232 177.12 257.606Z" fill="black"/>
<path d="M192.149 248.806C190.371 247.79 188.084 247.932 185.859 249.243C182.323 251.275 179.274 255.848 177.943 260.624C178.502 260.798 179.087 260.87 179.671 260.837C180.89 256.58 183.603 252.566 186.723 250.747C187.587 250.214 188.574 249.913 189.588 249.873C190.183 249.866 190.768 250.017 191.285 250.31C192.789 251.174 193.653 253.298 193.653 256.102C193.656 256.567 193.629 257.032 193.571 257.494L195.217 258.439C195.33 257.665 195.388 256.884 195.39 256.102C195.39 252.688 194.212 250.026 192.149 248.806Z" fill="#263238"/>
<path opacity="0.1" d="M163.026 249.467C161.736 250.219 161.736 251.428 163.026 252.18C163.749 252.554 164.55 252.749 165.364 252.749C166.177 252.749 166.978 252.554 167.701 252.18C169.001 251.428 169.001 250.219 167.701 249.467C166.978 249.093 166.177 248.897 165.364 248.897C164.55 248.897 163.749 249.093 163.026 249.467Z" fill="black"/>
<path d="M178.055 240.677C176.267 239.661 173.991 239.804 171.755 241.114C168.229 243.147 165.181 247.719 163.85 252.495C164.404 252.669 164.986 252.742 165.567 252.708C166.796 248.451 169.509 244.437 172.629 242.618C173.493 242.085 174.48 241.784 175.494 241.744C176.086 241.736 176.668 241.887 177.181 242.181C178.685 243.045 179.559 245.169 179.559 247.973C179.562 248.438 179.535 248.904 179.478 249.365L181.114 250.31C181.234 249.537 181.296 248.756 181.296 247.973C181.296 244.549 180.108 241.887 178.055 240.677Z" fill="#263238"/>
<path opacity="0.1" d="M148.923 241.328C148.644 241.429 148.403 241.613 148.233 241.856C148.063 242.099 147.972 242.388 147.972 242.684C147.972 242.981 148.063 243.27 148.233 243.513C148.403 243.755 148.644 243.94 148.923 244.041C149.645 244.415 150.447 244.61 151.26 244.61C152.073 244.61 152.875 244.415 153.597 244.041C154.898 243.289 154.898 242.08 153.597 241.328C152.875 240.954 152.073 240.758 151.26 240.758C150.447 240.758 149.645 240.954 148.923 241.328Z" fill="black"/>
<path d="M163.952 232.549C162.173 231.532 159.887 231.675 157.662 232.985C154.136 235.018 151.077 239.59 149.746 244.366C150.305 244.54 150.89 244.612 151.474 244.579C152.703 240.322 155.406 236.308 158.525 234.489C159.393 233.955 160.383 233.654 161.401 233.615C161.992 233.608 162.575 233.759 163.088 234.052C164.592 234.916 165.455 237.04 165.455 239.844C165.459 240.31 165.432 240.775 165.374 241.236L167.02 242.181C167.133 241.407 167.19 240.626 167.193 239.844C167.193 236.41 166.014 233.748 163.952 232.549Z" fill="#263238"/>
<path opacity="0.1" d="M134.829 233.189C133.539 233.941 133.539 235.15 134.829 235.902C135.551 236.276 136.353 236.471 137.166 236.471C137.98 236.471 138.781 236.276 139.503 235.902C140.804 235.15 140.804 233.941 139.503 233.189C138.781 232.814 137.98 232.619 137.166 232.619C136.353 232.619 135.551 232.814 134.829 233.189Z" fill="black"/>
<path d="M149.858 224.42C148.08 223.403 145.793 223.546 143.568 224.857C140.042 226.889 136.983 231.461 135.652 236.237C136.211 236.411 136.796 236.484 137.38 236.451C138.599 232.193 141.312 228.179 144.432 226.36C145.298 225.823 146.289 225.519 147.307 225.476C147.899 225.472 148.482 225.627 148.994 225.923C150.498 226.787 151.362 228.901 151.362 231.715C151.365 232.181 151.338 232.646 151.28 233.107L152.926 234.052C153.039 233.278 153.097 232.497 153.099 231.715C153.069 228.271 151.92 225.608 149.858 224.42Z" fill="#263238"/>
<path opacity="0.1" d="M120.726 225.049C120.447 225.15 120.206 225.335 120.036 225.577C119.866 225.82 119.774 226.109 119.774 226.406C119.774 226.702 119.866 226.991 120.036 227.234C120.206 227.477 120.447 227.661 120.726 227.762C121.451 228.133 122.253 228.327 123.068 228.327C123.882 228.327 124.685 228.133 125.41 227.762C126.7 227.01 126.7 225.801 125.41 225.049C124.685 224.678 123.882 224.485 123.068 224.485C122.253 224.485 121.451 224.678 120.726 225.049Z" fill="black"/>
<path d="M135.794 216.29C134.006 215.274 131.781 215.416 129.494 216.727C125.968 218.759 122.91 223.332 121.589 228.108C122.144 228.282 122.726 228.354 123.306 228.321C124.536 224.064 127.239 220.05 130.368 218.231C131.232 217.697 132.219 217.396 133.234 217.357C133.825 217.35 134.407 217.501 134.92 217.794C136.424 218.658 137.298 220.781 137.298 223.586C137.296 224.051 137.269 224.516 137.217 224.978L138.853 225.923C138.97 225.15 139.028 224.368 139.026 223.586C138.995 220.131 137.827 217.469 135.794 216.29Z" fill="#263238"/>
<path d="M226.534 296.899L148.923 341.71" stroke="#EBEBEB" stroke-width="0.569223" stroke-miterlimit="10" stroke-linecap="round"/>
<path d="M217.136 291.474L139.534 336.285" stroke="#EBEBEB" stroke-width="0.569223" stroke-miterlimit="10" stroke-linecap="round"/>
<path d="M207.736 286.047L130.135 330.858" stroke="#EBEBEB" stroke-width="0.569223" stroke-miterlimit="10" stroke-linecap="round"/>
<path d="M198.337 280.621L120.735 325.432" stroke="#EBEBEB" stroke-width="0.569223" stroke-miterlimit="10" stroke-linecap="round"/>
<path d="M188.937 275.195L111.336 320.006" stroke="#EBEBEB" stroke-width="0.569223" stroke-miterlimit="10" stroke-linecap="round"/>
<path d="M179.539 269.769L101.938 314.58" stroke="#EBEBEB" stroke-width="0.569223" stroke-miterlimit="10" stroke-linecap="round"/>
<path d="M170.14 264.343L92.5381 309.144" stroke="#EBEBEB" stroke-width="0.569223" stroke-miterlimit="10" stroke-linecap="round"/>
<path d="M160.74 258.917L83.1387 303.718" stroke="#EBEBEB" stroke-width="0.569223" stroke-miterlimit="10" stroke-linecap="round"/>
<path d="M151.342 253.491L73.7402 298.292" stroke="#EBEBEB" stroke-width="0.569223" stroke-miterlimit="10" stroke-linecap="round"/>
<path d="M141.942 248.064L64.3408 292.865" stroke="#EBEBEB" stroke-width="0.569223" stroke-miterlimit="10" stroke-linecap="round"/>
<path d="M132.543 242.639L54.9414 287.44" stroke="#EBEBEB" stroke-width="0.569223" stroke-miterlimit="10" stroke-linecap="round"/>
<path d="M123.143 237.212L45.542 282.013" stroke="#EBEBEB" stroke-width="0.569223" stroke-miterlimit="10" stroke-linecap="round"/>
<path d="M113.745 231.786L36.1436 276.587" stroke="#EBEBEB" stroke-width="0.569223" stroke-miterlimit="10" stroke-linecap="round"/>
<path d="M109.04 229.094L245.333 307.752" stroke="#56008F" stroke-width="0.569223" stroke-miterlimit="10" stroke-linecap="round"/>
<path d="M240.557 299.664L158.475 347.137" stroke="#56008F" stroke-width="0.569223" stroke-miterlimit="10" stroke-linecap="round"/>
<g opacity="0.25">
<path d="M199.496 289.736C198.785 288.649 197.464 288.212 196.326 287.704C195.869 287.501 195.31 287.216 194.791 286.931C194.08 285.783 193.135 283.883 194.385 283.67C195.137 283.527 196.59 284.32 197.433 284.564C197.891 284.696 197.789 284.025 197.433 283.903C196.051 283.365 193.369 281.648 192.84 283.995C192.721 284.733 192.835 285.489 193.166 286.159C192.525 285.884 191.83 285.756 191.133 285.783C190.483 285.844 189.924 285.865 189.701 286.627C189.569 287.043 189.751 287.226 189.782 287.541C189.807 287.707 189.883 287.861 189.999 287.981C190.116 288.101 190.267 288.182 190.432 288.212C190.361 288.212 190.148 288.212 189.701 288.212C188.685 288.212 186.043 287.521 185.423 288.74C185.169 289.238 185.758 289.939 185.667 290.132C185.575 290.325 183.726 290.864 183.391 291.067C183.238 291.159 183.34 291.687 183.258 291.738C182.318 291.795 181.374 291.795 180.434 291.738C178.879 291.86 175.028 291.281 175.536 293.679C175.587 293.933 175.8 293.902 175.851 294.319C175.86 294.516 175.897 294.711 175.963 294.898C175.912 294.898 175.8 294.898 175.597 295.223C175.394 295.548 174.926 295.355 174.733 295.589C174.002 296.514 175.129 296.839 174.205 297.418C172.914 298.231 170.222 296.585 168.901 297.489C167.732 298.302 169.256 300.629 167.183 300.67C166.726 300.67 166.99 301.35 167.336 301.381C169.277 301.554 169.063 301.188 169.439 299.603C170.039 297.032 173.88 298.81 176.044 298.21C176.096 298.188 176.142 298.154 176.179 298.111C176.216 298.068 176.243 298.018 176.258 297.963C176.272 297.908 176.274 297.851 176.264 297.795C176.253 297.739 176.23 297.687 176.196 297.641C175.627 296.727 176.288 296.229 177.141 295.833C177.193 295.81 177.239 295.776 177.276 295.733C177.313 295.691 177.34 295.64 177.355 295.586C177.371 295.532 177.374 295.475 177.365 295.419C177.357 295.364 177.336 295.31 177.304 295.264C177.07 294.847 176.288 293.567 176.755 292.957C177.507 292.795 178.273 292.707 179.041 292.693C180.712 292.576 182.387 292.546 184.061 292.601C184.118 292.6 184.173 292.585 184.222 292.558C184.272 292.531 184.314 292.493 184.346 292.446C184.378 292.399 184.398 292.346 184.405 292.29C184.412 292.234 184.406 292.177 184.386 292.124C184.142 291.585 186.317 291.24 186.795 291.108C186.839 291.092 186.879 291.067 186.914 291.036C186.948 291.004 186.977 290.966 186.996 290.924C187.016 290.881 187.027 290.835 187.029 290.788C187.031 290.741 187.024 290.695 187.008 290.651C185.992 288.07 189.792 289.025 191.377 289.269C191.443 289.287 191.512 289.286 191.577 289.267C191.643 289.248 191.701 289.211 191.747 289.16C191.792 289.109 191.822 289.047 191.834 288.98C191.846 288.913 191.839 288.844 191.814 288.781C191.57 287.917 189.65 287.043 191.926 286.749C192.531 286.735 193.13 286.879 193.664 287.165C194.645 288.817 196.007 290.211 197.637 291.23C199.13 292.012 200.654 291.484 199.496 289.736ZM198.795 290.203C199.273 290.833 197.779 290.315 197.596 290.203C196.743 289.692 196.042 288.962 195.564 288.09C196.021 288.344 196.438 288.567 196.742 288.71C197.554 289.004 198.265 289.522 198.795 290.203Z" fill="#455A64"/>
<path d="M160.68 306.085C160.406 304.957 160.365 303.728 161.412 303.596C161.909 303.535 161.554 302.854 161.178 302.833C159.776 302.833 159.339 304.012 159.522 305.475C158.962 305.217 158.376 305.019 157.774 304.886C156.859 304.713 156.27 304.693 155.975 305.618C155.792 306.177 156.24 306.532 156.199 307.04C156.148 307.772 156.89 307.467 155.782 307.762C155.352 307.757 154.923 307.709 154.502 307.619C153.384 307.619 153.293 307.619 152.612 308.209C151.931 308.798 153.628 309.072 151.596 308.747C151.083 308.572 150.542 308.496 150 308.524C149.259 308.697 148.862 308.91 148.984 309.733C149.045 310.109 149.848 310.597 149.838 310.83C149.838 312.619 147.897 311.105 147.176 310.83C147.128 310.809 147.076 310.799 147.023 310.803C146.971 310.806 146.92 310.821 146.876 310.848C146.831 310.875 146.793 310.913 146.766 310.957C146.738 311.002 146.722 311.053 146.718 311.105C146.718 311.989 147.308 312.304 146.017 312.375C145.865 312.375 145.001 311.897 144.696 311.887C143.873 311.887 143.121 312.964 142.044 312.903C141.75 312.903 141.648 313.147 141.739 313.381C142.034 314.184 142.471 314.671 140.845 315.413C140.845 315.413 138.935 315.179 138.976 315.179C138.508 315.179 138.813 315.931 139.169 315.962C139.91 316.013 142.42 317.069 143.162 316.074C143.701 315.332 142.623 314.478 142.898 314.041C142.715 314.346 144.331 313.604 144.503 313.543C144.904 313.366 145.328 313.25 145.763 313.198C145.987 313.198 146.17 313.564 146.414 313.554C146.657 313.543 147.054 313.706 147.338 313.554C147.623 313.401 147.694 313.025 147.806 312.954C148.09 312.761 147.44 312.537 147.999 312.344C148.405 312.202 148.761 312.619 149.137 312.731C149.746 312.924 150.661 313.371 151.169 312.731C151.85 311.887 150.61 311.298 150.722 310.698C150.986 309.428 152.754 310.393 153.628 309.824C153.688 309.782 153.732 309.722 153.754 309.652C153.776 309.582 153.775 309.507 153.75 309.438C153.232 307.68 156.422 309.052 157.418 308.869C157.601 308.869 157.794 308.717 157.764 308.503C157.733 308.29 157.367 307.416 157.367 307.406C157.621 306.39 159.074 306.461 159.735 306.644C160.385 308.778 162.082 310.932 163.932 310.363C164 310.341 164.06 310.298 164.102 310.239C164.144 310.181 164.166 310.11 164.165 310.038C164.053 308.534 162.407 307.081 160.68 306.085ZM161.351 307.843C161.29 307.731 161.198 307.548 161.107 307.335C161.624 307.668 162.066 308.104 162.407 308.615C162.763 309.682 161.523 308.138 161.351 307.843Z" fill="#455A64"/>
<path d="M188.887 317.537C188.166 316.45 186.855 316.013 185.717 315.505C185.249 315.292 184.701 315.007 184.182 314.722C183.461 313.574 182.516 311.674 183.776 311.471C184.528 311.329 185.981 312.111 186.824 312.355C187.282 312.497 187.17 311.827 186.824 311.705C185.442 311.156 182.76 309.449 182.231 311.796C182.109 312.533 182.219 313.289 182.546 313.96C181.906 313.684 181.211 313.555 180.514 313.584C179.854 313.645 179.305 313.666 179.071 314.428C178.949 314.844 179.132 315.027 179.153 315.342C179.178 315.509 179.256 315.664 179.374 315.785C179.493 315.905 179.646 315.985 179.813 316.013C179.732 316.013 179.529 316.013 179.071 315.952C178.055 315.952 175.423 315.271 174.804 316.491C174.539 316.988 175.129 317.69 175.047 317.872C174.966 318.055 173.097 318.604 172.761 318.807C172.619 318.909 172.761 319.437 172.629 319.478C171.689 319.545 170.745 319.545 169.804 319.478C168.25 319.61 164.409 319.031 164.907 321.419C164.968 321.683 165.171 321.642 165.222 322.069C165.232 322.267 165.273 322.463 165.343 322.648C165.283 322.648 165.171 322.648 164.968 322.973C164.764 323.299 164.307 323.095 164.114 323.339C163.372 324.264 164.5 324.589 163.586 325.158C162.285 325.971 159.592 324.335 158.281 325.239C156.971 326.144 158.627 328.369 156.564 328.41C156.107 328.41 156.371 329.101 156.717 329.131C158.647 329.294 158.444 328.928 158.81 327.353C159.419 324.772 163.26 326.55 165.415 325.951C165.669 325.89 165.689 325.575 165.577 325.392C165.008 324.477 165.669 323.969 166.522 323.573C166.574 323.552 166.62 323.519 166.657 323.477C166.694 323.435 166.721 323.385 166.736 323.331C166.75 323.277 166.753 323.22 166.742 323.165C166.731 323.11 166.708 323.059 166.675 323.014C166.451 322.597 165.658 321.307 166.126 320.707C166.881 320.546 167.65 320.457 168.422 320.443C170.093 320.321 171.768 320.291 173.442 320.352C173.498 320.35 173.554 320.336 173.603 320.309C173.653 320.282 173.695 320.243 173.727 320.196C173.759 320.15 173.779 320.096 173.786 320.04C173.793 319.984 173.787 319.927 173.767 319.874C173.523 319.336 175.688 318.99 176.175 318.858C176.219 318.842 176.26 318.818 176.294 318.786C176.328 318.754 176.356 318.716 176.375 318.673C176.394 318.63 176.404 318.584 176.405 318.537C176.405 318.491 176.396 318.444 176.379 318.401C175.362 315.83 179.163 316.775 180.748 317.029C180.814 317.046 180.883 317.044 180.948 317.025C181.013 317.005 181.071 316.969 181.117 316.919C181.163 316.869 181.194 316.807 181.208 316.741C181.222 316.674 181.217 316.605 181.195 316.541C180.941 315.667 179.031 314.804 181.297 314.509C181.904 314.505 182.504 314.648 183.044 314.926C184.027 316.573 185.385 317.966 187.007 318.99C188.511 319.813 190.045 319.295 188.887 317.537ZM188.186 318.005C188.653 318.645 187.17 318.126 186.977 318.005C186.126 317.486 185.425 316.754 184.945 315.881C185.412 316.135 185.829 316.369 186.133 316.501C186.94 316.808 187.649 317.328 188.186 318.005Z" fill="#455A64"/>
<path d="M212.736 297.824C212.451 296.696 212.421 295.467 213.457 295.335C213.965 295.274 213.61 294.593 213.234 294.573C211.832 294.573 211.384 295.751 211.567 297.225C211.014 296.958 210.43 296.757 209.83 296.625C208.915 296.453 208.326 296.432 208.021 297.357C207.848 297.916 208.295 298.271 208.255 298.779C208.204 299.511 208.936 299.206 207.838 299.501C207.408 299.497 206.979 299.449 206.558 299.359C205.44 299.359 205.338 299.359 204.668 299.948C203.997 300.537 205.684 300.812 203.652 300.487C203.143 300.311 202.604 300.235 202.067 300.263C201.325 300.436 200.929 300.649 201.05 301.472C201.111 301.848 201.904 302.336 201.904 302.57C201.904 304.358 199.963 302.844 199.232 302.57C199.184 302.551 199.132 302.543 199.081 302.547C199.029 302.551 198.979 302.567 198.935 302.594C198.891 302.62 198.853 302.657 198.825 302.7C198.798 302.743 198.78 302.793 198.774 302.844C198.774 303.728 199.364 304.043 198.083 304.114C197.931 304.114 197.067 303.637 196.762 303.626C195.939 303.626 195.177 304.704 194.1 304.643C193.805 304.643 193.714 304.886 193.795 305.12C194.1 305.923 194.537 306.411 192.911 307.152C192.911 307.152 191.001 306.919 191.042 306.919C190.574 306.919 190.869 307.671 191.235 307.701C191.976 307.752 194.476 308.809 195.218 307.813C195.767 307.071 194.69 306.218 194.964 305.781C194.781 306.085 196.386 305.344 196.569 305.283C196.967 305.107 197.388 304.991 197.819 304.937C198.043 304.937 198.236 305.303 198.469 305.293C198.703 305.283 199.12 305.445 199.404 305.293C199.689 305.14 199.76 304.764 199.872 304.693C200.156 304.5 199.506 304.277 200.065 304.084C200.471 303.941 200.817 304.358 201.203 304.47C201.813 304.663 202.727 305.11 203.235 304.47C203.906 303.626 202.666 303.037 202.788 302.438C203.042 301.167 204.82 302.133 205.694 301.564C205.751 301.519 205.792 301.458 205.812 301.389C205.832 301.319 205.83 301.246 205.806 301.178C205.298 299.42 208.478 300.791 209.484 300.609C209.667 300.609 209.85 300.456 209.83 300.243C209.809 300.029 209.433 299.155 209.433 299.145C209.688 298.129 211.13 298.2 211.801 298.383C212.451 300.517 214.138 302.671 215.987 302.102C216.058 302.084 216.12 302.041 216.163 301.982C216.205 301.922 216.226 301.85 216.221 301.777C216.069 300.273 214.463 298.82 212.736 297.824ZM213.407 299.582C213.314 299.419 213.232 299.249 213.163 299.074C213.679 299.407 214.122 299.843 214.463 300.355C214.819 301.421 213.579 299.877 213.407 299.613V299.582Z" fill="#455A64"/>
<path d="M142.176 258.043C141.455 256.956 140.144 256.529 139.006 256.011C138.538 255.797 137.99 255.513 137.471 255.228C136.75 254.08 135.805 252.18 137.065 251.977C137.807 251.834 139.27 252.627 140.113 252.861C140.561 253.003 140.459 252.332 140.113 252.21C138.731 251.662 136.049 249.955 135.521 252.302C135.392 253.038 135.502 253.797 135.836 254.466C135.195 254.189 134.5 254.061 133.803 254.09C133.143 254.151 132.594 254.172 132.36 254.934C132.238 255.35 132.36 255.533 132.442 255.848C132.467 256.015 132.545 256.17 132.663 256.29C132.782 256.411 132.935 256.491 133.102 256.519C132.855 256.504 132.607 256.504 132.36 256.519C131.344 256.519 128.713 255.828 128.083 257.047C127.828 257.545 128.418 258.246 128.337 258.429C128.255 258.612 126.386 259.161 126.05 259.374C125.898 259.466 126.05 259.994 125.918 260.035C124.978 260.102 124.034 260.102 123.093 260.035C121.539 260.167 117.698 259.587 118.196 261.986C118.257 262.24 118.46 262.199 118.511 262.626C118.521 262.824 118.562 263.019 118.633 263.205C118.572 263.205 118.46 263.205 118.257 263.53C118.053 263.855 117.596 263.652 117.403 263.896C116.661 264.821 117.789 265.146 116.875 265.715C115.574 266.528 112.881 264.892 111.56 265.796C110.239 266.7 111.916 268.926 109.853 268.966C109.396 268.966 109.66 269.657 110.006 269.688C111.936 269.85 111.723 269.485 112.099 267.91C112.709 265.339 116.549 267.107 118.704 266.517C118.757 266.497 118.805 266.463 118.843 266.421C118.881 266.378 118.909 266.327 118.924 266.271C118.939 266.216 118.94 266.158 118.928 266.102C118.917 266.046 118.892 265.993 118.856 265.948C118.297 265.034 118.958 264.526 119.811 264.13C119.863 264.108 119.909 264.075 119.946 264.033C119.983 263.991 120.01 263.942 120.025 263.888C120.04 263.834 120.042 263.777 120.031 263.722C120.02 263.667 119.997 263.615 119.964 263.571C119.74 263.154 118.948 261.864 119.415 261.264C120.17 261.102 120.939 261.014 121.711 261C123.382 260.878 125.057 260.847 126.731 260.908C126.788 260.908 126.843 260.893 126.892 260.866C126.942 260.839 126.984 260.8 127.015 260.753C127.046 260.706 127.065 260.652 127.071 260.596C127.076 260.54 127.068 260.483 127.046 260.431C126.812 259.892 128.977 259.547 129.464 259.415C129.552 259.381 129.622 259.314 129.66 259.228C129.698 259.142 129.701 259.045 129.668 258.957C128.652 256.377 132.452 257.322 134.037 257.576C134.103 257.592 134.172 257.591 134.237 257.571C134.302 257.552 134.36 257.515 134.406 257.465C134.452 257.415 134.483 257.354 134.497 257.287C134.511 257.221 134.506 257.152 134.484 257.088C134.23 256.214 132.31 255.35 134.586 255.056C135.193 255.052 135.793 255.195 136.333 255.472C137.316 257.12 138.674 258.512 140.296 259.537C141.8 260.319 143.335 259.801 142.176 258.043ZM141.475 258.51C141.942 259.151 140.459 258.632 140.266 258.51C139.415 257.992 138.714 257.26 138.234 256.387C138.701 256.641 139.118 256.874 139.422 257.017C140.231 257.317 140.941 257.833 141.475 258.51Z" fill="#455A64"/>
<path d="M103.36 274.392C103.076 273.275 103.045 272.045 104.082 271.913C104.58 271.842 104.224 271.161 103.858 271.151C102.446 271.151 102.009 272.33 102.192 273.793C101.637 273.53 101.054 273.332 100.454 273.203C99.5397 273.031 98.9503 273 98.6455 273.935C98.4626 274.484 98.9097 274.85 98.8792 275.347C98.8792 276.089 99.56 275.784 98.4524 276.069C98.0223 276.068 97.5934 276.023 97.1721 275.937C96.8332 275.856 96.4788 275.869 96.1463 275.972C95.8138 276.076 95.5153 276.267 95.2821 276.526C94.5911 277.105 96.2982 277.39 94.266 277.065C93.7576 276.886 93.2188 276.81 92.6808 276.841C91.9289 277.014 91.5428 277.227 91.6647 278.05C91.6647 278.416 92.5182 278.914 92.5081 279.148C92.5081 280.936 90.5775 279.422 89.8458 279.148C89.7971 279.131 89.7451 279.125 89.6937 279.13C89.6424 279.136 89.5929 279.153 89.549 279.18C89.5052 279.208 89.468 279.245 89.4402 279.288C89.4124 279.332 89.3948 279.381 89.3886 279.432C89.3886 280.316 89.9779 280.621 88.6976 280.702C88.535 280.702 87.6815 280.215 87.3767 280.215C86.5434 280.215 85.7915 281.292 84.7144 281.231C84.4197 281.231 84.3181 281.465 84.4096 281.708C84.7042 282.511 85.1412 282.999 83.5255 283.741C83.5255 283.741 81.6152 283.497 81.6559 283.497C81.1885 283.497 81.4831 284.259 81.849 284.279C82.5806 284.34 85.0904 285.397 85.8322 284.391C86.3809 283.659 85.3038 282.806 85.568 282.359C85.3952 282.674 87.0007 281.922 87.1734 281.861C87.5756 281.688 87.9996 281.572 88.4334 281.515C88.657 281.515 88.85 281.881 89.0838 281.881C89.3175 281.881 89.7341 282.034 90.0186 281.881C90.3031 281.729 90.3641 281.363 90.4758 281.282C90.7705 281.099 90.11 280.865 90.6689 280.682C91.2278 280.499 91.431 280.946 91.8171 281.068C92.4166 281.261 93.3413 281.708 93.8494 281.068C94.52 280.225 93.2803 279.636 93.3921 279.036C93.6563 277.766 95.4752 278.731 96.2982 278.162C96.3579 278.12 96.402 278.059 96.4241 277.99C96.4461 277.92 96.4447 277.845 96.4202 277.776C95.9121 276.018 99.0926 277.39 100.099 277.207C100.271 277.207 100.464 277.055 100.444 276.841C100.424 276.628 100.038 275.754 100.048 275.734C100.292 274.717 101.745 274.799 102.415 274.982C103.055 277.116 104.752 279.27 106.602 278.691C106.671 278.672 106.731 278.631 106.774 278.574C106.816 278.517 106.838 278.447 106.835 278.376C106.734 276.851 105.078 275.388 103.36 274.392ZM104.021 276.15C103.934 275.989 103.856 275.823 103.787 275.652C104.304 275.982 104.744 276.418 105.078 276.933C105.443 278 104.204 276.455 104.021 276.15Z" fill="#455A64"/>
<path d="M131.558 285.854C130.846 284.767 129.525 284.33 128.387 283.822C127.93 283.609 127.371 283.324 126.853 283.039C126.142 281.891 125.187 279.991 126.446 279.788C127.198 279.646 128.651 280.428 129.495 280.672C129.952 280.804 129.851 280.144 129.495 280.011C128.113 279.473 125.43 277.756 124.902 280.113C124.779 280.851 124.893 281.608 125.227 282.277C124.588 281.998 123.892 281.869 123.195 281.901C122.545 281.962 121.986 281.973 121.762 282.735C121.63 283.161 121.762 283.344 121.843 283.659C121.87 283.824 121.946 283.977 122.063 284.097C122.179 284.217 122.33 284.299 122.494 284.33C122.252 284.291 122.007 284.271 121.762 284.269C120.746 284.269 118.104 283.588 117.484 284.797C117.23 285.305 117.809 285.996 117.728 286.189C117.647 286.383 115.777 286.921 115.452 287.124C115.3 287.216 115.401 287.744 115.32 287.795C114.379 287.857 113.436 287.857 112.495 287.795C110.94 287.927 107.089 287.348 107.597 289.736C107.597 290 107.862 289.959 107.902 290.376C107.919 290.577 107.96 290.774 108.024 290.965C107.963 290.965 107.862 290.965 107.658 291.28C107.455 291.595 106.988 291.412 106.795 291.656C106.063 292.581 107.191 292.896 106.266 293.475C104.976 294.288 102.283 292.642 100.962 293.556C99.6411 294.471 101.318 296.686 99.2448 296.727C98.7876 296.727 99.0518 297.407 99.3973 297.438C101.338 297.611 101.125 297.245 101.49 295.67C102.1 293.089 105.941 294.867 108.105 294.268C108.157 294.246 108.203 294.213 108.24 294.171C108.277 294.13 108.304 294.08 108.319 294.026C108.334 293.972 108.336 293.915 108.325 293.86C108.315 293.805 108.292 293.753 108.258 293.709C107.689 292.794 108.349 292.286 109.203 291.89C109.254 291.868 109.3 291.835 109.337 291.794C109.374 291.752 109.401 291.702 109.417 291.649C109.432 291.596 109.436 291.539 109.427 291.484C109.418 291.429 109.397 291.377 109.365 291.331C109.132 290.904 108.349 289.624 108.817 289.024C109.569 288.864 110.334 288.772 111.103 288.75C112.774 288.632 114.449 288.604 116.123 288.669C116.179 288.667 116.234 288.653 116.284 288.626C116.334 288.599 116.376 288.56 116.408 288.513C116.44 288.467 116.46 288.413 116.467 288.357C116.474 288.301 116.467 288.244 116.448 288.191C116.204 287.653 118.378 287.307 118.856 287.175C118.9 287.159 118.941 287.135 118.975 287.103C119.01 287.072 119.038 287.033 119.058 286.991C119.078 286.948 119.089 286.902 119.091 286.856C119.093 286.809 119.086 286.762 119.069 286.718C118.053 284.147 121.843 285.092 123.439 285.346C123.504 285.36 123.572 285.357 123.635 285.337C123.698 285.316 123.755 285.279 123.8 285.23C123.844 285.18 123.875 285.12 123.888 285.054C123.901 284.989 123.897 284.921 123.876 284.858C123.632 283.984 121.711 283.111 123.987 282.826C124.592 282.824 125.188 282.967 125.725 283.243C126.711 284.892 128.072 286.284 129.698 287.307C131.192 288.13 132.746 287.612 131.558 285.854ZM130.856 286.322C131.334 286.952 129.84 286.444 129.657 286.322C128.802 285.809 128.1 285.075 127.625 284.198C128.082 284.452 128.499 284.675 128.804 284.818C129.615 285.119 130.325 285.639 130.856 286.322Z" fill="#455A64"/>
<path d="M155.417 266.131C155.132 265.013 155.091 263.784 156.138 263.652C156.636 263.581 156.28 262.9 155.904 262.89C154.502 262.89 154.065 264.068 154.248 265.532C153.688 265.273 153.102 265.076 152.5 264.942C151.596 264.769 150.996 264.739 150.702 265.674C150.519 266.223 150.966 266.588 150.935 267.086C150.885 267.828 151.616 267.523 150.509 267.808C150.078 267.812 149.649 267.767 149.228 267.676C148.889 267.595 148.535 267.607 148.203 267.711C147.87 267.815 147.571 268.006 147.338 268.265C146.647 268.844 148.354 269.129 146.322 268.803C145.811 268.623 145.268 268.547 144.727 268.58C143.985 268.753 143.589 268.966 143.711 269.789C143.762 270.155 144.564 270.653 144.554 270.887C144.554 272.675 142.624 271.161 141.892 270.887C141.843 270.869 141.791 270.864 141.74 270.869C141.688 270.875 141.639 270.892 141.595 270.919C141.551 270.947 141.514 270.983 141.486 271.027C141.458 271.071 141.441 271.12 141.435 271.171C141.435 272.055 142.024 272.36 140.734 272.441C140.581 272.441 139.717 271.953 139.413 271.953C138.589 271.953 137.838 273.031 136.76 272.97C136.466 272.97 136.364 273.203 136.456 273.447C136.75 274.25 137.187 274.738 135.561 275.479C135.561 275.479 133.651 275.236 133.692 275.236C133.235 275.236 133.529 275.998 133.885 276.018C134.627 276.079 137.136 277.136 137.878 276.14C138.427 275.398 137.35 274.545 137.614 274.108C137.441 274.423 139.047 273.671 139.219 273.61C139.621 273.436 140.045 273.323 140.479 273.274C140.703 273.274 140.886 273.63 141.13 273.63C141.374 273.63 141.77 273.783 142.054 273.63C142.339 273.478 142.41 273.112 142.522 273.031C142.806 272.848 142.156 272.614 142.715 272.431C143.121 272.289 143.477 272.695 143.853 272.817C144.463 273.01 145.377 273.457 145.885 272.817C146.566 271.974 145.326 271.384 145.438 270.785C145.702 269.515 147.47 270.48 148.344 269.911C148.404 269.869 148.448 269.808 148.47 269.739C148.492 269.669 148.491 269.594 148.466 269.525C147.948 267.767 151.139 269.139 152.145 268.956C152.317 268.956 152.51 268.804 152.48 268.59C152.449 268.377 152.084 267.503 152.084 267.483C152.338 266.466 153.791 266.548 154.451 266.731C155.102 268.864 156.798 271.019 158.648 270.439C158.716 270.42 158.775 270.378 158.817 270.321C158.86 270.264 158.882 270.195 158.882 270.124C158.78 268.59 157.134 267.096 155.417 266.131ZM156.077 267.889C155.986 267.728 155.904 267.562 155.833 267.391C156.352 267.721 156.796 268.157 157.134 268.671C157.489 269.738 156.25 268.194 156.118 267.889H156.077Z" fill="#455A64"/>
<path d="M137.452 304.988C136.74 303.901 135.419 303.464 134.281 302.956C133.814 302.742 133.265 302.458 132.747 302.173C132.036 301.025 131.08 299.125 132.34 298.922C133.092 298.779 134.545 299.562 135.389 299.806C135.846 299.938 135.744 299.277 135.389 299.155C134.007 298.607 131.324 296.889 130.796 299.247C130.674 299.983 130.784 300.74 131.111 301.411C130.472 301.129 129.776 301 129.079 301.035C128.428 301.096 127.869 301.106 127.646 301.879C127.514 302.295 127.697 302.478 127.727 302.793C127.754 302.958 127.83 303.111 127.946 303.231C128.063 303.351 128.213 303.432 128.378 303.464C128.135 303.431 127.891 303.411 127.646 303.403C126.63 303.403 123.988 302.722 123.368 303.941C123.114 304.439 123.693 305.14 123.612 305.323C123.531 305.506 121.661 306.055 121.336 306.258C121.183 306.349 121.285 306.878 121.204 306.929C120.263 306.996 119.319 306.996 118.379 306.929C116.824 307.061 112.973 306.482 113.481 308.869C113.532 309.134 113.745 309.093 113.786 309.52C113.803 309.717 113.844 309.911 113.908 310.099C113.847 310.099 113.745 310.099 113.542 310.424C113.339 310.749 112.871 310.546 112.678 310.79C111.947 311.715 113.075 312.04 112.15 312.609C110.86 313.422 108.167 311.776 106.846 312.69C105.677 313.493 107.202 315.82 105.129 315.86C104.671 315.86 104.936 316.541 105.281 316.572C107.222 316.744 107.008 316.379 107.374 314.804C107.984 312.223 111.825 314.001 113.989 313.401C114.233 313.34 114.253 313.025 114.142 312.842C113.573 311.928 114.233 311.42 115.087 311.024C115.138 311.002 115.184 310.969 115.221 310.927C115.258 310.886 115.285 310.836 115.3 310.783C115.316 310.729 115.319 310.673 115.311 310.618C115.302 310.563 115.281 310.511 115.249 310.465C115.016 310.048 114.233 308.758 114.701 308.158C115.453 307.998 116.218 307.906 116.987 307.884C118.657 307.765 120.333 307.738 122.006 307.802C122.063 307.801 122.118 307.786 122.168 307.759C122.217 307.732 122.26 307.694 122.292 307.647C122.323 307.6 122.344 307.547 122.35 307.491C122.357 307.435 122.351 307.378 122.332 307.325C122.088 306.786 124.262 306.441 124.74 306.309C124.785 306.294 124.826 306.27 124.862 306.239C124.897 306.208 124.926 306.169 124.946 306.126C124.966 306.084 124.977 306.037 124.978 305.99C124.979 305.942 124.971 305.895 124.953 305.852C123.937 303.281 127.727 304.226 129.323 304.48C129.388 304.494 129.455 304.491 129.519 304.47C129.582 304.45 129.639 304.413 129.683 304.363C129.728 304.314 129.758 304.253 129.772 304.188C129.785 304.123 129.781 304.055 129.759 303.992C129.516 303.118 127.595 302.244 129.871 301.96C130.475 301.957 131.071 302.1 131.609 302.376C132.595 304.025 133.956 305.418 135.582 306.441C137.086 307.264 138.61 306.725 137.452 304.988ZM136.75 305.455C137.228 306.095 135.734 305.577 135.551 305.455C134.696 304.943 133.994 304.209 133.519 303.332C133.976 303.586 134.393 303.819 134.698 303.951C135.508 304.252 136.219 304.773 136.75 305.455Z" fill="#455A64"/>
<path d="M156.351 287.023C156.067 285.895 156.036 284.665 157.073 284.533C157.571 284.472 157.215 283.791 156.839 283.771C155.437 283.771 155 284.95 155.183 286.413C154.623 286.155 154.037 285.957 153.435 285.824C152.531 285.651 151.941 285.63 151.637 286.555C151.454 287.114 151.901 287.47 151.87 287.978C151.87 288.709 152.551 288.405 151.444 288.699C151.013 288.694 150.584 288.647 150.163 288.557C149.824 288.479 149.471 288.492 149.138 288.596C148.806 288.699 148.508 288.889 148.273 289.146C147.582 289.736 149.289 290.01 147.257 289.685C146.744 289.509 146.203 289.433 145.662 289.461C144.92 289.634 144.524 289.847 144.646 290.67C144.697 291.046 145.499 291.534 145.489 291.768C145.489 293.556 143.558 292.042 142.827 291.768C142.779 291.749 142.727 291.741 142.676 291.745C142.624 291.749 142.575 291.765 142.53 291.792C142.486 291.818 142.449 291.855 142.421 291.898C142.393 291.942 142.375 291.991 142.37 292.042C142.37 292.926 142.959 293.241 141.668 293.312C141.516 293.312 140.652 292.835 140.358 292.825C139.524 292.825 138.772 293.902 137.695 293.841C137.401 293.841 137.299 294.085 137.391 294.318C137.685 295.121 138.122 295.609 136.496 296.351C136.496 296.351 134.586 296.117 134.637 296.117C134.169 296.117 134.464 296.869 134.82 296.899C135.562 296.95 138.071 298.007 138.813 297.011C139.362 296.269 138.285 295.416 138.549 294.979C138.376 295.284 139.982 294.542 140.154 294.481C140.555 294.304 140.98 294.188 141.414 294.135C141.638 294.135 141.821 294.501 142.065 294.491C142.309 294.481 142.715 294.644 143 294.491C143.284 294.339 143.345 293.963 143.457 293.892C143.741 293.699 143.091 293.475 143.65 293.282C144.056 293.14 144.412 293.556 144.788 293.668C145.398 293.861 146.312 294.308 146.82 293.668C147.491 292.825 146.251 292.235 146.363 291.636C146.627 290.366 148.395 291.331 149.269 290.762C149.329 290.72 149.373 290.659 149.395 290.589C149.417 290.52 149.416 290.445 149.391 290.376C148.873 288.618 152.063 289.99 153.069 289.807C153.242 289.807 153.435 289.654 153.405 289.441C153.374 289.228 153.008 288.354 153.008 288.344C153.262 287.327 154.715 287.399 155.386 287.581C156.026 289.715 157.723 291.87 159.573 291.3C159.641 291.279 159.701 291.235 159.743 291.177C159.785 291.118 159.807 291.047 159.806 290.975C159.715 289.451 158.069 288.018 156.351 287.023ZM157.012 288.78C156.951 288.669 156.86 288.486 156.768 288.272C157.287 288.602 157.731 289.039 158.069 289.553C158.424 290.62 157.185 289.075 157.012 288.78Z" fill="#455A64"/>
<path d="M177.984 272.462C178.014 272.321 178.014 272.176 177.984 272.035C177.679 270.938 176.419 271.761 176.206 272.431C175.992 273.102 176.47 273.346 176.429 273.844C176.429 274.575 177.12 274.281 176.013 274.565C175.583 274.559 175.154 274.515 174.732 274.433C173.615 274.382 173.513 274.433 172.842 275.022C172.172 275.612 173.859 275.876 171.826 275.551C171.313 275.379 170.771 275.307 170.231 275.337C169.489 275.5 169.093 275.713 169.215 276.547C169.276 276.912 170.079 277.41 170.068 277.644C170.068 279.422 168.128 277.918 167.406 277.644C167.357 277.625 167.304 277.618 167.251 277.622C167.199 277.627 167.148 277.644 167.102 277.671C167.057 277.699 167.019 277.736 166.991 277.781C166.962 277.825 166.945 277.876 166.939 277.928C166.939 278.802 167.528 279.117 166.248 279.199C166.095 279.199 165.232 278.711 164.927 278.711C164.104 278.711 163.352 279.778 162.275 279.727C161.98 279.727 161.878 279.961 161.96 280.205C162.265 281.007 162.702 281.495 161.076 282.186C161.076 282.186 159.165 281.952 159.206 281.952C158.739 281.952 159.043 282.714 159.399 282.735C160.141 282.796 162.651 283.852 163.392 282.847C163.931 282.115 162.854 281.261 163.128 280.814C162.945 281.129 164.561 280.377 164.734 280.316C165.133 280.145 165.553 280.029 165.984 279.971C166.217 279.971 166.4 280.337 166.634 280.337C166.868 280.337 167.284 280.489 167.569 280.337C167.853 280.184 167.924 279.818 168.036 279.737C168.321 279.554 167.67 279.321 168.229 279.127C168.788 278.934 168.991 279.402 169.367 279.524C169.977 279.717 170.891 280.164 171.4 279.524C172.08 278.68 170.83 278.091 170.952 277.492C171.217 276.221 172.985 277.187 173.859 276.618C173.916 276.574 173.959 276.513 173.979 276.443C173.999 276.374 173.996 276.299 173.97 276.232C173.462 274.474 176.653 275.845 177.649 275.662C177.832 275.662 178.025 275.51 177.994 275.297C177.784 274.561 177.735 273.787 177.852 273.031C177.909 272.844 177.954 272.654 177.984 272.462Z" fill="#455A64"/>
</g>
<path d="M48.703 56.8201C53.4382 62.4799 61.2623 70.1212 65.7028 75.6896C68.0509 78.6043 69.3215 82.24 69.2999 85.9829C69.2999 88.7569 68.5073 91.0635 65.7942 89.8848C63.8331 89.0313 62.5833 88.0152 59.6975 85.2005C57.1267 82.6602 44.6893 70.9747 44.6893 70.9747C44.6893 70.9747 42.3523 56.6576 38.5113 55.489C34.6704 54.3205 31.3984 48.1932 31.3984 48.1932C37.6984 47.6141 42.6977 49.6463 48.703 56.8201Z" fill="#F28F8F"/>
<path d="M91.9893 204.748L114.212 237.264C114.354 237.469 114.556 237.626 114.791 237.711C115.026 237.796 115.281 237.806 115.522 237.739C115.763 237.672 115.976 237.531 116.133 237.336C116.29 237.142 116.382 236.903 116.397 236.654L118.52 197.096L91.9893 204.748Z" fill="#FFA8A7"/>
<path d="M116.397 236.664C116.382 236.913 116.29 237.152 116.133 237.346C115.976 237.541 115.763 237.682 115.522 237.749C115.281 237.816 115.026 237.806 114.791 237.721C114.556 237.636 114.354 237.479 114.212 237.274L109.873 230.923C111.063 231.192 112.303 231.129 113.459 230.74C114.615 230.351 115.642 229.652 116.427 228.718L116.864 228.2L116.397 236.664Z" fill="#263238"/>
<path d="M73.9133 37.0259L74.9295 40.5417L76.1285 44.7687L118.521 197.096C116.443 201.022 112.954 204.014 108.756 205.469C102.497 207.918 95.3027 207.633 91.9699 204.737L49.8007 53.5379L47.5449 45.4089C49.3435 50.6013 75.6001 42.2284 73.9133 37.0259Z" fill="#56008F"/>
<path d="M77.6825 50.3882L79.857 58.2327C80.5683 60.4885 76.1176 63.3133 70.7119 65.3455C63.4771 68.0992 54.4539 69.5218 53.5089 66.5446L51.8628 60.8238L51.3242 58.7915C52.2591 61.7789 61.2822 60.3564 68.517 57.6027C73.7399 55.5704 78.0483 52.9387 77.7333 50.7337C77.7627 50.6163 77.7444 50.4921 77.6825 50.3882Z" fill="#EBEBEB"/>
<path d="M78.2111 52.3489C79.8573 57.5819 53.4888 65.8938 51.7919 60.6608L49.5869 52.8163C51.2432 58.0392 77.6015 49.7679 76.0061 44.5044L78.2111 52.3489Z" fill="#56008F"/>
<path d="M73.9127 37.0259L76.0872 44.7687C77.7435 49.8494 52.3709 58.1714 49.8408 53.5379C49.7844 53.4506 49.7432 53.3544 49.7188 53.2534L47.585 45.4394C49.3429 50.6013 75.5995 42.2284 73.9127 37.0259Z" fill="#EBEBEB"/>
<path opacity="0.1" d="M49.8408 53.5382L47.585 45.4092C48.3775 47.7361 54.1796 47.3093 60.1443 45.653L103.838 206.8L114.263 237.284L92.0404 204.768L49.8408 53.5382Z" fill="black"/>
<path d="M64.6659 4.14419L73.872 37.026C74.5934 39.2513 70.2139 42.1066 64.8183 44.1388C57.5835 46.9129 48.5603 48.4066 47.5442 45.4496L38.7141 13.777C36.0417 6.57272 49.109 -0.509663 57.8274 0.0288827C61.0891 0.211785 63.7107 1.45146 64.6659 4.14419Z" fill="#F28F8F"/>
<path d="M26.1347 42.9906C21.2057 42.9906 16.4785 41.0326 12.9932 37.5472C9.50785 34.0619 7.5498 29.3347 7.5498 24.4057V23.3896C7.5498 19.2124 9.20916 15.2064 12.1628 12.2527C15.1165 9.29901 19.1226 7.63965 23.2997 7.63965H28.9697C33.1468 7.63965 37.1529 9.29901 40.1066 12.2527C43.0603 15.2064 44.7196 19.2124 44.7196 23.3896V24.4057C44.7196 29.3347 42.7616 34.0619 39.2762 37.5472C35.7909 41.0326 31.0637 42.9906 26.1347 42.9906Z" fill="#263238"/>
<path d="M0 44.8804C2.23949 44.8804 4.38725 43.9907 5.9708 42.4072C7.55436 40.8236 8.44399 38.6759 8.44399 36.4364V19.6602C6.20626 19.6602 4.06004 20.5484 2.47678 22.1297C0.893512 23.7111 0.00269281 25.8563 0 28.094V44.8804Z" fill="#263238"/>
<path d="M45.2579 226.838C47.4298 229.113 49.8113 231.178 52.3708 233.006C52.7856 233.259 53.134 233.607 53.3869 234.022C53.7222 234.713 54.2405 236.44 51.0702 237.548C49.467 238.103 47.7631 238.305 46.0745 238.142C44.3859 237.979 42.7523 237.454 41.2849 236.603C38.6836 234.977 38.5617 231.583 36.1026 229.653C34.2838 228.22 32.0381 227.854 30.5444 225.974C29.5283 224.674 29.7823 222.926 30.3209 220.792C30.9001 218.445 31.1744 216.677 31.9467 216.86L31.8146 217.937C32.8307 219.481 37.7996 219.969 40.035 218.872C41.6397 221.614 43.3829 224.273 45.2579 226.838Z" fill="#263238"/>
<path d="M47.4634 229.023C46.7013 228.332 45.9697 227.62 45.2584 226.838C43.7846 224.909 42.4273 222.893 41.1939 220.802C40.2398 219.508 39.6376 217.989 39.4461 216.392C39.3953 214.36 39.5884 210.631 39.5884 210.631L32.1504 210.133L31.7846 217.926C31.5915 219.695 33.0547 221.27 35.6458 223.495C38.237 225.72 41.519 230.923 43.8561 232.234C46.1932 233.544 47.9206 233.493 48.8758 232.823C49.8309 232.152 49.9833 231.604 47.4634 229.023Z" fill="#FFA8A7"/>
<path d="M20.5157 234.266C22.6853 236.543 25.067 238.608 27.6286 240.434C28.0413 240.689 28.3891 241.037 28.6447 241.45C28.9801 242.141 29.4983 243.868 26.328 244.976C24.7248 245.53 23.0209 245.733 21.3323 245.57C19.6437 245.407 18.0101 244.882 16.5427 244.031C13.9312 242.405 13.8195 239.011 11.3605 237.08C9.54159 235.648 7.29596 235.282 5.80225 233.402C4.78613 232.101 5.04016 230.354 5.5787 228.22C6.1579 225.873 6.42209 224.105 7.2045 224.287L7.07241 225.365C8.08853 226.909 13.0574 227.397 15.2929 226.299C16.8938 229.044 18.6371 231.703 20.5157 234.266Z" fill="#263238"/>
<path d="M22.71 236.451C21.9581 235.76 21.2163 235.048 20.5152 234.266C19.0391 232.338 17.6817 230.323 16.4507 228.23C15.5297 226.893 14.9347 225.358 14.7131 223.749C14.5709 221.93 14.7131 218.14 14.7131 218.14H7.27508L7.09218 225.334C6.89912 227.102 8.36234 228.677 10.9535 230.903C13.5446 233.128 16.8165 238.331 19.1637 239.641C21.511 240.952 23.1774 240.901 24.1732 240.231C25.169 239.56 25.2402 239.032 22.71 236.451Z" fill="#FFA8A7"/>
<path d="M7.1131 97.7497C0.640388 111.894 8.00729 165.535 8.00729 165.535C7.81422 167.832 5.79214 171.398 5.54827 178.41C5.24343 187.412 6.8489 220.65 6.8489 220.65C8.14847 221.343 9.59307 221.719 11.0655 221.749C12.5379 221.779 13.9967 221.462 15.3234 220.823C15.3234 220.823 22.9951 175.697 24.4685 163.828C25.7691 153.474 28.279 129.117 28.279 129.117L33.4409 163.777C33.4409 163.777 30.7888 169.559 30.6567 174.782C30.4636 181.793 31.5001 214.34 31.5001 214.34C31.5001 214.34 34.6399 215.437 40.1168 214.634C40.1168 214.634 47.9206 170.596 48.6523 162.192C49.0892 157.173 45.3397 95.626 45.3397 95.626L7.1131 97.7497Z" fill="#37474F"/>
<path d="M28.2988 129.118L30.4022 117.554C30.4022 117.554 39.2628 115.695 43.3273 111.915C43.3273 111.915 39.0901 117.188 32.8104 118.905L30.4429 129.067L32.7799 159.296L28.2988 129.118Z" fill="#263238"/>
<path d="M19.764 48.5488C14.0737 49.3312 11.0254 50.581 9.19634 55.9259C7.99731 59.4213 8.32247 64.5629 9.53165 68.0584L14.4903 82.5686C11.4929 87.3491 9.0196 92.4388 7.11328 97.7495C21.6439 105.879 40.9909 101.54 45.3602 95.6258C45.5431 94.376 44.3441 88.3097 44.72 81.8777C45.096 75.0087 46.1934 67.1337 45.1163 62.8965C43.0841 55.0215 37.6173 49.8799 31.4291 48.2236L19.764 48.5488Z" fill="#F5F5F5"/>
<path d="M38.6124 15.1489C40.5735 16.3073 43.002 21.2457 42.7581 31.5898C42.5549 40.3691 39.7098 42.5335 38.2872 43.1533C36.8646 43.7731 34.1008 43.3972 31.4284 42.9602V48.2238C31.4284 48.2238 35.127 52.522 34.8933 54.9302C34.6596 57.3384 29.5485 57.9176 26.0937 55.5602C23.851 53.9571 21.925 51.9519 20.4136 49.6463V36.8838C20.4136 36.8838 18.6049 39.3022 15.6479 37.3309C12.691 35.3596 12.5996 30.5127 14.2965 28.765C15.9934 27.0172 19.7226 27.5761 20.3932 29.9843C20.3932 29.9843 24.661 30.1469 30.3411 27.0173C32.5569 25.83 34.461 24.1362 35.8983 22.0738C37.3356 20.0114 38.2655 17.6387 38.6124 15.1489Z" fill="#FFA8A7"/>
<path d="M32.9629 29.3849C32.9755 29.5304 32.959 29.677 32.9147 29.8162C32.8703 29.9554 32.7988 30.0844 32.7044 30.1959C32.6099 30.3073 32.4944 30.399 32.3644 30.4656C32.2343 30.5322 32.0924 30.5724 31.9468 30.5839C31.7181 30.6101 31.4868 30.5669 31.283 30.46C31.0791 30.3531 30.9121 30.1874 30.8036 29.9844C30.695 29.7814 30.6501 29.5505 30.6744 29.3216C30.6988 29.0927 30.7914 28.8764 30.9402 28.7008C31.089 28.5252 31.2872 28.3984 31.509 28.3368C31.7308 28.2752 31.966 28.2817 32.1841 28.3554C32.4021 28.4292 32.593 28.5668 32.7319 28.7503C32.8707 28.9339 32.9513 29.155 32.9629 29.3849Z" fill="#263238"/>
<path d="M33.2577 36.8228L35.8285 37.6458C35.7819 37.817 35.7013 37.977 35.5915 38.1164C35.4817 38.2557 35.345 38.3715 35.1894 38.4569C35.0339 38.5422 34.8628 38.5954 34.6863 38.6131C34.5098 38.6309 34.3315 38.613 34.1621 38.5603C33.8159 38.4438 33.5284 38.1978 33.3597 37.8738C33.1911 37.5498 33.1545 37.1731 33.2577 36.8228Z" fill="#F28F8F"/>
<path d="M42.0167 26.0009L39.7812 24.4564C39.874 24.3058 39.9964 24.1758 40.1411 24.0742C40.2858 23.9725 40.4497 23.9015 40.6228 23.8653C40.7959 23.8292 40.9745 23.8287 41.1478 23.864C41.3211 23.8992 41.4854 23.9694 41.6306 24.0703C41.9295 24.2818 42.136 24.5997 42.2078 24.9587C42.2796 25.3178 42.2112 25.6907 42.0167 26.0009Z" fill="#263238"/>
<path d="M41.4983 28.592C41.5001 28.8092 41.4379 29.0222 41.3195 29.2044C41.2011 29.3866 41.0318 29.53 40.8325 29.6166C40.6333 29.7033 40.413 29.7294 40.199 29.6918C39.985 29.6542 39.7868 29.5545 39.629 29.405C39.4713 29.2556 39.361 29.0631 39.3119 28.8514C39.2628 28.6398 39.277 28.4184 39.3527 28.2147C39.4285 28.0111 39.5625 27.8342 39.738 27.7062C39.9136 27.5781 40.1229 27.5045 40.3399 27.4946C40.4881 27.4905 40.6355 27.5157 40.7739 27.5686C40.9123 27.6216 41.0389 27.7013 41.1465 27.8032C41.2541 27.9052 41.3405 28.0273 41.4009 28.1626C41.4613 28.2979 41.4944 28.4438 41.4983 28.592Z" fill="#263238"/>
<path d="M36.2959 27.9619L36.4686 34.5972L39.9641 33.5201L36.2959 27.9619Z" fill="#F28F8F"/>
<path d="M31.4287 42.9599C28.6039 42.584 22.8018 40.9277 21.8975 38.6211C22.2609 39.7808 22.97 40.8019 23.9297 41.5475C25.6673 43.0412 31.4287 44.7077 31.4287 44.7077V42.9599Z" fill="#F28F8F"/>
<path d="M76.0775 91.3072C74.3501 91.9575 72.6227 91.9981 70.2653 93.1159C68.714 94.0021 66.9702 94.4974 65.1846 94.5588C62.878 94.6705 56.4053 91.9169 50.7252 89.2648C44.5755 86.2794 38.9809 82.2655 34.1827 77.3964C29.3596 71.6776 25.077 65.524 21.3897 59.0147C19.3574 55.5498 17.3252 50.5098 14.0838 49.8696C8.49507 50.459 6.21896 60.1935 9.84652 66.2089C13.4741 72.2244 19.8757 80.1298 26.7548 86.7752C30.0877 90.0065 36.1946 93.502 44.9333 97.2515C50.6492 99.7395 56.5505 101.778 62.5834 103.348C64.3413 103.806 65.5708 104.456 68.863 105.584C70.1939 106.126 71.5978 106.469 73.0291 106.6C74.8081 106.669 76.5878 106.481 78.313 106.041C80.5022 105.49 82.5028 104.36 84.1049 102.769C84.975 101.889 85.626 100.817 86.005 99.6394C86.3922 98.4535 86.3491 97.1691 85.8831 96.0118C85.7938 95.7763 85.6471 95.5667 85.4563 95.4021C85.0542 95.1881 84.586 95.1336 84.1455 95.2497C81.6175 95.7889 79.0637 96.1992 76.4941 96.4792C74.3602 96.5605 72.8564 96.3268 73.1206 95.9915C73.3848 95.6562 74.6447 95.6968 76.2502 94.7823C77.8557 93.8678 78.7905 92.1404 78.2317 91.3072C77.6728 90.4739 77.8049 90.6568 76.0775 91.3072Z" fill="#FFA8A7"/>
<path d="M80.7819 67.835C80.7819 67.835 78.4651 65.9958 74.0755 66.7173C71.9518 67.0729 72.7647 75.1105 79.6032 77.3561C84.0538 78.8193 84.9582 78.0674 86.3909 81.7254C86.3909 81.7254 89.0836 81.1666 88.4231 77.0716C87.712 72.8601 85.8359 68.9318 83.0072 65.7316C81.0461 63.4149 80.914 61.4639 79.9588 62.1244C79.0037 62.7849 79.5321 64.7866 79.5321 64.7866L80.7819 67.835Z" fill="#FFA8A7"/>
</svg>
