<svg width="1440" height="502" viewBox="0 0 1440 502" fill="none" xmlns="http://www.w3.org/2000/svg">
<path fill-rule="evenodd" clip-rule="evenodd" d="M0 9.82954L60 5.2338C120 0.638046 240 -8.55345 360 19.021C480 46.5955 600 110.936 720 147.702C840 184.468 960 193.66 1080 175.277C1200 156.894 1320 110.936 1380 87.9573L1440 64.9785V258H1380C1320 258 1200 258 1080 258C960 258 840 258 720 258C600 258 480 258 360 258C240 258 120 258 60 258H0V9.82954Z" fill="#FDC500"/>
<rect width="1440" height="181.006" transform="translate(0 258)" fill="#FDC500"/>
<path d="M229.495 377.424C231.665 377.424 233.11 375.908 233.11 373.816V351.85C238.172 356.924 245.18 359.905 252.911 359.905C260.254 359.905 267.152 357.081 272.102 352.425C277.051 347.771 280 341.339 280 334.435C280 327.48 277.051 320.943 272.102 316.288C267.152 311.634 260.254 308.81 252.911 308.81C245.569 308.81 238.673 311.634 233.723 316.288C228.661 320.943 225.712 327.48 225.712 334.435V373.816C225.712 375.855 227.436 377.424 229.495 377.424ZM252.911 352.948C247.517 352.948 242.51 350.961 238.895 347.457C235.28 344.058 233.11 339.404 233.11 334.435C233.11 329.415 235.28 324.708 238.895 321.309C242.51 317.909 247.517 315.871 252.911 315.871C258.307 315.871 263.313 317.909 266.928 321.309C270.544 324.708 272.658 329.415 272.658 334.435C272.658 339.404 270.544 344.058 266.928 347.457C263.313 350.961 258.418 352.948 252.911 352.948Z" fill="#6822A4"/>
<path d="M85.0149 371.11C87.858 371.11 90.0881 369.066 90.0881 366.393V322.374C90.0881 319.492 91.2575 316.925 93.3205 314.985C95.3268 313.099 98.1132 311.946 101.179 311.946C104.244 311.946 106.975 313.047 109.037 314.985C111.043 316.872 112.269 319.545 112.269 322.27V366.341C112.269 369.013 114.444 371.11 117.285 371.11C120.184 371.11 122.414 369.013 122.414 366.341V322.374C122.414 319.597 123.583 316.925 125.59 315.037C127.597 313.099 130.272 311.946 133.337 311.946C136.403 311.946 139.246 313.047 141.252 314.985C143.313 316.925 144.484 319.492 144.484 322.374V366.393C144.484 369.066 146.77 371.11 149.611 371.11C152.454 371.11 154.684 369.066 154.684 366.393V322.008C154.684 316.609 152.342 311.632 148.497 307.911C144.54 304.19 139.134 302.042 133.392 302.042C126.984 302.042 121.298 304.767 117.342 309.221C113.273 304.661 107.531 302.042 101.123 302.042C95.3819 302.042 90.0313 304.19 86.1859 307.911C82.2285 311.632 80 316.558 80 322.008V366.393C80 369.066 82.1733 371.11 85.0149 371.11Z" fill="#56008F"/>
<path d="M102.042 413.335C102.686 413.335 103.225 412.844 103.225 412.24V397.856C103.225 396.826 103.642 395.911 104.389 395.208C105.103 394.538 106.128 394.146 107.189 394.146C108.249 394.146 109.24 394.553 109.988 395.256C110.7 395.927 111.153 396.876 111.153 397.856V412.223C111.153 412.828 111.657 413.335 112.335 413.335C113.013 413.335 113.551 412.828 113.551 412.223V397.872C113.551 396.891 113.986 395.927 114.682 395.256C115.394 394.553 116.367 394.146 117.463 394.146C118.558 394.146 119.567 394.553 120.279 395.224C121.027 395.927 121.443 396.842 121.443 397.872V412.24C121.443 412.844 121.982 413.335 122.66 413.335C123.304 413.335 123.842 412.844 123.842 412.24V397.791C123.842 396.173 123.164 394.669 122 393.573C120.835 392.478 119.218 391.825 117.48 391.825C115.394 391.825 113.569 392.789 112.335 394.358C111.101 392.789 109.274 391.825 107.189 391.825C105.468 391.825 103.887 392.463 102.704 393.573C101.54 394.669 100.844 396.173 100.844 397.791V412.24C100.844 412.844 101.364 413.335 102.042 413.335Z" fill="#56008F"/>
<path d="M135.155 413.531C136.076 413.531 136.893 413.449 137.641 413.269C138.232 413.123 138.858 412.877 139.536 412.517C139.9 412.321 140.092 412.028 140.092 411.634C140.092 411.046 139.587 410.491 138.961 410.491C138.718 410.491 138.475 410.556 138.249 410.687C137.711 410.965 137.258 411.16 136.858 411.259C136.423 411.374 135.851 411.439 135.155 411.439C133.677 411.439 132.286 410.916 131.191 410.016C130.13 409.118 129.418 407.907 129.227 406.552H142.543C143.22 406.552 143.673 406.094 143.673 405.506C143.655 403.364 142.7 401.353 141.153 399.898C139.57 398.443 137.432 397.562 135.155 397.562C132.86 397.562 130.704 398.443 129.157 399.898C127.576 401.387 126.655 403.397 126.655 405.554C126.655 407.712 127.576 409.739 129.157 411.194C130.704 412.648 132.86 413.531 135.155 413.531ZM129.157 404.72C129.314 403.348 130.026 402.056 131.087 401.141C132.182 400.209 133.608 399.654 135.189 399.654C136.736 399.654 138.197 400.193 139.31 401.109C140.423 402.024 141.117 403.282 141.308 404.72H129.157Z" fill="#56008F"/>
<path d="M147.25 413.335C147.876 413.335 148.399 412.877 148.415 412.24L148.451 402.645V402.547C148.433 402.53 148.433 402.498 148.433 402.465C148.502 401.747 148.885 401.044 149.441 400.536C150.014 400.03 150.762 399.735 151.579 399.735C152.466 399.735 153.248 400.063 153.822 400.65C154.395 401.239 154.726 402.007 154.726 402.808V412.223C154.726 412.829 155.23 413.318 155.872 413.318C156.498 413.318 157.038 412.829 157.038 412.223V402.628C157.021 402.613 157.021 402.579 157.021 402.547C157.072 401.795 157.385 401.141 157.994 400.569C158.568 400.046 159.316 399.752 160.131 399.752C161.018 399.752 161.836 400.078 162.41 400.65C162.983 401.224 163.331 402.007 163.331 402.793V412.24C163.331 412.877 163.852 413.335 164.496 413.335C165.122 413.335 165.66 412.877 165.66 412.24V402.613C165.66 401.224 165.052 399.949 164.009 398.983C162.983 398.052 161.575 397.497 160.115 397.497C158.428 397.497 156.863 398.248 155.838 399.474C154.777 398.248 153.214 397.497 151.527 397.497C150.05 397.497 148.71 398.036 147.685 399C146.66 399.964 146.086 401.239 146.086 402.628V412.24C146.086 412.877 146.608 413.335 147.25 413.335Z" fill="#56008F"/>
<path d="M176.33 413.531C178.642 413.531 180.798 412.648 182.345 411.194C183.892 409.739 184.814 407.729 184.814 405.571C184.814 403.397 183.892 401.387 182.345 399.898C180.798 398.443 178.642 397.562 176.33 397.562C174.035 397.562 171.931 398.411 170.35 399.898C168.768 401.353 167.847 403.397 167.847 405.571C167.847 407.729 168.768 409.739 170.35 411.194C171.931 412.68 174.035 413.531 176.33 413.531ZM176.33 411.357C174.644 411.357 173.097 410.736 171.967 409.641C170.836 408.578 170.158 407.123 170.158 405.571C170.158 404.002 170.836 402.53 171.967 401.467C173.097 400.406 174.644 399.769 176.33 399.769C178.016 399.769 179.598 400.406 180.728 401.467C181.841 402.53 182.501 404.002 182.501 405.571C182.501 407.123 181.841 408.578 180.728 409.641C179.598 410.736 178.05 411.357 176.33 411.357Z" fill="#56008F"/>
<path d="M188.34 413.335C188.964 413.335 189.451 412.877 189.451 412.24V405.897C189.451 404.247 190.182 402.661 191.381 401.533C192.581 400.406 194.214 399.735 195.935 399.735H196.074C196.77 399.735 197.275 399.294 197.275 398.657C197.275 398.003 196.822 397.562 196.074 397.562H195.935C193.572 397.562 191.381 398.46 189.73 400.013C188.113 401.567 187.14 403.659 187.14 405.897V412.24C187.14 412.877 187.696 413.335 188.34 413.335Z" fill="#56008F"/>
<path d="M214.621 418.205C215.299 418.205 215.821 417.748 215.821 417.11V398.657C215.821 398.019 215.283 397.528 214.639 397.528C214.013 397.528 213.474 398.019 213.474 398.657V405.505C213.474 406.992 212.813 408.415 211.702 409.412C210.571 410.442 209.042 411.046 207.495 411.046C205.912 411.046 204.4 410.442 203.287 409.412C202.175 408.415 201.513 406.992 201.513 405.505V398.657C201.513 398.019 200.975 397.528 200.349 397.528C199.671 397.528 199.15 398.019 199.15 398.657V405.423C199.15 407.564 200.053 409.51 201.601 410.965C203.13 412.403 205.252 413.252 207.495 413.252C209.858 413.252 211.945 412.191 213.474 410.474V417.11C213.474 417.748 213.979 418.205 214.621 418.205Z" fill="#56008F"/>
<path d="M227.257 413.531C229.831 413.531 231.986 412.632 233.446 411.079C234.854 409.591 235.636 407.549 235.636 405.374V392.903C235.636 392.266 235.079 391.792 234.437 391.792C233.759 391.792 233.237 392.266 233.237 392.903V405.309C233.237 407.026 232.646 408.545 231.586 409.608C230.491 410.703 229.03 411.308 227.309 411.308C225.64 411.308 224.198 410.719 223.207 409.69C222.216 408.661 221.642 407.206 221.642 405.522V392.903C221.642 392.266 221.086 391.792 220.443 391.792C219.765 391.792 219.243 392.266 219.243 392.903V405.669C219.243 407.744 219.973 409.707 221.347 411.128C222.79 412.632 224.771 413.531 227.257 413.531Z" fill="#6822A4"/>
<path d="M240.587 419.006C241.265 419.006 241.716 418.532 241.716 417.879V411.014C243.299 412.6 245.489 413.531 247.905 413.531C250.2 413.531 252.356 412.648 253.903 411.194C255.45 409.739 256.371 407.729 256.371 405.571C256.371 403.397 255.45 401.353 253.903 399.898C252.356 398.443 250.2 397.562 247.905 397.562C245.61 397.562 243.455 398.443 241.907 399.898C240.326 401.353 239.405 403.397 239.405 405.571V417.879C239.405 418.516 239.943 419.006 240.587 419.006ZM247.905 411.357C246.22 411.357 244.655 410.736 243.524 409.641C242.396 408.578 241.716 407.123 241.716 405.571C241.716 404.002 242.396 402.53 243.524 401.467C244.655 400.406 246.22 399.769 247.905 399.769C249.592 399.769 251.157 400.406 252.286 401.467C253.416 402.53 254.076 404.002 254.076 405.571C254.076 407.123 253.416 408.578 252.286 409.641C251.157 410.736 249.626 411.357 247.905 411.357Z" fill="#6822A4"/>
<mask id="mask0_296_6783" style="mask-type:luminance" maskUnits="userSpaceOnUse" x="191" y="290" width="31" height="26">
<path d="M191.793 290.297H221.688V315.282H191.793V290.297Z" fill="white"/>
</mask>
<g mask="url(#mask0_296_6783)">
<mask id="mask1_296_6783" style="mask-type:luminance" maskUnits="userSpaceOnUse" x="191" y="288" width="32" height="28">
<path d="M222.326 311.997L194.349 315.041L191.976 291.848L219.954 288.804L222.326 311.997Z" fill="white"/>
</mask>
<g mask="url(#mask1_296_6783)">
<mask id="mask2_296_6783" style="mask-type:luminance" maskUnits="userSpaceOnUse" x="163" y="289" width="62" height="50">
<path d="M224.366 331.954L167.912 338.097L163.538 295.319L219.992 289.175L224.366 331.954Z" fill="white"/>
</mask>
<g mask="url(#mask2_296_6783)">
<path d="M206.058 305.185C205.658 305.763 205.349 306.268 204.984 306.729C203.766 308.254 202.6 309.832 201.274 311.255C199.845 312.79 197.552 312.667 195.944 311.244C195.543 310.892 194.894 310.837 194.294 310.626C193.982 310.021 194.54 309.678 194.865 309.284C197.817 305.714 199.978 301.641 201.775 297.376C202.464 295.744 202.857 293.975 203.329 292.254C203.698 290.901 203.744 290.709 205.128 290.674C207.596 290.61 209.817 291.237 211.58 293.24C214.652 296.719 217.917 300.019 220.362 304.034C220.758 304.687 221.074 305.393 221.639 306.477C219.593 306.321 217.942 306.517 216.712 304.984C215.96 304.045 215.194 303.122 214.156 301.841C214.077 303.314 214.037 304.331 213.964 305.341C213.416 312.955 211.19 320.011 206.248 325.742C201.753 330.96 196.242 334.829 189.246 335.68C183.371 336.392 178.077 334.562 173.272 331.219C171.349 329.877 169.661 328.166 167.912 326.573C167.458 326.16 167.17 325.56 166.806 325.042C166.914 324.911 167.02 324.78 167.127 324.648C167.897 325.033 168.691 325.376 169.425 325.821C169.885 326.1 170.261 326.527 170.661 326.904C175.782 331.744 181.705 332.54 188.104 330.375C192.99 328.722 196.837 325.492 199.92 321.304C203.178 316.889 205.184 311.889 206.133 306.431C206.177 306.187 206.208 305.942 206.22 305.696C206.219 305.586 206.151 305.475 206.058 305.185Z" fill="#6822A4"/>
</g>
</g>
</g>
<path d="M186.718 371.875C195.006 371.875 201.792 369.104 206.63 364.136C211.247 359.324 213.75 352.63 213.75 345.098V307.026C213.75 305.719 213.249 304.621 212.248 303.679C211.19 302.79 210.023 302.32 208.688 302.32C205.796 302.32 203.571 304.359 203.571 307.026V344.942C203.571 350.014 201.959 354.408 199.01 357.546C196.118 360.683 191.835 362.461 186.94 362.461C182.1 362.461 178.208 360.945 175.259 357.912C172.367 354.983 170.865 350.643 170.865 345.412V307.026C170.865 304.359 168.64 302.32 165.748 302.32C162.912 302.32 160.742 304.359 160.742 307.026V346.04C160.742 353.153 163.079 359.533 167.528 364.187C172.145 369.05 178.707 371.875 186.718 371.875Z" fill="#6822A4"/>
<rect width="1440" height="63" transform="translate(0 439.006)" fill="#FDC500"/>
<path d="M573.537 468.154H571.764C571.696 467.775 571.569 467.441 571.384 467.154C571.198 466.866 570.971 466.621 570.702 466.421C570.433 466.22 570.132 466.068 569.798 465.966C569.469 465.864 569.118 465.813 568.747 465.813C568.077 465.813 567.476 465.981 566.946 466.318C566.42 466.655 566.003 467.15 565.696 467.801C565.393 468.453 565.241 469.248 565.241 470.188C565.241 471.135 565.393 471.934 565.696 472.585C566.003 473.237 566.421 473.729 566.952 474.063C567.482 474.396 568.079 474.563 568.741 474.563C569.109 474.563 569.457 474.513 569.787 474.415C570.12 474.313 570.421 474.163 570.69 473.966C570.959 473.769 571.187 473.529 571.372 473.244C571.562 472.957 571.692 472.627 571.764 472.256L573.537 472.262C573.442 472.834 573.259 473.36 572.986 473.841C572.717 474.318 572.37 474.731 571.946 475.08C571.526 475.424 571.045 475.691 570.503 475.881C569.961 476.07 569.37 476.165 568.73 476.165C567.723 476.165 566.825 475.926 566.037 475.449C565.249 474.968 564.628 474.28 564.173 473.387C563.723 472.493 563.497 471.426 563.497 470.188C563.497 468.945 563.724 467.879 564.179 466.989C564.634 466.095 565.255 465.409 566.043 464.932C566.83 464.451 567.726 464.21 568.73 464.21C569.348 464.21 569.923 464.299 570.457 464.477C570.995 464.652 571.478 464.909 571.906 465.25C572.334 465.587 572.688 466 572.969 466.489C573.249 466.974 573.438 467.529 573.537 468.154ZM575.501 476.006V467.279H577.143V468.665H577.234C577.393 468.195 577.674 467.826 578.075 467.557C578.481 467.284 578.939 467.148 579.45 467.148C579.556 467.148 579.681 467.152 579.825 467.159C579.973 467.167 580.089 467.176 580.172 467.188V468.813C580.104 468.794 579.982 468.773 579.808 468.75C579.634 468.724 579.46 468.71 579.286 468.71C578.884 468.71 578.526 468.796 578.212 468.966C577.901 469.133 577.655 469.366 577.473 469.665C577.291 469.96 577.2 470.298 577.2 470.676V476.006H575.501ZM581.642 476.006V467.279H583.341V476.006H581.642ZM582.5 465.932C582.205 465.932 581.951 465.834 581.739 465.637C581.53 465.436 581.426 465.197 581.426 464.921C581.426 464.64 581.53 464.402 581.739 464.205C581.951 464.004 582.205 463.904 582.5 463.904C582.795 463.904 583.047 464.004 583.256 464.205C583.468 464.402 583.574 464.64 583.574 464.921C583.574 465.197 583.468 465.436 583.256 465.637C583.047 465.834 582.795 465.932 582.5 465.932ZM588.166 476.199C587.613 476.199 587.113 476.097 586.666 475.892C586.219 475.684 585.865 475.383 585.604 474.989C585.346 474.595 585.217 474.112 585.217 473.54C585.217 473.048 585.312 472.642 585.501 472.324C585.691 472.006 585.946 471.754 586.268 471.568C586.59 471.383 586.95 471.243 587.348 471.148C587.746 471.053 588.151 470.981 588.564 470.932C589.087 470.871 589.511 470.822 589.837 470.784C590.162 470.743 590.399 470.676 590.547 470.585C590.695 470.494 590.768 470.347 590.768 470.142V470.102C590.768 469.606 590.628 469.222 590.348 468.949C590.071 468.676 589.659 468.54 589.109 468.54C588.537 468.54 588.087 468.667 587.757 468.921C587.431 469.171 587.206 469.449 587.081 469.756L585.484 469.392C585.674 468.862 585.95 468.434 586.314 468.108C586.681 467.779 587.104 467.54 587.581 467.392C588.058 467.241 588.56 467.165 589.087 467.165C589.435 467.165 589.804 467.207 590.195 467.29C590.589 467.369 590.956 467.517 591.297 467.733C591.642 467.949 591.924 468.258 592.143 468.659C592.363 469.057 592.473 469.574 592.473 470.21V476.006H590.814V474.813H590.746C590.636 475.032 590.471 475.248 590.251 475.46C590.032 475.673 589.75 475.849 589.405 475.989C589.06 476.129 588.647 476.199 588.166 476.199ZM588.536 474.835C589.005 474.835 589.407 474.743 589.74 474.557C590.077 474.371 590.333 474.129 590.507 473.83C590.685 473.527 590.774 473.203 590.774 472.858V471.733C590.714 471.794 590.596 471.851 590.422 471.904C590.251 471.953 590.056 471.996 589.837 472.034C589.617 472.068 589.403 472.101 589.195 472.131C588.986 472.157 588.812 472.18 588.672 472.199C588.342 472.241 588.041 472.311 587.768 472.409C587.5 472.508 587.284 472.65 587.121 472.835C586.962 473.017 586.882 473.26 586.882 473.563C586.882 473.983 587.037 474.301 587.348 474.517C587.659 474.729 588.054 474.835 588.536 474.835ZM598.003 476.176C597.298 476.176 596.67 475.996 596.116 475.637C595.567 475.273 595.135 474.756 594.821 474.085C594.51 473.411 594.355 472.602 594.355 471.659C594.355 470.716 594.512 469.909 594.827 469.239C595.145 468.568 595.58 468.055 596.134 467.699C596.687 467.343 597.313 467.165 598.014 467.165C598.556 467.165 598.991 467.256 599.321 467.438C599.654 467.616 599.912 467.824 600.094 468.063C600.279 468.301 600.423 468.512 600.526 468.693H600.628V464.369H602.327V476.006H600.668V474.648H600.526C600.423 474.834 600.276 475.046 600.082 475.284C599.893 475.523 599.632 475.731 599.298 475.909C598.965 476.087 598.533 476.176 598.003 476.176ZM598.378 474.727C598.866 474.727 599.279 474.599 599.616 474.341C599.957 474.08 600.215 473.718 600.389 473.256C600.567 472.794 600.656 472.256 600.656 471.642C600.656 471.036 600.569 470.506 600.395 470.051C600.221 469.597 599.965 469.243 599.628 468.989C599.291 468.735 598.874 468.608 598.378 468.608C597.866 468.608 597.44 468.741 597.099 469.006C596.759 469.271 596.501 469.633 596.327 470.091C596.156 470.549 596.071 471.066 596.071 471.642C596.071 472.226 596.158 472.75 596.332 473.216C596.507 473.682 596.764 474.051 597.105 474.324C597.45 474.593 597.874 474.727 598.378 474.727ZM608.428 476.182C607.609 476.182 606.895 475.994 606.286 475.619C605.676 475.244 605.202 474.72 604.865 474.046C604.528 473.371 604.359 472.584 604.359 471.682C604.359 470.777 604.528 469.985 604.865 469.307C605.202 468.629 605.676 468.102 606.286 467.727C606.895 467.352 607.609 467.165 608.428 467.165C609.246 467.165 609.96 467.352 610.57 467.727C611.179 468.102 611.653 468.629 611.99 469.307C612.327 469.985 612.496 470.777 612.496 471.682C612.496 472.584 612.327 473.371 611.99 474.046C611.653 474.72 611.179 475.244 610.57 475.619C609.96 475.994 609.246 476.182 608.428 476.182ZM608.433 474.756C608.964 474.756 609.403 474.616 609.751 474.335C610.1 474.055 610.357 473.682 610.524 473.216C610.695 472.75 610.78 472.237 610.78 471.676C610.78 471.119 610.695 470.608 610.524 470.142C610.357 469.673 610.1 469.296 609.751 469.012C609.403 468.727 608.964 468.585 608.433 468.585C607.899 468.585 607.456 468.727 607.104 469.012C606.755 469.296 606.496 469.673 606.325 470.142C606.159 470.608 606.075 471.119 606.075 471.676C606.075 472.237 606.159 472.75 606.325 473.216C606.496 473.682 606.755 474.055 607.104 474.335C607.456 474.616 607.899 474.756 608.433 474.756ZM622.388 476.182C621.528 476.182 620.787 475.998 620.166 475.631C619.549 475.26 619.071 474.739 618.734 474.068C618.401 473.394 618.234 472.604 618.234 471.699C618.234 470.805 618.401 470.017 618.734 469.335C619.071 468.654 619.541 468.121 620.143 467.739C620.75 467.356 621.458 467.165 622.268 467.165C622.761 467.165 623.238 467.246 623.7 467.409C624.162 467.572 624.577 467.828 624.945 468.176C625.312 468.525 625.602 468.977 625.814 469.534C626.026 470.087 626.132 470.76 626.132 471.551V472.154H619.195V470.881H624.467C624.467 470.434 624.376 470.038 624.195 469.693C624.013 469.345 623.757 469.07 623.428 468.869C623.102 468.669 622.719 468.568 622.28 468.568C621.803 468.568 621.386 468.686 621.03 468.921C620.678 469.152 620.405 469.455 620.212 469.83C620.022 470.201 619.928 470.604 619.928 471.04V472.034C619.928 472.618 620.03 473.114 620.234 473.523C620.443 473.932 620.732 474.244 621.104 474.46C621.475 474.673 621.909 474.779 622.405 474.779C622.727 474.779 623.02 474.733 623.286 474.642C623.551 474.548 623.78 474.407 623.973 474.222C624.166 474.036 624.314 473.807 624.416 473.534L626.024 473.824C625.895 474.298 625.664 474.712 625.331 475.068C625.001 475.421 624.587 475.695 624.087 475.892C623.59 476.085 623.024 476.182 622.388 476.182ZM635.518 476.176C634.814 476.176 634.185 475.996 633.632 475.637C633.083 475.273 632.651 474.756 632.337 474.085C632.026 473.411 631.871 472.602 631.871 471.659C631.871 470.716 632.028 469.909 632.342 469.239C632.661 468.568 633.096 468.055 633.649 467.699C634.202 467.343 634.829 467.165 635.53 467.165C636.071 467.165 636.507 467.256 636.837 467.438C637.17 467.616 637.428 467.824 637.609 468.063C637.795 468.301 637.939 468.512 638.041 468.693H638.143V464.369H639.842V476.006H638.183V474.648H638.041C637.939 474.834 637.791 475.046 637.598 475.284C637.409 475.523 637.147 475.731 636.814 475.909C636.481 476.087 636.049 476.176 635.518 476.176ZM635.893 474.727C636.382 474.727 636.795 474.599 637.132 474.341C637.473 474.08 637.731 473.718 637.905 473.256C638.083 472.794 638.172 472.256 638.172 471.642C638.172 471.036 638.085 470.506 637.911 470.051C637.736 469.597 637.481 469.243 637.143 468.989C636.806 468.735 636.39 468.608 635.893 468.608C635.382 468.608 634.956 468.741 634.615 469.006C634.274 469.271 634.017 469.633 633.842 470.091C633.672 470.549 633.587 471.066 633.587 471.642C633.587 472.226 633.674 472.75 633.848 473.216C634.022 473.682 634.28 474.051 634.621 474.324C634.965 474.593 635.39 474.727 635.893 474.727ZM646.028 476.182C645.169 476.182 644.428 475.998 643.807 475.631C643.189 475.26 642.712 474.739 642.375 474.068C642.042 473.394 641.875 472.604 641.875 471.699C641.875 470.805 642.042 470.017 642.375 469.335C642.712 468.654 643.182 468.121 643.784 467.739C644.39 467.356 645.098 467.165 645.909 467.165C646.402 467.165 646.879 467.246 647.341 467.409C647.803 467.572 648.218 467.828 648.585 468.176C648.953 468.525 649.242 468.977 649.455 469.534C649.667 470.087 649.773 470.76 649.773 471.551V472.154H642.835V470.881H648.108C648.108 470.434 648.017 470.038 647.835 469.693C647.653 469.345 647.398 469.07 647.068 468.869C646.742 468.669 646.36 468.568 645.92 468.568C645.443 468.568 645.027 468.686 644.67 468.921C644.318 469.152 644.045 469.455 643.852 469.83C643.663 470.201 643.568 470.604 643.568 471.04V472.034C643.568 472.618 643.67 473.114 643.875 473.523C644.083 473.932 644.373 474.244 644.744 474.46C645.116 474.673 645.549 474.779 646.045 474.779C646.367 474.779 646.661 474.733 646.926 474.642C647.191 474.548 647.42 474.407 647.614 474.222C647.807 474.036 647.955 473.807 648.057 473.534L649.665 473.824C649.536 474.298 649.305 474.712 648.972 475.068C648.642 475.421 648.227 475.695 647.727 475.892C647.231 476.085 646.665 476.182 646.028 476.182ZM658.197 469.409L656.658 469.682C656.593 469.485 656.491 469.298 656.351 469.119C656.214 468.941 656.029 468.796 655.794 468.682C655.559 468.568 655.266 468.512 654.913 468.512C654.432 468.512 654.031 468.619 653.709 468.835C653.387 469.048 653.226 469.322 653.226 469.659C653.226 469.951 653.334 470.186 653.55 470.364C653.766 470.542 654.114 470.688 654.595 470.801L655.982 471.119C656.785 471.305 657.383 471.591 657.777 471.977C658.171 472.364 658.368 472.866 658.368 473.483C658.368 474.006 658.216 474.472 657.913 474.881C657.614 475.286 657.196 475.604 656.658 475.835C656.124 476.066 655.504 476.182 654.8 476.182C653.822 476.182 653.025 475.974 652.408 475.557C651.79 475.137 651.411 474.54 651.271 473.767L652.913 473.517C653.016 473.945 653.226 474.269 653.544 474.489C653.862 474.705 654.277 474.813 654.788 474.813C655.345 474.813 655.79 474.697 656.124 474.466C656.457 474.231 656.624 473.945 656.624 473.608C656.624 473.335 656.521 473.106 656.317 472.921C656.116 472.735 655.807 472.595 655.391 472.5L653.913 472.176C653.099 471.991 652.497 471.695 652.107 471.29C651.72 470.885 651.527 470.371 651.527 469.75C651.527 469.235 651.671 468.784 651.959 468.398C652.247 468.012 652.644 467.71 653.152 467.494C653.66 467.275 654.241 467.165 654.896 467.165C655.839 467.165 656.582 467.369 657.124 467.779C657.665 468.184 658.023 468.727 658.197 469.409ZM663.997 476.182C663.137 476.182 662.397 475.998 661.776 475.631C661.158 475.26 660.681 474.739 660.344 474.068C660.01 473.394 659.844 472.604 659.844 471.699C659.844 470.805 660.01 470.017 660.344 469.335C660.681 468.654 661.151 468.121 661.753 467.739C662.359 467.356 663.067 467.165 663.878 467.165C664.37 467.165 664.848 467.246 665.31 467.409C665.772 467.572 666.187 467.828 666.554 468.176C666.921 468.525 667.211 468.977 667.423 469.534C667.635 470.087 667.741 470.76 667.741 471.551V472.154H660.804V470.881H666.077C666.077 470.434 665.986 470.038 665.804 469.693C665.622 469.345 665.366 469.07 665.037 468.869C664.711 468.669 664.329 468.568 663.889 468.568C663.412 468.568 662.995 468.686 662.639 468.921C662.287 469.152 662.014 469.455 661.821 469.83C661.632 470.201 661.537 470.604 661.537 471.04V472.034C661.537 472.618 661.639 473.114 661.844 473.523C662.052 473.932 662.342 474.244 662.713 474.46C663.084 474.673 663.518 474.779 664.014 474.779C664.336 474.779 664.63 474.733 664.895 474.642C665.16 474.548 665.389 474.407 665.582 474.222C665.776 474.036 665.923 473.807 666.026 473.534L667.634 473.824C667.505 474.298 667.274 474.712 666.94 475.068C666.611 475.421 666.196 475.695 665.696 475.892C665.2 476.085 664.634 476.182 663.997 476.182ZM671.325 470.824V476.006H669.626V467.279H671.257V468.699H671.365C671.566 468.237 671.88 467.866 672.308 467.585C672.74 467.305 673.284 467.165 673.939 467.165C674.534 467.165 675.054 467.29 675.501 467.54C675.948 467.786 676.295 468.154 676.541 468.642C676.787 469.131 676.911 469.735 676.911 470.455V476.006H675.212V470.659C675.212 470.027 675.047 469.532 674.717 469.176C674.388 468.816 673.935 468.637 673.359 468.637C672.965 468.637 672.615 468.722 672.308 468.892C672.005 469.063 671.765 469.313 671.587 469.642C671.412 469.968 671.325 470.362 671.325 470.824ZM686.342 467.279L683.178 476.006H681.359L678.189 467.279H680.013L682.223 473.994H682.314L684.518 467.279H686.342ZM691.318 476.182C690.5 476.182 689.786 475.994 689.176 475.619C688.566 475.244 688.093 474.72 687.756 474.046C687.419 473.371 687.25 472.584 687.25 471.682C687.25 470.777 687.419 469.985 687.756 469.307C688.093 468.629 688.566 468.102 689.176 467.727C689.786 467.352 690.5 467.165 691.318 467.165C692.136 467.165 692.85 467.352 693.46 467.727C694.07 468.102 694.544 468.629 694.881 469.307C695.218 469.985 695.386 470.777 695.386 471.682C695.386 472.584 695.218 473.371 694.881 474.046C694.544 474.72 694.07 475.244 693.46 475.619C692.85 475.994 692.136 476.182 691.318 476.182ZM691.324 474.756C691.854 474.756 692.294 474.616 692.642 474.335C692.991 474.055 693.248 473.682 693.415 473.216C693.585 472.75 693.67 472.237 693.67 471.676C693.67 471.119 693.585 470.608 693.415 470.142C693.248 469.673 692.991 469.296 692.642 469.012C692.294 468.727 691.854 468.585 691.324 468.585C690.79 468.585 690.347 468.727 689.994 469.012C689.646 469.296 689.386 469.673 689.216 470.142C689.049 470.608 688.966 471.119 688.966 471.676C688.966 472.237 689.049 472.75 689.216 473.216C689.386 473.682 689.646 474.055 689.994 474.335C690.347 474.616 690.79 474.756 691.324 474.756ZM698.982 464.369V476.006H697.283V464.369H698.982ZM708.733 467.279L705.568 476.006H703.75L700.58 467.279H702.403L704.614 473.994H704.705L706.909 467.279H708.733ZM710.33 476.006V467.279H712.028V476.006H710.33ZM711.188 465.932C710.892 465.932 710.638 465.834 710.426 465.637C710.218 465.436 710.114 465.197 710.114 464.921C710.114 464.64 710.218 464.402 710.426 464.205C710.638 464.004 710.892 463.904 711.188 463.904C711.483 463.904 711.735 464.004 711.943 464.205C712.155 464.402 712.261 464.64 712.261 464.921C712.261 465.197 712.155 465.436 711.943 465.637C711.735 465.834 711.483 465.932 711.188 465.932ZM717.581 476.176C716.876 476.176 716.248 475.996 715.695 475.637C715.145 475.273 714.714 474.756 714.399 474.085C714.089 473.411 713.933 472.602 713.933 471.659C713.933 470.716 714.09 469.909 714.405 469.239C714.723 468.568 715.159 468.055 715.712 467.699C716.265 467.343 716.892 467.165 717.592 467.165C718.134 467.165 718.57 467.256 718.899 467.438C719.232 467.616 719.49 467.824 719.672 468.063C719.857 468.301 720.001 468.512 720.104 468.693H720.206V464.369H721.905V476.006H720.246V474.648H720.104C720.001 474.834 719.854 475.046 719.661 475.284C719.471 475.523 719.21 475.731 718.876 475.909C718.543 476.087 718.111 476.176 717.581 476.176ZM717.956 474.727C718.445 474.727 718.857 474.599 719.195 474.341C719.536 474.08 719.793 473.718 719.967 473.256C720.145 472.794 720.234 472.256 720.234 471.642C720.234 471.036 720.147 470.506 719.973 470.051C719.799 469.597 719.543 469.243 719.206 468.989C718.869 468.735 718.452 468.608 717.956 468.608C717.445 468.608 717.018 468.741 716.678 469.006C716.337 469.271 716.079 469.633 715.905 470.091C715.734 470.549 715.649 471.066 715.649 471.642C715.649 472.226 715.736 472.75 715.911 473.216C716.085 473.682 716.342 474.051 716.683 474.324C717.028 474.593 717.452 474.727 717.956 474.727ZM728.006 476.182C727.188 476.182 726.473 475.994 725.864 475.619C725.254 475.244 724.78 474.72 724.443 474.046C724.106 473.371 723.938 472.584 723.938 471.682C723.938 470.777 724.106 469.985 724.443 469.307C724.78 468.629 725.254 468.102 725.864 467.727C726.473 467.352 727.188 467.165 728.006 467.165C728.824 467.165 729.538 467.352 730.148 467.727C730.758 468.102 731.231 468.629 731.568 469.307C731.905 469.985 732.074 470.777 732.074 471.682C732.074 472.584 731.905 473.371 731.568 474.046C731.231 474.72 730.758 475.244 730.148 475.619C729.538 475.994 728.824 476.182 728.006 476.182ZM728.011 474.756C728.542 474.756 728.981 474.616 729.33 474.335C729.678 474.055 729.936 473.682 730.102 473.216C730.273 472.75 730.358 472.237 730.358 471.676C730.358 471.119 730.273 470.608 730.102 470.142C729.936 469.673 729.678 469.296 729.33 469.012C728.981 468.727 728.542 468.585 728.011 468.585C727.477 468.585 727.034 468.727 726.682 469.012C726.333 469.296 726.074 469.673 725.903 470.142C725.737 470.608 725.653 471.119 725.653 471.676C725.653 472.237 725.737 472.75 725.903 473.216C726.074 473.682 726.333 474.055 726.682 474.335C727.034 474.616 727.477 474.756 728.011 474.756ZM738.205 479.279V467.279H739.864V468.693H740.006C740.104 468.512 740.246 468.301 740.432 468.063C740.617 467.824 740.875 467.616 741.205 467.438C741.534 467.256 741.97 467.165 742.511 467.165C743.216 467.165 743.845 467.343 744.398 467.699C744.951 468.055 745.384 468.568 745.699 469.239C746.017 469.909 746.176 470.716 746.176 471.659C746.176 472.602 746.019 473.411 745.705 474.085C745.39 474.756 744.958 475.273 744.409 475.637C743.86 475.996 743.233 476.176 742.528 476.176C741.998 476.176 741.564 476.087 741.227 475.909C740.894 475.731 740.633 475.523 740.443 475.284C740.254 475.046 740.108 474.834 740.006 474.648H739.903V479.279H738.205ZM739.869 471.642C739.869 472.256 739.958 472.794 740.136 473.256C740.314 473.718 740.572 474.08 740.909 474.341C741.246 474.599 741.659 474.727 742.148 474.727C742.655 474.727 743.08 474.593 743.42 474.324C743.761 474.051 744.019 473.682 744.193 473.216C744.371 472.75 744.46 472.226 744.46 471.642C744.46 471.066 744.373 470.549 744.199 470.091C744.028 469.633 743.771 469.271 743.426 469.006C743.085 468.741 742.659 468.608 742.148 468.608C741.655 468.608 741.239 468.735 740.898 468.989C740.561 469.243 740.305 469.597 740.131 470.051C739.956 470.506 739.869 471.036 739.869 471.642ZM751.841 476.182C750.981 476.182 750.241 475.998 749.619 475.631C749.002 475.26 748.525 474.739 748.188 474.068C747.854 473.394 747.688 472.604 747.688 471.699C747.688 470.805 747.854 470.017 748.188 469.335C748.525 468.654 748.994 468.121 749.597 467.739C750.203 467.356 750.911 467.165 751.722 467.165C752.214 467.165 752.691 467.246 753.153 467.409C753.616 467.572 754.03 467.828 754.398 468.176C754.765 468.525 755.055 468.977 755.267 469.534C755.479 470.087 755.585 470.76 755.585 471.551V472.154H748.648V470.881H753.92C753.92 470.434 753.83 470.038 753.648 469.693C753.466 469.345 753.21 469.07 752.881 468.869C752.555 468.669 752.172 468.568 751.733 468.568C751.256 468.568 750.839 468.686 750.483 468.921C750.131 469.152 749.858 469.455 749.665 469.83C749.475 470.201 749.381 470.604 749.381 471.04V472.034C749.381 472.618 749.483 473.114 749.688 473.523C749.896 473.932 750.186 474.244 750.557 474.46C750.928 474.673 751.362 474.779 751.858 474.779C752.18 474.779 752.473 474.733 752.739 474.642C753.004 474.548 753.233 474.407 753.426 474.222C753.619 474.036 753.767 473.807 753.869 473.534L755.477 473.824C755.348 474.298 755.117 474.712 754.784 475.068C754.455 475.421 754.04 475.695 753.54 475.892C753.044 476.085 752.477 476.182 751.841 476.182ZM759.169 464.369V476.006H757.47V464.369H759.169ZM765.131 476.182C764.313 476.182 763.598 475.994 762.989 475.619C762.379 475.244 761.905 474.72 761.568 474.046C761.231 473.371 761.062 472.584 761.062 471.682C761.062 470.777 761.231 469.985 761.568 469.307C761.905 468.629 762.379 468.102 762.989 467.727C763.598 467.352 764.313 467.165 765.131 467.165C765.949 467.165 766.663 467.352 767.273 467.727C767.883 468.102 768.356 468.629 768.693 469.307C769.03 469.985 769.199 470.777 769.199 471.682C769.199 472.584 769.03 473.371 768.693 474.046C768.356 474.72 767.883 475.244 767.273 475.619C766.663 475.994 765.949 476.182 765.131 476.182ZM765.136 474.756C765.667 474.756 766.106 474.616 766.455 474.335C766.803 474.055 767.061 473.682 767.227 473.216C767.398 472.75 767.483 472.237 767.483 471.676C767.483 471.119 767.398 470.608 767.227 470.142C767.061 469.673 766.803 469.296 766.455 469.012C766.106 468.727 765.667 468.585 765.136 468.585C764.602 468.585 764.159 468.727 763.807 469.012C763.458 469.296 763.199 469.673 763.028 470.142C762.862 470.608 762.778 471.119 762.778 471.676C762.778 472.237 762.862 472.75 763.028 473.216C763.199 473.682 763.458 474.055 763.807 474.335C764.159 474.616 764.602 474.756 765.136 474.756ZM779.403 467.279V468.642H774.636V467.279H779.403ZM775.915 465.188H777.614V473.443C777.614 473.773 777.663 474.021 777.761 474.188C777.86 474.351 777.987 474.462 778.142 474.523C778.301 474.58 778.473 474.608 778.659 474.608C778.795 474.608 778.915 474.599 779.017 474.58C779.119 474.561 779.199 474.546 779.256 474.534L779.562 475.938C779.464 475.976 779.324 476.013 779.142 476.051C778.96 476.093 778.733 476.116 778.46 476.119C778.013 476.127 777.597 476.048 777.21 475.881C776.824 475.714 776.511 475.457 776.273 475.108C776.034 474.76 775.915 474.322 775.915 473.796V465.188ZM781.283 476.006V467.279H782.982V476.006H781.283ZM782.141 465.932C781.845 465.932 781.591 465.834 781.379 465.637C781.171 465.436 781.067 465.197 781.067 464.921C781.067 464.64 781.171 464.402 781.379 464.205C781.591 464.004 781.845 463.904 782.141 463.904C782.436 463.904 782.688 464.004 782.896 464.205C783.108 464.402 783.214 464.64 783.214 464.921C783.214 465.197 783.108 465.436 782.896 465.637C782.688 465.834 782.436 465.932 782.141 465.932ZM785.267 476.006V467.279H786.898V468.699H787.006C787.188 468.218 787.485 467.843 787.898 467.574C788.311 467.301 788.805 467.165 789.381 467.165C789.964 467.165 790.453 467.301 790.847 467.574C791.244 467.847 791.538 468.222 791.727 468.699H791.818C792.027 468.233 792.358 467.862 792.812 467.585C793.267 467.305 793.809 467.165 794.438 467.165C795.229 467.165 795.875 467.413 796.375 467.909C796.879 468.405 797.131 469.154 797.131 470.154V476.006H795.432V470.313C795.432 469.722 795.271 469.294 794.949 469.029C794.627 468.763 794.242 468.631 793.795 468.631C793.242 468.631 792.812 468.801 792.506 469.142C792.199 469.479 792.045 469.913 792.045 470.443V476.006H790.352V470.205C790.352 469.731 790.205 469.351 789.909 469.063C789.614 468.775 789.229 468.631 788.756 468.631C788.434 468.631 788.136 468.716 787.864 468.887C787.595 469.053 787.377 469.286 787.21 469.585C787.047 469.885 786.966 470.231 786.966 470.625V476.006H785.267ZM803.169 476.182C802.309 476.182 801.569 475.998 800.947 475.631C800.33 475.26 799.853 474.739 799.516 474.068C799.182 473.394 799.016 472.604 799.016 471.699C799.016 470.805 799.182 470.017 799.516 469.335C799.853 468.654 800.322 468.121 800.925 467.739C801.531 467.356 802.239 467.165 803.05 467.165C803.542 467.165 804.019 467.246 804.482 467.409C804.944 467.572 805.358 467.828 805.726 468.176C806.093 468.525 806.383 468.977 806.595 469.534C806.807 470.087 806.913 470.76 806.913 471.551V472.154H799.976V470.881H805.249C805.249 470.434 805.158 470.038 804.976 469.693C804.794 469.345 804.538 469.07 804.209 468.869C803.883 468.669 803.5 468.568 803.061 468.568C802.584 468.568 802.167 468.686 801.811 468.921C801.459 469.152 801.186 469.455 800.993 469.83C800.804 470.201 800.709 470.604 800.709 471.04V472.034C800.709 472.618 800.811 473.114 801.016 473.523C801.224 473.932 801.514 474.244 801.885 474.46C802.256 474.673 802.69 474.779 803.186 474.779C803.508 474.779 803.802 474.733 804.067 474.642C804.332 474.548 804.561 474.407 804.754 474.222C804.947 474.036 805.095 473.807 805.197 473.534L806.805 473.824C806.677 474.298 806.446 474.712 806.112 475.068C805.783 475.421 805.368 475.695 804.868 475.892C804.372 476.085 803.805 476.182 803.169 476.182ZM816.936 476.006H813.169V464.369H817.055C818.196 464.369 819.175 464.602 819.993 465.068C820.811 465.53 821.438 466.195 821.874 467.063C822.313 467.926 822.533 468.962 822.533 470.171C822.533 471.383 822.311 472.424 821.868 473.296C821.429 474.167 820.792 474.837 819.959 475.307C819.125 475.773 818.118 476.006 816.936 476.006ZM814.925 474.472H816.839C817.726 474.472 818.463 474.305 819.05 473.972C819.637 473.635 820.076 473.148 820.368 472.512C820.66 471.871 820.805 471.091 820.805 470.171C820.805 469.258 820.66 468.483 820.368 467.847C820.08 467.21 819.65 466.727 819.078 466.398C818.506 466.068 817.796 465.904 816.947 465.904H814.925V474.472ZM828.341 476.182C827.481 476.182 826.741 475.998 826.119 475.631C825.502 475.26 825.025 474.739 824.688 474.068C824.354 473.394 824.188 472.604 824.188 471.699C824.188 470.805 824.354 470.017 824.688 469.335C825.025 468.654 825.494 468.121 826.097 467.739C826.703 467.356 827.411 467.165 828.222 467.165C828.714 467.165 829.191 467.246 829.653 467.409C830.116 467.572 830.53 467.828 830.898 468.176C831.265 468.525 831.555 468.977 831.767 469.534C831.979 470.087 832.085 470.76 832.085 471.551V472.154H825.148V470.881H830.42C830.42 470.434 830.33 470.038 830.148 469.693C829.966 469.345 829.71 469.07 829.381 468.869C829.055 468.669 828.672 468.568 828.233 468.568C827.756 468.568 827.339 468.686 826.983 468.921C826.631 469.152 826.358 469.455 826.165 469.83C825.975 470.201 825.881 470.604 825.881 471.04V472.034C825.881 472.618 825.983 473.114 826.188 473.523C826.396 473.932 826.686 474.244 827.057 474.46C827.428 474.673 827.862 474.779 828.358 474.779C828.68 474.779 828.973 474.733 829.239 474.642C829.504 474.548 829.733 474.407 829.926 474.222C830.119 474.036 830.267 473.807 830.369 473.534L831.977 473.824C831.848 474.298 831.617 474.712 831.284 475.068C830.955 475.421 830.54 475.695 830.04 475.892C829.544 476.085 828.977 476.182 828.341 476.182ZM841.186 467.279L838.021 476.006H836.203L833.033 467.279H834.857L837.067 473.994H837.158L839.362 467.279H841.186ZM849.322 469.409L847.783 469.682C847.718 469.485 847.616 469.298 847.476 469.119C847.339 468.941 847.154 468.796 846.919 468.682C846.684 468.568 846.391 468.512 846.038 468.512C845.557 468.512 845.156 468.619 844.834 468.835C844.512 469.048 844.351 469.322 844.351 469.659C844.351 469.951 844.459 470.186 844.675 470.364C844.891 470.542 845.239 470.688 845.72 470.801L847.107 471.119C847.91 471.305 848.508 471.591 848.902 471.977C849.296 472.364 849.493 472.866 849.493 473.483C849.493 474.006 849.341 474.472 849.038 474.881C848.739 475.286 848.321 475.604 847.783 475.835C847.249 476.066 846.629 476.182 845.925 476.182C844.947 476.182 844.15 475.974 843.533 475.557C842.915 475.137 842.536 474.54 842.396 473.767L844.038 473.517C844.141 473.945 844.351 474.269 844.669 474.489C844.987 474.705 845.402 474.813 845.913 474.813C846.47 474.813 846.915 474.697 847.249 474.466C847.582 474.231 847.749 473.945 847.749 473.608C847.749 473.335 847.646 473.106 847.442 472.921C847.241 472.735 846.932 472.595 846.516 472.5L845.038 472.176C844.224 471.991 843.622 471.695 843.232 471.29C842.845 470.885 842.652 470.371 842.652 469.75C842.652 469.235 842.796 468.784 843.084 468.398C843.372 468.012 843.769 467.71 844.277 467.494C844.785 467.275 845.366 467.165 846.021 467.165C846.964 467.165 847.707 467.369 848.249 467.779C848.79 468.184 849.148 468.727 849.322 469.409ZM851.338 476.006V474.733L855.276 470.654C855.696 470.21 856.043 469.822 856.315 469.489C856.592 469.152 856.798 468.832 856.935 468.529C857.071 468.226 857.139 467.904 857.139 467.563C857.139 467.176 857.048 466.843 856.866 466.563C856.685 466.279 856.437 466.061 856.122 465.909C855.808 465.754 855.454 465.676 855.06 465.676C854.643 465.676 854.279 465.762 853.969 465.932C853.658 466.102 853.42 466.343 853.253 466.654C853.086 466.964 853.003 467.328 853.003 467.744H851.327C851.327 467.036 851.49 466.417 851.815 465.887C852.141 465.356 852.588 464.945 853.156 464.654C853.724 464.358 854.37 464.21 855.094 464.21C855.825 464.21 856.469 464.356 857.026 464.648C857.586 464.936 858.024 465.33 858.338 465.83C858.652 466.326 858.81 466.887 858.81 467.512C858.81 467.943 858.728 468.366 858.565 468.779C858.406 469.191 858.128 469.652 857.73 470.159C857.332 470.663 856.779 471.275 856.071 471.994L853.759 474.415V474.5H858.997V476.006H851.338ZM865.565 464.369V476.006H863.804V466.131H863.736L860.952 467.949V466.267L863.855 464.369H865.565ZM868.713 476.006V474.733L872.651 470.654C873.071 470.21 873.418 469.822 873.69 469.489C873.967 469.152 874.173 468.832 874.31 468.529C874.446 468.226 874.514 467.904 874.514 467.563C874.514 467.176 874.423 466.843 874.241 466.563C874.06 466.279 873.812 466.061 873.497 465.909C873.183 465.754 872.829 465.676 872.435 465.676C872.018 465.676 871.654 465.762 871.344 465.932C871.033 466.102 870.795 466.343 870.628 466.654C870.461 466.964 870.378 467.328 870.378 467.744H868.702C868.702 467.036 868.865 466.417 869.19 465.887C869.516 465.356 869.963 464.945 870.531 464.654C871.099 464.358 871.745 464.21 872.469 464.21C873.2 464.21 873.844 464.356 874.401 464.648C874.961 464.936 875.399 465.33 875.713 465.83C876.027 466.326 876.185 466.887 876.185 467.512C876.185 467.943 876.103 468.366 875.94 468.779C875.781 469.191 875.503 469.652 875.105 470.159C874.707 470.663 874.154 471.275 873.446 471.994L871.134 474.415V474.5H876.372V476.006H868.713Z" fill="#56008F"/>
</svg>
