<svg width="29" height="29" viewBox="0 0 29 29" fill="none" xmlns="http://www.w3.org/2000/svg">
<g clip-path="url(#clip0_428_920)">
<path d="M27.7192 1.27944C26.8977 0.459224 25.7843 -0.00146484 24.6234 -0.00146484C23.4626 -0.00146484 22.3491 0.459224 21.5277 1.27944L0 22.8071V28.9986H6.1915L27.7192 7.47094C28.5391 6.64931 28.9996 5.53596 28.9996 4.3752C28.9996 3.21443 28.5391 2.10108 27.7192 1.27944ZM5.19583 26.5819H2.41667V23.8028L18.4996 7.73195L21.2788 10.5111L5.19583 26.5819ZM26.0106 5.76236L22.9813 8.79165L20.2082 6.01249L23.2362 2.98803C23.6048 2.61949 24.1046 2.41244 24.6258 2.41244C25.147 2.41244 25.6469 2.61949 26.0154 2.98803C26.384 3.35657 26.591 3.85642 26.591 4.37761C26.591 4.89881 26.384 5.39865 26.0154 5.76719L26.0106 5.76236Z" fill="url(#paint0_linear_428_920)"/>
</g>
<defs>
<linearGradient id="paint0_linear_428_920" x1="14.4998" y1="-0.00146484" x2="14.4998" y2="28.9986" gradientUnits="userSpaceOnUse">
<stop stop-color="#56008F" stop-opacity="0.56"/>
<stop offset="1" stop-color="#56008F"/>
</linearGradient>
<clipPath id="clip0_428_920">
<rect width="29" height="29" fill="white"/>
</clipPath>
</defs>
</svg>
