<svg width="151" height="157" viewBox="0 0 151 157" fill="none" xmlns="http://www.w3.org/2000/svg">
<path d="M114.814 137.054C126.671 128.395 135.595 116.045 140.307 101.772C145.02 87.4992 145.278 72.0369 141.046 57.6013C136.815 43.1657 128.309 30.4979 116.749 21.4134C105.189 12.3289 91.1687 7.29411 76.6964 7.03066C62.2241 6.76722 48.0434 11.2886 36.1866 19.9469C24.3298 28.6051 15.4056 40.9557 10.6932 55.2285C5.98077 69.5012 5.72198 84.9635 9.95392 99.3991C14.1858 113.835 22.6912 126.503 34.2511 135.587L38.376 129.878C27.9721 121.702 20.3173 110.301 16.5085 97.3092C12.6998 84.3171 12.9327 70.4011 17.1739 57.5556C21.4151 44.7101 29.4468 33.5946 40.1179 25.8022C50.789 18.0098 63.5517 13.9405 76.5768 14.1776C89.6018 14.4147 102.221 18.946 112.624 27.1221C123.028 35.2981 130.683 46.6992 134.492 59.6912C138.301 72.6833 138.068 86.5993 133.826 99.4448C129.585 112.29 121.554 123.406 110.882 131.198L114.814 137.054Z" fill="#E9EDF0"/>
<path d="M114.814 137.054C126.671 128.395 135.595 116.045 140.307 101.772C145.02 87.4992 145.278 72.0369 141.046 57.6013C136.815 43.1657 128.309 30.4979 116.749 21.4134C105.189 12.3289 91.1687 7.29411 76.6964 7.03066C62.2241 6.76722 48.0434 11.2886 36.1866 19.9469C24.3298 28.6051 15.4056 40.9557 10.6932 55.2285C5.98077 69.5012 5.72198 84.9635 9.95392 99.3991C14.1858 113.835 22.6912 126.503 34.2511 135.587L38.376 129.878C27.9721 121.702 20.3173 110.301 16.5085 97.3092C12.6998 84.3171 12.9327 70.4011 17.1739 57.5556C21.4151 44.7101 29.4468 33.5946 40.1179 25.8022C50.789 18.0098 63.5517 13.9405 76.5768 14.1776C89.6018 14.4147 102.221 18.946 112.624 27.1221C123.028 35.2981 130.683 46.6992 134.492 59.6912C138.301 72.6833 138.068 86.5993 133.826 99.4448C129.585 112.29 121.554 123.406 110.882 131.198L114.814 137.054Z" fill="url(#paint0_linear_357_857)"/>
<path d="M118.518 142.571C126.586 136.68 133.462 129.189 138.754 120.526C144.046 111.863 147.65 102.198 149.361 92.0822C151.071 81.9667 150.854 71.599 148.722 61.571C146.59 51.543 142.586 42.0511 136.936 33.6371C131.287 25.2232 124.104 18.0521 115.797 12.5333C107.491 7.01439 98.2231 3.25584 88.5236 1.47221C78.8241 -0.311411 68.8827 -0.0851868 59.267 2.13797C49.6513 4.36113 40.5497 8.53768 32.4818 14.4292L44.0661 31.6828C49.9615 27.3779 56.6121 24.326 63.6384 22.7015C70.6647 21.077 77.929 20.9117 85.0165 22.215C92.104 23.5184 98.876 26.2648 104.946 30.2975C111.016 34.3302 116.264 39.5702 120.392 45.7183C124.52 51.8664 127.447 58.8023 129.004 66.1299C130.562 73.4574 130.72 81.0332 129.471 88.4247C128.221 95.8161 125.587 102.879 121.721 109.209C117.854 115.539 112.829 121.012 106.934 125.317L118.518 142.571Z" fill="url(#paint1_linear_357_857)"/>
<path d="M38.7521 97.0425C36.343 97.0425 34.1953 96.5993 32.309 95.7129C30.434 94.8265 28.9453 93.605 27.843 92.0481C26.7408 90.4913 26.1669 88.7072 26.1215 86.6959H33.2805C33.3601 88.0481 33.9283 89.1447 34.9851 89.9856C36.0419 90.8265 37.2976 91.247 38.7521 91.247C39.9112 91.247 40.934 90.9913 41.8203 90.48C42.718 89.9572 43.4169 89.2356 43.9169 88.3152C44.4283 87.3834 44.684 86.3152 44.684 85.1106C44.684 83.8834 44.4226 82.8038 43.8999 81.872C43.3885 80.9402 42.6783 80.2129 41.7692 79.6902C40.8601 79.1675 39.8203 78.9004 38.6499 78.889C37.6271 78.889 36.6328 79.0993 35.6669 79.5197C34.7124 79.9402 33.968 80.514 33.434 81.2413L26.8715 80.0652L28.5249 61.6561H49.8658V67.6902H34.6101L33.7067 76.4345H33.9112C34.5249 75.5709 35.451 74.855 36.6896 74.2868C37.9283 73.7186 39.3146 73.4345 40.8487 73.4345C42.951 73.4345 44.826 73.9288 46.4737 74.9175C48.1215 75.9061 49.4226 77.264 50.3771 78.9913C51.3317 80.7072 51.8033 82.6845 51.7919 84.9231C51.8033 87.2754 51.2578 89.3663 50.1555 91.1959C49.0646 93.014 47.5362 94.4459 45.5703 95.4913C43.6158 96.5254 41.343 97.0425 38.7521 97.0425ZM69.6671 97.3322C66.7353 97.3209 64.2126 96.5993 62.099 95.1675C59.9967 93.7356 58.3774 91.6618 57.241 88.9459C56.116 86.23 55.5592 82.9629 55.5705 79.1447C55.5705 75.3379 56.133 72.0936 57.258 69.4118C58.3944 66.73 60.0137 64.6902 62.116 63.2925C64.2296 61.8834 66.7467 61.1788 69.6671 61.1788C72.5876 61.1788 75.099 61.8834 77.2012 63.2925C79.3149 64.7015 80.9399 66.747 82.0762 69.4288C83.2126 72.0993 83.7751 75.3379 83.7637 79.1447C83.7637 82.9743 83.1955 86.247 82.0592 88.9629C80.9342 91.6788 79.3205 93.7527 77.2183 95.1845C75.116 96.6163 72.599 97.3322 69.6671 97.3322ZM69.6671 91.2129C71.6671 91.2129 73.2637 90.2072 74.4569 88.1959C75.6501 86.1845 76.241 83.1675 76.2296 79.1447C76.2296 76.497 75.9569 74.2925 75.4115 72.5311C74.8774 70.7697 74.116 69.4459 73.1274 68.5595C72.1501 67.6731 70.9967 67.23 69.6671 67.23C67.6785 67.23 66.0876 68.2243 64.8944 70.2129C63.7012 72.2015 63.099 75.1788 63.0876 79.1447C63.0876 81.8265 63.3546 84.0652 63.8887 85.8606C64.4342 87.6447 65.2012 88.9856 66.1899 89.8834C67.1785 90.7697 68.3376 91.2129 69.6671 91.2129ZM107.174 90.0197V88.1788C107.174 86.7811 107.47 85.497 108.061 84.3265C108.663 83.1447 109.532 82.2015 110.669 81.497C111.817 80.7811 113.214 80.4231 114.862 80.4231C116.532 80.4231 117.936 80.7754 119.072 81.48C120.22 82.1845 121.084 83.1277 121.663 84.3095C122.254 85.48 122.549 86.7697 122.549 88.1788V90.0197C122.549 91.4175 122.254 92.7072 121.663 93.889C121.072 95.0595 120.203 95.997 119.055 96.7015C117.907 97.4175 116.51 97.7754 114.862 97.7754C113.192 97.7754 111.788 97.4175 110.652 96.7015C109.515 95.997 108.652 95.0595 108.061 93.889C107.47 92.7072 107.174 91.4175 107.174 90.0197ZM112.135 88.1788V90.0197C112.135 90.8265 112.328 91.5879 112.714 92.3038C113.112 93.0197 113.828 93.3777 114.862 93.3777C115.896 93.3777 116.601 93.0254 116.976 92.3209C117.362 91.6163 117.555 90.8493 117.555 90.0197V88.1788C117.555 87.3493 117.373 86.5765 117.01 85.8606C116.646 85.1447 115.93 84.7868 114.862 84.7868C113.839 84.7868 113.129 85.1447 112.731 85.8606C112.334 86.5765 112.135 87.3493 112.135 88.1788ZM89.2597 70.0425V68.2015C89.2597 66.7925 89.5608 65.5027 90.1631 64.3322C90.7654 63.1504 91.6347 62.2072 92.7711 61.5027C93.9188 60.7981 95.3052 60.4459 96.9302 60.4459C98.612 60.4459 100.021 60.7981 101.157 61.5027C102.294 62.2072 103.157 63.1504 103.748 64.3322C104.339 65.5027 104.635 66.7925 104.635 68.2015V70.0425C104.635 71.4515 104.334 72.7413 103.731 73.9118C103.14 75.0822 102.271 76.0197 101.123 76.7243C99.987 77.4175 98.5892 77.764 96.9302 77.764C95.2711 77.764 93.8677 77.4118 92.7199 76.7072C91.5836 75.9913 90.7199 75.0538 90.129 73.8947C89.5495 72.7243 89.2597 71.4402 89.2597 70.0425ZM94.254 68.2015V70.0425C94.254 70.872 94.4472 71.639 94.8336 72.3436C95.2313 73.0481 95.9302 73.4004 96.9302 73.4004C97.9756 73.4004 98.6858 73.0481 99.0608 72.3436C99.4472 71.639 99.6404 70.872 99.6404 70.0425V68.2015C99.6404 67.372 99.4586 66.5993 99.0949 65.8834C98.7313 65.1675 98.0097 64.8095 96.9302 64.8095C95.9188 64.8095 95.2199 65.1731 94.8336 65.9004C94.4472 66.6277 94.254 67.3947 94.254 68.2015ZM91.5097 96.5652L115.51 61.6561H119.976L95.9756 96.5652H91.5097Z" fill="url(#paint2_linear_357_857)"/>
<defs>
<linearGradient id="paint0_linear_357_857" x1="6.95898" y1="78.5002" x2="144.041" y2="78.5002" gradientUnits="userSpaceOnUse">
<stop stop-color="#5B5D65"/>
<stop offset="1" stop-color="#1E1F24"/>
</linearGradient>
<linearGradient id="paint1_linear_357_857" x1="75.5" y1="0.283936" x2="75.5" y2="156.716" gradientUnits="userSpaceOnUse">
<stop stop-color="#BD81FF"/>
<stop offset="1" stop-color="#56008F"/>
</linearGradient>
<linearGradient id="paint2_linear_357_857" x1="17.375" y1="78.2199" x2="132.285" y2="78.2199" gradientUnits="userSpaceOnUse">
<stop stop-color="#5B5D65"/>
<stop offset="1" stop-color="#1E1F24"/>
</linearGradient>
</defs>
</svg>
