<svg width="153" height="114" viewBox="0 0 153 114" fill="none" xmlns="http://www.w3.org/2000/svg">
<path d="M113.64 80.382C115.29 80.382 116.388 79.1565 116.388 77.4649V59.7063C120.236 63.8082 125.563 66.2185 131.441 66.2185C137.022 66.2185 142.265 63.9352 146.028 60.1711C149.791 56.4084 152.032 51.208 152.032 45.6267C152.032 40.0035 149.791 34.7181 146.028 30.9553C142.265 27.1925 137.022 24.9092 131.441 24.9092C125.859 24.9092 120.617 27.1925 116.854 30.9553C113.006 34.7181 110.765 40.0035 110.765 45.6267V77.4649C110.765 79.1133 112.075 80.382 113.64 80.382ZM131.441 60.594C127.34 60.594 123.534 58.9876 120.786 56.1544C118.038 53.4063 116.388 49.6435 116.388 45.6267C116.388 41.568 118.038 37.7621 120.786 35.014C123.534 32.2659 127.34 30.6175 131.441 30.6175C135.542 30.6175 139.347 32.2659 142.095 35.014C144.845 37.7621 146.451 41.568 146.451 45.6267C146.451 49.6435 144.845 53.4063 142.095 56.1544C139.347 58.9876 135.626 60.594 131.441 60.594Z" fill="#6822A4"/>
<path d="M3.8121 75.2772C5.97337 75.2772 7.66859 73.6251 7.66859 71.4639V35.8752C7.66859 33.545 8.55751 31.47 10.1257 29.9018C11.6508 28.3767 13.7689 27.4446 16.0991 27.4446C18.4293 27.4446 20.5055 28.3348 22.0725 29.9018C23.5976 31.4269 24.5296 33.5882 24.5296 35.7913V71.4219C24.5296 73.582 26.1829 75.2772 28.343 75.2772C30.5462 75.2772 32.2414 73.582 32.2414 71.4219V35.8752C32.2414 33.6301 33.1303 31.47 34.6554 29.9437C36.1817 28.3767 38.2147 27.4446 40.5449 27.4446C42.8751 27.4446 45.0363 28.3348 46.5614 29.9018C48.1284 31.47 49.0186 33.545 49.0186 35.8752V71.4639C49.0186 73.6251 50.7557 75.2772 52.9158 75.2772C55.077 75.2772 56.7722 73.6251 56.7722 71.4639V35.5793C56.7722 31.2148 54.9919 27.1907 52.0688 24.1824C49.0605 21.1742 44.9513 19.437 40.5868 19.437C35.7157 19.437 31.3931 21.6402 28.3861 25.2415C25.2928 21.5551 20.9284 19.437 16.0572 19.437C11.6928 19.437 7.62544 21.1742 4.70225 24.1824C1.69399 27.1907 0 31.1729 0 35.5793V71.4639C0 73.6251 1.65208 75.2772 3.8121 75.2772Z" fill="#56008F"/>
<path d="M16.7558 109.415C17.2453 109.415 17.6546 109.018 17.6546 108.53V96.901C17.6546 96.0676 17.9715 95.3278 18.5398 94.7595C19.0823 94.2182 19.8615 93.9014 20.6678 93.9014C21.4741 93.9014 22.2274 94.2305 22.7958 94.7989C23.337 95.3414 23.681 96.1082 23.681 96.901V108.516C23.681 109.006 24.0644 109.415 24.5798 109.415C25.0951 109.415 25.5044 109.006 25.5044 108.516V96.9133C25.5044 96.1206 25.8349 95.3414 26.3638 94.7989C26.905 94.2305 27.6447 93.9014 28.4782 93.9014C29.3104 93.9014 30.0772 94.2305 30.6185 94.773C31.1868 95.3414 31.5037 96.0811 31.5037 96.9133V108.53C31.5037 109.018 31.913 109.415 32.4284 109.415C32.9178 109.415 33.3271 109.018 33.3271 108.53V96.848C33.3271 95.5399 32.8118 94.3242 31.9266 93.4378C31.0414 92.5526 29.8122 92.0249 28.4905 92.0249C26.905 92.0249 25.518 92.8041 24.5798 94.0727C23.6415 92.8041 22.2533 92.0249 20.6678 92.0249C19.3597 92.0249 18.1576 92.5403 17.2589 93.4378C16.3736 94.3242 15.8447 95.5399 15.8447 96.848V108.53C15.8447 109.018 16.2405 109.415 16.7558 109.415Z" fill="#56008F"/>
<path d="M41.9264 109.574C42.6267 109.574 43.2481 109.507 43.8165 109.362C44.2652 109.244 44.7411 109.045 45.2565 108.754C45.5339 108.595 45.6794 108.358 45.6794 108.04C45.6794 107.564 45.2959 107.116 44.82 107.116C44.6351 107.116 44.4502 107.169 44.2788 107.275C43.8695 107.499 43.5255 107.657 43.221 107.737C42.8906 107.829 42.4553 107.882 41.9264 107.882C40.8033 107.882 39.7454 107.46 38.9132 106.732C38.1069 106.006 37.5657 105.027 37.4202 103.931H47.5423C48.0576 103.931 48.4016 103.561 48.4016 103.085C48.388 101.354 47.6619 99.7281 46.4857 98.5519C45.2824 97.3757 43.6574 96.6631 41.9264 96.6631C40.1819 96.6631 38.5434 97.3757 37.3672 98.5519C36.1651 99.7552 35.4648 101.38 35.4648 103.125C35.4648 104.869 36.1651 106.508 37.3672 107.684C38.5434 108.86 40.1819 109.574 41.9264 109.574ZM37.3672 102.45C37.4868 101.341 38.028 100.296 38.8343 99.5567C39.6665 98.8034 40.7503 98.3546 41.9523 98.3546C43.1285 98.3546 44.2393 98.7898 45.0851 99.5308C45.9309 100.271 46.4585 101.288 46.604 102.45H37.3672Z" fill="#56008F"/>
<path d="M51.1211 109.415C51.597 109.415 51.9939 109.045 52.0063 108.529L52.0334 100.772V100.693C52.0198 100.68 52.0198 100.654 52.0198 100.627C52.0729 100.046 52.3638 99.4776 52.7867 99.067C53.2219 98.6577 53.7903 98.4197 54.4116 98.4197C55.086 98.4197 55.6803 98.6848 56.1167 99.1595C56.5519 99.6354 56.8035 100.257 56.8035 100.904V108.516C56.8035 109.005 57.1869 109.401 57.6751 109.401C58.151 109.401 58.5616 109.005 58.5616 108.516V100.759C58.548 100.746 58.548 100.719 58.548 100.693C58.5875 100.085 58.8254 99.5565 59.2877 99.0941C59.7242 98.6713 60.2925 98.4333 60.9127 98.4333C61.5871 98.4333 62.2085 98.6972 62.6449 99.1595C63.0801 99.6231 63.3452 100.257 63.3452 100.892V108.529C63.3452 109.045 63.7409 109.415 64.2304 109.415C64.7063 109.415 65.1156 109.045 65.1156 108.529V100.746C65.1156 99.6231 64.6533 98.5924 63.8605 97.8119C63.0801 97.0586 62.01 96.6099 60.9004 96.6099C59.6182 96.6099 58.4284 97.2177 57.6492 98.2089C56.8429 97.2177 55.6544 96.6099 54.3722 96.6099C53.249 96.6099 52.2307 97.0463 51.4515 97.8255C50.6723 98.6047 50.2358 99.6354 50.2358 100.759V108.529C50.2358 109.045 50.6328 109.415 51.1211 109.415Z" fill="#56008F"/>
<path d="M73.2261 109.574C74.9842 109.574 76.6227 108.86 77.7989 107.684C78.9751 106.508 79.6754 104.883 79.6754 103.138C79.6754 101.38 78.9751 99.7552 77.7989 98.5519C76.6227 97.3757 74.9842 96.6631 73.2261 96.6631C71.4816 96.6631 69.8825 97.3498 68.6804 98.5519C67.4784 99.7281 66.7781 101.38 66.7781 103.138C66.7781 104.883 67.4784 106.508 68.6804 107.684C69.8825 108.886 71.4816 109.574 73.2261 109.574ZM73.2261 107.816C71.9451 107.816 70.7689 107.314 69.9096 106.429C69.0503 105.57 68.5349 104.393 68.5349 103.138C68.5349 101.87 69.0503 100.68 69.9096 99.8205C70.7689 98.9624 71.9451 98.4471 73.2261 98.4471C74.5083 98.4471 75.7104 98.9624 76.5697 99.8205C77.4155 100.68 77.9173 101.87 77.9173 103.138C77.9173 104.393 77.4155 105.57 76.5697 106.429C75.7104 107.314 74.5342 107.816 73.2261 107.816Z" fill="#56008F"/>
<path d="M82.3557 109.415C82.8304 109.415 83.2002 109.045 83.2002 108.53V103.402C83.2002 102.068 83.7563 100.786 84.6674 99.8735C85.5797 98.9624 86.8212 98.42 88.1293 98.42H88.2354C88.7643 98.42 89.1477 98.0637 89.1477 97.5483C89.1477 97.0194 88.8037 96.6631 88.2354 96.6631H88.1293C86.333 96.6631 84.6674 97.3893 83.4123 98.6443C82.1831 99.9007 81.4434 101.592 81.4434 103.402V108.53C81.4434 109.045 81.8662 109.415 82.3557 109.415Z" fill="#56008F"/>
<path d="M102.334 113.353C102.849 113.353 103.246 112.983 103.246 112.467V97.5481C103.246 97.0327 102.837 96.6357 102.347 96.6357C101.871 96.6357 101.462 97.0327 101.462 97.5481V103.085C101.462 104.287 100.959 105.437 100.115 106.244C99.2553 107.076 98.0927 107.564 96.9165 107.564C95.7132 107.564 94.5641 107.076 93.7184 106.244C92.8726 105.437 92.3696 104.287 92.3696 103.085V97.5481C92.3696 97.0327 91.9602 96.6357 91.4843 96.6357C90.969 96.6357 90.5732 97.0327 90.5732 97.5481V103.018C90.5732 104.749 91.26 106.323 92.4361 107.499C93.5988 108.661 95.2114 109.348 96.9165 109.348C98.7128 109.348 100.3 108.49 101.462 107.102V112.467C101.462 112.983 101.846 113.353 102.334 113.353Z" fill="#56008F"/>
<path d="M111.939 109.574C113.895 109.574 115.534 108.846 116.644 107.591C117.714 106.388 118.308 104.737 118.308 102.979V92.8963C118.308 92.381 117.885 91.9976 117.397 91.9976C116.882 91.9976 116.485 92.381 116.485 92.8963V102.926C116.485 104.314 116.036 105.542 115.229 106.401C114.397 107.287 113.286 107.776 111.978 107.776C110.71 107.776 109.614 107.3 108.86 106.468C108.107 105.636 107.671 104.46 107.671 103.099V92.8963C107.671 92.381 107.248 91.9976 106.76 91.9976C106.244 91.9976 105.847 92.381 105.847 92.8963V103.217C105.847 104.895 106.402 106.482 107.446 107.631C108.544 108.846 110.049 109.574 111.939 109.574Z" fill="#6822A4"/>
<path d="M122.072 114C122.587 114 122.93 113.617 122.93 113.089V107.538C124.134 108.821 125.798 109.574 127.635 109.574C129.379 109.574 131.018 108.86 132.194 107.684C133.37 106.508 134.071 104.883 134.071 103.138C134.071 101.38 133.37 99.7281 132.194 98.5519C131.018 97.3757 129.379 96.6631 127.635 96.6631C125.89 96.6631 124.252 97.3757 123.076 98.5519C121.874 99.7281 121.173 101.38 121.173 103.138V113.089C121.173 113.604 121.583 114 122.072 114ZM127.635 107.816C126.354 107.816 125.164 107.314 124.305 106.429C123.447 105.57 122.93 104.393 122.93 103.138C122.93 101.87 123.447 100.68 124.305 99.8205C125.164 98.9624 126.354 98.4471 127.635 98.4471C128.917 98.4471 130.107 98.9624 130.965 99.8205C131.824 100.68 132.326 101.87 132.326 103.138C132.326 104.393 131.824 105.57 130.965 106.429C130.107 107.314 128.943 107.816 127.635 107.816Z" fill="#6822A4"/>
<mask id="mask0_1_168" style="mask-type:luminance" maskUnits="userSpaceOnUse" x="84" y="9" width="24" height="22">
<path d="M84.9807 9.94189H107.705V30.1416H84.9807V9.94189Z" fill="white"/>
</mask>
<g mask="url(#mask0_1_168)">
<mask id="mask1_1_168" style="mask-type:luminance" maskUnits="userSpaceOnUse" x="85" y="8" width="24" height="22">
<path d="M108.191 27.4859L86.9236 29.9468L85.1201 11.1957L106.387 8.73486L108.191 27.4859Z" fill="white"/>
</mask>
<g mask="url(#mask1_1_168)">
<mask id="mask2_1_168" style="mask-type:luminance" maskUnits="userSpaceOnUse" x="63" y="9" width="47" height="40">
<path d="M109.741 43.621L66.8271 48.5871L63.5022 14.002L106.417 9.03467L109.741 43.621Z" fill="white"/>
</mask>
<g mask="url(#mask2_1_168)">
<path d="M95.8239 21.9789C95.5206 22.4462 95.2857 22.8543 95.0082 23.2266C94.0823 24.4595 93.1957 25.7355 92.1878 26.8858C91.1013 28.1274 89.3585 28.0275 88.1359 26.8772C87.8314 26.5924 87.3382 26.548 86.882 26.3779C86.6449 25.8884 87.0685 25.611 87.3157 25.2929C89.5596 22.4067 91.2024 19.1137 92.5687 15.6653C93.0924 14.3461 93.3912 12.9159 93.7497 11.524C94.0306 10.4304 94.0654 10.2751 95.1172 10.2467C96.9937 10.1949 98.6814 10.7016 100.022 12.3217C102.357 15.1339 104.839 17.8019 106.698 21.0481C106.999 21.5758 107.239 22.1466 107.668 23.0232C106.113 22.8974 104.858 23.0552 103.923 21.8162C103.351 21.0567 102.769 20.3108 101.98 19.2752C101.92 20.4662 101.889 21.2885 101.834 22.1047C101.417 28.2605 99.7253 33.9651 95.9689 38.5983C92.5519 42.8173 88.3629 45.9451 83.0447 46.6331C78.5782 47.2088 74.5544 45.7294 70.9014 43.0269C69.4395 41.9419 68.1563 40.5586 66.8271 39.2702C66.4821 38.9361 66.263 38.4516 65.9866 38.0324C66.0686 37.9264 66.1495 37.8204 66.2304 37.7143C66.8158 38.025 67.4192 38.3024 67.9777 38.6624C68.3271 38.888 68.6125 39.2333 68.917 39.5378C72.8094 43.451 77.3118 44.0945 82.1761 42.3438C85.8909 41.0074 88.8146 38.3961 91.1586 35.0106C93.6351 31.4414 95.1599 27.3987 95.8813 22.9862C95.915 22.7889 95.9386 22.5904 95.9476 22.3919C95.9464 22.3032 95.8947 22.2132 95.8239 21.9789Z" fill="#6822A4"/>
</g>
</g>
</g>
<path d="M81.1227 75.8951C87.4228 75.8951 92.5812 73.6549 96.2589 69.6382C99.769 65.7484 101.671 60.336 101.671 54.2467V23.4663C101.671 22.4097 101.29 21.5221 100.53 20.7601C99.7258 20.0414 98.8382 19.6616 97.8235 19.6616C95.6252 19.6616 93.9337 21.31 93.9337 23.4663V54.121C93.9337 58.2216 92.7082 61.7735 90.4668 64.3108C88.2686 66.8469 85.0125 68.2844 81.2916 68.2844C77.6127 68.2844 74.6537 67.0589 72.4123 64.6067C70.2141 62.2383 69.0724 58.7295 69.0724 54.5007V23.4663C69.0724 21.31 67.3809 19.6616 65.1826 19.6616C63.0263 19.6616 61.3767 21.31 61.3767 23.4663V55.0087C61.3767 60.7589 63.1533 65.9173 66.5351 69.6801C70.0452 73.6118 75.0335 75.8951 81.1227 75.8951Z" fill="#6822A4"/>
</svg>
